<?xml version="1.0" standalone="no"?>
<!DOCTYPE svg PUBLIC "-//W3C//DTD SVG 1.1//EN" "http://www.w3.org/Graphics/SVG/1.1/DTD/svg11.dtd" >
<svg xmlns="http://www.w3.org/2000/svg" xmlns:xlink="http://www.w3.org/1999/xlink" version="1.1">
<metadata>
Created by FontForge 20170731 at Fri Oct 30 10:33:30 2020
 By Aleksey,,,
(c) 1990, 2002 Adobe Systems Incorporated. All rights reserved. (c) 1990, 2002 The Monotype Corporation PLC. All rights reserved.
</metadata>
<defs>
<font id="BemboStd" horiz-adv-x="1067" >
  <font-face 
    font-family="Bembo Std"
    font-weight="400"
    font-stretch="normal"
    units-per-em="2048"
    panose-1="2 2 6 5 6 3 6 2 10 3"
    ascent="1376"
    descent="-672"
    x-height="811"
    cap-height="1274"
    bbox="-422 -477 2101 1835"
    underline-thickness="102"
    underline-position="-307"
    unicode-range="U+0020-FB04"
  />
<missing-glyph horiz-adv-x="1024" 
d="M0 0v1434h1024v-1434h-1024zM512 809l348 522h-696zM573 717l349 -522v1044zM164 102h696l-348 523zM102 1239v-1044l349 522z" />
    <glyph glyph-name="f_f" unicode="ff" horiz-adv-x="1130" 
d="M885 811h184l12 -90h-196v-516q0 -41 0.5 -57.5t5 -41t13 -33t25.5 -19t43 -13t64 -2.5h51v-39h-479v39q34 0 56 2.5t38.5 11t25 18.5t13.5 30.5t6 41t1 56.5v522h-424v-522q0 -105 26 -132.5t115 -27.5v-39h-426v39q52 0 81 6t44 26t18.5 44.5t3.5 74.5v531h-159v33
q99 26 159 57q0 42 2 67.5t10 65.5t28.5 80.5t54.5 85.5q24 30 51 57t72 61.5t104 55.5t121 21q84 0 150 -33t91 -78q163 182 326 182q56 0 108 -19t78.5 -40.5t26.5 -34.5q0 -16 -22.5 -58t-36.5 -42q-9 0 -56 35q-105 67 -184 67q-18 0 -40 -4.5t-54 -17.5t-60.5 -44
t-44.5 -75q-23 -65 -26 -201v-131zM324 811h424q1 106 15 171t46 122q-24 5 -40 14t-54 39q-89 72 -183 72q-118 0 -172 -111q-17 -31 -25.5 -64.5t-9.5 -54.5t-1 -67v-121z" />
    <glyph glyph-name="f_f_i" unicode="ffi" horiz-adv-x="1622" 
d="M739 721h-415v-524q0 -71 12.5 -104t39.5 -43.5t87 -10.5v-39h-416v39q35 1 58.5 4t39.5 13t24 18.5t12 31t4.5 39t0.5 54.5v522h-139v35q57 10 139 55q2 98 21 164.5t82 146.5q68 84 153 134.5t179 50.5q63 0 132.5 -26t102.5 -87q24 28 51.5 54t69.5 56.5t95 49
t108 18.5t108 -17.5t83 -40t30 -38.5q0 -15 -26 -56.5t-40 -41.5q-3 0 -19 11.5t-33.5 24.5t-22.5 15q-79 51 -168 51q-33 0 -69 -12.5t-75.5 -52t-56.5 -99.5q-14 -49 -14 -147v-158h157l23 -90h-180v-524q0 -36 3 -62t11.5 -43.5t19 -28t29 -16t36.5 -7t48 -1.5v-39h-434
v39q28 0 49 1.5t37 6.5t26.5 9t18 16t11 20t5 28.5t2 33.5t0.5 43v2v522zM324 811h415q3 134 11.5 183.5t44.5 111.5q-22 6 -35.5 14.5t-69.5 50.5q-78 60 -166 60q-32 0 -64.5 -14t-64 -45t-51.5 -90t-20 -138v-133zM1430 844v-645q0 -96 23.5 -128t100.5 -32v-39h-403v39
q36 0 59.5 2.5t39.5 12.5t24.5 18.5t12.5 32t4.5 40t0.5 54.5v399q0 70 -4 76q-9 15 -88 33l-67 16v35l264 86h33z" />
    <glyph glyph-name="f_f_l" unicode="ffl" horiz-adv-x="1622" 
d="M1303 721h-422v-541q0 -48 7.5 -76.5t27 -42.5t43 -18t67.5 -4v-39h-432v39q28 0 49.5 1.5t37 7t26.5 10t18 16t10.5 19t5 25.5t2 28.5t0.5 35.5v539h-421v-533q0 -52 5.5 -80.5t24.5 -44.5t45 -20t76 -4v-39h-418v39q33 2 54.5 5t36.5 12t22 16.5t11 29t4.5 37t0.5 51.5
v531h-129v33q80 23 129 57q5 57 10 87.5t19 78t42.5 91.5t74.5 91q142 150 301 150q82 0 150.5 -35.5t90.5 -87.5q45 61 131 108t185 47q28 0 65 -5t47 -5q80 0 105 55h35v-1196q0 -94 21.5 -122t97.5 -29v-39h-404v39q32 0 54.5 3.5t39 7.5t26.5 16t16 21t8.5 30.5t3 36
t0.5 45.5v522zM881 811h422v379q-4 1 -86 39q-70 31 -132 31q-52 0 -96.5 -33.5t-73.5 -89.5q-22 -47 -28 -91t-6 -112v-123zM322 811h421q-2 179 70 293q-43 14 -94 53q-36 27 -55.5 39.5t-52.5 23.5t-72 11q-45 0 -80.5 -15t-57.5 -36.5t-38 -58.5t-24 -66t-12 -75
t-4.5 -70.5t-0.5 -65.5v-33z" />
    <glyph glyph-name="f_i" unicode="fi" horiz-adv-x="1130" 
d="M942 844v-688q0 -117 148 -117v-39h-424v39q47 0 74.5 7.5t42 27t18.5 44.5t4 70v412q0 63 -18 83.5t-91 35.5v35l215 90h31zM586 811l12 -90h-272v-561q0 -70 32 -95.5t119 -25.5h64v-39h-492v39q88 0 113.5 27t25.5 114v541h-151v35q84 18 151 55q8 147 40 236.5
t118 175.5q66 66 157 109.5t189 43.5q96 0 170 -40t74 -76q0 -19 -36.5 -49.5t-51.5 -30.5q-8 0 -31.5 18.5t-51 40.5t-73.5 40.5t-94 18.5q-107 0 -189.5 -85.5t-82.5 -227.5v-174h260z" />
    <glyph glyph-name="f_l" unicode="fl" 
d="M750 721h-428v-561q0 -70 32 -95.5t119 -25.5v-39h-428v39q88 0 113.5 27t25.5 114v541h-151v35q84 18 151 55q0 135 30.5 225.5t113.5 173.5q129 129 295 129q50 0 77 -5t48 -5q34 0 58 14t32 33h49v-1214q0 -123 119 -123h34v-39h-460v39q96 0 133 31t37 106v545z
M750 811v375q-39 30 -97.5 55t-109.5 25q-63 0 -107 -26t-68.5 -76.5t-35 -115.5t-10.5 -153v-84h428z" />
    <glyph glyph-name=".notdef" horiz-adv-x="1024" 
d="M0 0v1434h1024v-1434h-1024zM512 809l348 522h-696zM573 717l349 -522v1044zM164 102h696l-348 523zM102 1239v-1044l349 522z" />
    <glyph glyph-name=".null" horiz-adv-x="0" 
 />
    <glyph glyph-name="nonmarkingreturn" horiz-adv-x="682" 
 />
    <glyph glyph-name="space" unicode=" " horiz-adv-x="569" 
 />
    <glyph glyph-name="exclam" unicode="!" horiz-adv-x="532" 
d="M287 365h-41l-76 921q-2 28 7.5 36.5t43.5 8.5h92q34 0 43 -9.5t6 -39.5zM162 72q0 42 29.5 69t74.5 27q44 0 74.5 -26.5t30.5 -69.5q0 -44 -30.5 -70.5t-74.5 -26.5q-45 0 -74.5 27.5t-29.5 69.5z" />
    <glyph glyph-name="quotedbl" unicode="&#x22;" horiz-adv-x="831" 
d="M233 1305q44 0 72.5 -31t28.5 -78q0 -24 -4 -53.5t-12 -76t-9 -50.5l-51 -295h-49l-51 295q-1 4 -9 50.5t-12 76t-4 53.5q0 47 28 78t72 31zM598 1305q44 0 72 -31t28 -78q0 -33 -24 -180l-51 -295h-50l-51 295q-24 147 -24 180q0 47 28 78t72 31z" />
    <glyph glyph-name="numbersign" unicode="#" horiz-adv-x="1368" 
d="M94 950h336l86 416h88l-86 -416h453l88 416h88l-88 -416h213v-88h-232l-84 -405h316v-88h-332l-88 -416h-88l88 416h-457l-88 -416h-88l88 416h-213v88h232l84 405h-316v88zM498 862l-84 -405h454l84 405h-454z" />
    <glyph glyph-name="dollar" unicode="$" horiz-adv-x="937" 
d="M322 -12q-111 24 -190 88t-79 135q0 28 21 49t47 21q28 0 46 -18.5t29 -47.5t23 -60.5t38 -63t65 -48.5v584q-119 73 -175.5 143.5t-56.5 163.5q0 92 63.5 164.5t168.5 103.5v133h53v-127q69 9 137 0v127h53v-133q113 -32 176.5 -80t63.5 -100q0 -26 -17.5 -45t-42.5 -19
q-23 0 -42.5 16t-33.5 38t-42 58t-62 65v-473q172 -107 231.5 -181.5t59.5 -177.5q0 -116 -75 -197t-216 -118v-197h-53v182q-65 -6 -137 2v-184h-53v197zM375 1167v-385l137 -96v467q-39 24 -137 14zM322 817v342q-54 -19 -86.5 -60.5t-32.5 -92.5q0 -54 27.5 -98t91.5 -91
zM375 600v-571q49 -21 137 -15v492zM565 479v-450q168 72 168 225q0 65 -34.5 111t-133.5 114z" />
    <glyph glyph-name="percent" unicode="%" horiz-adv-x="1472" 
d="M899 332q0 146 76 246t186 100q111 0 187.5 -100t76.5 -246t-76.5 -246t-187.5 -100q-110 0 -186 100t-76 246zM1014 332q0 -316 147 -316q150 0 150 316q0 315 -150 315q-75 0 -111 -77.5t-36 -237.5zM47 958q0 146 76 246.5t186 100.5t187 -100.5t77 -246.5t-76.5 -246
t-187.5 -100q-110 0 -186 100t-76 246zM162 958q0 -160 36 -237.5t111 -77.5q150 0 150 315q0 316 -150 316q-147 0 -147 -316zM281 -55h-86l995 1394h84z" />
    <glyph glyph-name="ampersand" unicode="&#x26;" horiz-adv-x="1492" 
d="M1104 856h362v-37q-83 0 -117 -8t-57 -31q-15 -15 -57.5 -85.5t-110.5 -172.5t-139 -184q27 -42 58.5 -96.5t49.5 -84.5t40.5 -60t46 -43t51.5 -13q59 0 160 70l18 -33q-135 -107 -252 -107q-33 0 -56.5 4t-46 16.5t-39.5 28t-39.5 48.5t-41.5 66t-51 91
q-114 -121 -236 -187.5t-231 -66.5q-140 0 -236 98t-96 240q0 127 82.5 215t275.5 166q-66 57 -105.5 128.5t-39.5 137.5q0 107 76 172.5t202 65.5q114 0 187.5 -55.5t73.5 -143.5q0 -71 -60 -138t-172 -122q211 -143 357 -362q86 108 171 237.5t85 167.5q0 23 -23.5 32
t-89.5 9v37zM252 334q0 -117 68.5 -188.5t179.5 -71.5q89 0 191.5 53t168.5 133q-137 232 -389 406q-117 -82 -168 -159.5t-51 -172.5zM711 981q0 78 -41 125t-109 47q-63 0 -99 -39.5t-36 -107.5q0 -130 152 -246q71 41 102 93t31 128z" />
    <glyph glyph-name="quotesingle" unicode="'" horiz-adv-x="362" 
d="M182 1305q44 0 72.5 -31t28.5 -78q0 -24 -4 -53.5t-12 -76t-9 -50.5l-51 -295h-49l-52 295q-24 147 -24 180q0 47 28 78t72 31z" />
    <glyph glyph-name="parenleft" unicode="(" horiz-adv-x="618" 
d="M287 455q0 -254 72.5 -442.5t236.5 -403.5l-57 -51q-183 224 -274 433t-91 464t91 464t274 433l57 -52q-110 -144 -174 -263.5t-99.5 -263.5t-35.5 -318z" />
    <glyph glyph-name="parenright" unicode=")" horiz-adv-x="618" 
d="M332 455q0 174 -35.5 318t-99.5 263.5t-174 263.5l57 52q120 -147 196 -276.5t122 -288t46 -332.5t-46 -332.5t-122 -288t-196 -276.5l-57 51q164 215 236.5 403.5t72.5 442.5z" />
    <glyph glyph-name="asterisk" unicode="*" horiz-adv-x="1044" 
d="M522 702l-254 -237l-53 37l154 323l-314 172l17 58l352 -45l70 348h63l64 -348l352 45l18 -58l-313 -172l156 -323l-56 -37z" />
    <glyph glyph-name="plus" unicode="+" horiz-adv-x="1366" 
d="M727 700h494v-90h-494v-493h-90v493h-492v90h492v492h90v-492z" />
    <glyph glyph-name="comma" unicode="," horiz-adv-x="532" 
d="M166 -303l-14 37q157 91 157 205q0 43 -28 43q-4 0 -12 -1t-11 -1q-20 -5 -27 -5q-40 0 -66 26.5t-26 66.5q0 41 32.5 70.5t78.5 29.5q62 0 102.5 -48.5t40.5 -121.5q0 -95 -63 -179t-164 -122z" />
    <glyph glyph-name="hyphen" unicode="-" horiz-adv-x="811" 
d="M72 453h667v-103h-667v103z" />
    <glyph glyph-name="period" unicode="." horiz-adv-x="532" 
d="M266 168q44 0 74.5 -26.5t30.5 -69.5q0 -44 -30.5 -70.5t-74.5 -26.5q-45 0 -74.5 27.5t-29.5 69.5t29.5 69t74.5 27z" />
    <glyph glyph-name="slash" unicode="/" horiz-adv-x="937" 
d="M756 1305h88l-662 -1334h-88z" />
    <glyph glyph-name="zero" unicode="0" horiz-adv-x="1003" 
d="M928 637q0 -185 -58 -339t-156 -240.5t-212 -86.5q-80 0 -156.5 48.5t-136.5 133.5t-96.5 211.5t-36.5 272.5q0 187 59.5 342t157 240.5t209.5 85.5q117 0 215.5 -92.5t154.5 -246t56 -329.5zM774 637q0 96 -4.5 173t-16 150.5t-31.5 127t-49.5 95t-72.5 62.5t-98 21
q-63 0 -110.5 -30t-78 -83.5t-49.5 -133.5t-27 -172.5t-8 -209.5q0 -315 62 -471t211 -156q54 0 96.5 19.5t72 59t50 92t32 125.5t16.5 152t5 179z" />
    <glyph glyph-name="one" unicode="1" horiz-adv-x="1003" 
d="M520 1305h72v-1188q0 -47 14.5 -62.5t61.5 -15.5h114v-39h-516v39h111q48 0 63 16.5t15 63.5v1022q-51 -44 -125.5 -93t-130.5 -75l-17 28q88 59 194.5 155t143.5 149z" />
    <glyph glyph-name="two" unicode="2" horiz-adv-x="1003" 
d="M61 0v33q62 79 159 177.5t176.5 176t155 164t118.5 178.5t43 184q0 116 -78 195.5t-193 79.5q-109 0 -197.5 -76.5t-123.5 -200.5h-33q19 175 133.5 284.5t280.5 109.5q161 0 269 -104t108 -259q0 -180 -148 -328q-16 -16 -91 -76.5t-195.5 -168.5t-251.5 -242h538
q43 0 67.5 6t41.5 26.5t26 47t21 80.5h33l-39 -287h-820z" />
    <glyph glyph-name="three" unicode="3" horiz-adv-x="1003" 
d="M377 627l-19 28q146 121 212.5 200t66.5 157t-58 133t-141 55q-78 0 -154 -55.5t-118 -145.5l-37 15q53 134 155.5 212.5t223.5 78.5q114 0 190 -65.5t76 -162.5q0 -78 -55 -153.5t-156 -135.5l4 -4q138 13 234 -88t96 -245q0 -125 -72 -236t-192 -177.5t-254 -66.5
q-124 0 -216.5 43.5t-92.5 102.5q0 28 19 48.5t44 20.5q30 0 67.5 -25t69.5 -54.5t80.5 -54.5t98.5 -25q120 0 207 109.5t87 260.5q0 120 -64 202.5t-159 82.5q-73 0 -143 -55z" />
    <glyph glyph-name="four" unicode="4" horiz-adv-x="1003" 
d="M596 373h-524v47l604 885h57v-830h205v-102h-205v-402h-137v402zM596 475v635h-4l-424 -635h428z" />
    <glyph glyph-name="five" unicode="5" horiz-adv-x="1003" 
d="M180 629l29 649h485q45 0 60 27h39l-23 -160h-518l-16 -369q92 51 221 51q113 0 209.5 -56.5t153.5 -153t57 -209.5q0 -186 -138.5 -311.5t-343.5 -125.5q-123 0 -211 37.5t-88 91.5q0 26 20 45t48 19q30 0 58.5 -15t51 -36t46 -42t55 -36t67.5 -15q114 0 197.5 102.5
t83.5 242.5q0 141 -86.5 233t-218.5 92q-118 0 -217 -76z" />
    <glyph glyph-name="six" unicode="6" horiz-adv-x="1003" 
d="M778 1305l23 -31q-239 -98 -370 -252.5t-165 -378.5q83 65 149.5 92t141.5 27q151 0 257 -110t106 -267q0 -169 -118 -291.5t-282 -122.5q-189 0 -308.5 149t-119.5 384q0 284 182.5 497t503.5 304zM766 367q0 160 -67.5 253t-172.5 93q-116 0 -270 -123
q-10 -48 -10 -127q0 -99 16.5 -179t44 -131t64 -85t74.5 -48t79 -14q109 0 175.5 95.5t66.5 265.5z" />
    <glyph glyph-name="seven" unicode="7" horiz-adv-x="1003" 
d="M401 -29h-112l495 1170h-563q-60 0 -81.5 -22t-30.5 -97h-33l14 252h811v-43z" />
    <glyph glyph-name="eight" unicode="8" horiz-adv-x="1003" 
d="M862 1010q0 -193 -266 -299q161 -72 234 -158t73 -205q0 -160 -116.5 -268.5t-286.5 -108.5q-166 0 -282 98t-116 238q0 217 297 336q-144 64 -212 144.5t-68 185.5q0 135 111 233.5t264 98.5q154 0 261 -86t107 -209zM772 291q0 101 -75.5 175t-256.5 157
q-209 -114 -209 -312q0 -131 77 -217t194 -86q115 0 192.5 81.5t77.5 201.5zM739 1012q0 110 -70 183t-177 73q-106 0 -179 -67.5t-73 -164.5q0 -90 68 -158t259 -149q172 108 172 283z" />
    <glyph glyph-name="nine" unicode="9" horiz-adv-x="1003" 
d="M225 -29l-22 31q239 98 369.5 252.5t164.5 378.5q-83 -65 -149.5 -92t-141.5 -27q-151 0 -256.5 110t-105.5 267q0 169 117.5 291.5t281.5 122.5q189 0 308.5 -149t119.5 -384q0 -284 -182.5 -497t-503.5 -304zM238 911q0 -163 67 -255.5t172 -92.5q53 0 130 34t141 91
q10 45 10 125q0 121 -24.5 213t-65.5 143t-88.5 76t-100.5 25q-110 0 -175.5 -95.5t-65.5 -263.5z" />
    <glyph glyph-name="colon" unicode=":" horiz-adv-x="532" 
d="M266 831q44 0 74.5 -26.5t30.5 -69.5q0 -44 -30 -70t-75 -26t-74.5 27t-29.5 69t29.5 69t74.5 27zM266 168q44 0 74.5 -26.5t30.5 -69.5q0 -44 -30.5 -70.5t-74.5 -26.5q-45 0 -74.5 27.5t-29.5 69.5t29.5 69t74.5 27z" />
    <glyph glyph-name="semicolon" unicode=";" horiz-adv-x="532" 
d="M166 -303l-14 37q157 91 157 205q0 43 -28 43q-4 0 -12 -1t-11 -1q-20 -5 -27 -5q-40 0 -66 26.5t-26 66.5q0 41 32.5 70.5t78.5 29.5q62 0 102.5 -48.5t40.5 -121.5q0 -95 -63 -179t-164 -122zM272 831q44 0 74.5 -26.5t30.5 -69.5q0 -44 -30 -70t-75 -26t-74.5 27
t-29.5 69t29.5 69t74.5 27z" />
    <glyph glyph-name="less" unicode="&#x3c;" horiz-adv-x="1366" 
d="M145 614v82l1074 455v-102l-951 -394l951 -393v-102z" />
    <glyph glyph-name="equal" unicode="=" horiz-adv-x="1366" 
d="M145 936h1076v-90h-1076v90zM145 565h1076v-90h-1076v90z" />
    <glyph glyph-name="greater" unicode="&#x3e;" horiz-adv-x="1366" 
d="M1221 696v-82l-1074 -454v102l951 393l-951 394v102z" />
    <glyph glyph-name="question" unicode="?" horiz-adv-x="724" 
d="M283 1296q151 0 252.5 -100t101.5 -262q0 -79 -20.5 -138.5t-53 -94t-72 -58.5t-78.5 -39t-71.5 -29t-53 -34t-20.5 -49q0 -70 78 -148h-45q-44 47 -72 104t-28 107q0 49 21.5 83.5t55.5 54.5t75 35.5t82.5 32.5t75.5 39.5t55.5 62.5t21.5 95q0 88 -57.5 135.5
t-151.5 47.5q-37 0 -90 -7.5t-68 -7.5q-49 0 -83 17.5t-34 56.5q0 43 43 69.5t136 26.5zM317 168q44 0 74.5 -26.5t30.5 -69.5q0 -44 -30.5 -70.5t-74.5 -26.5q-45 0 -74.5 27.5t-29.5 69.5t29.5 69t74.5 27z" />
    <glyph glyph-name="at" unicode="@" horiz-adv-x="1878" 
d="M1409 956l-178 -608q-38 -117 -31 -180.5t76 -63.5q55 0 114.5 32t113.5 92t97.5 138.5t69 180.5t25.5 209q0 134 -48 249t-133 196t-205.5 127t-260.5 46q-156 0 -294 -54t-240 -147t-176 -214.5t-111.5 -259.5t-37.5 -279q0 -233 99.5 -415.5t278.5 -284t407 -101.5
q272 0 480.5 144t322.5 409h57q-80 -270 -322 -442t-544 -172q-248 0 -447.5 114.5t-312.5 317t-113 454.5q0 202 74 384t200.5 312t301.5 206.5t370 76.5q319 0 517 -190t198 -496q0 -91 -21 -187.5t-66.5 -189.5t-108.5 -166t-155.5 -118t-199.5 -45q-153 0 -153 137
q0 52 16 143l-4 4q-214 -284 -389 -284q-76 0 -129 67t-53 164q0 91 35 192.5t93.5 190t129.5 161t148.5 115t143.5 42.5q62 0 112.5 -34.5t60.5 -103.5h4l30 111zM1057 913q-86 0 -185 -114.5t-162 -261t-63 -244.5q0 -58 34.5 -99.5t82.5 -41.5q62 0 136 54.5t136 139.5
t104 199.5t42 224.5q0 63 -35 103t-90 40z" />
    <glyph glyph-name="A" unicode="A" horiz-adv-x="1386" 
d="M866 565h-424l-118 -321q-3 -9 -12 -31.5t-14 -37.5t-10 -32.5t-5 -27.5q0 -41 40 -58.5t126 -17.5h32v-39h-473v39q70 1 104 16t58 53.5t59 133.5l373 1018l-18 45h178l428 -1137q30 -79 68 -104t118 -25v-39h-563v39h53q91 0 125.5 14t34.5 56q0 29 -22 84zM831 655
l-180 478l-174 -478h354z" />
    <glyph glyph-name="B" unicode="B" horiz-adv-x="1300" 
d="M248 207v850q0 49 -4.5 78t-20.5 54t-48 35.5t-85 10.5h-72v39q28 1 128 6t130 6q169 6 308 6q299 0 411 -80q125 -88 125 -227q0 -89 -65.5 -160t-167.5 -90v-4q145 -43 225 -132.5t80 -209.5q0 -51 -14 -102.5t-47 -104t-82 -92.5t-126.5 -65t-172.5 -25h-750v39h47
q123 0 162 34.5t39 133.5zM418 1247v-506h223q295 0 295 238q0 119 -81 196.5t-257 77.5q-27 0 -180 -6zM418 702v-436q0 -117 52 -164t181 -47q97 0 167.5 28t108.5 76.5t55 104t17 119.5q0 61 -23 117t-66.5 101.5t-113.5 73t-157 27.5h-221z" />
    <glyph glyph-name="C" unicode="C" horiz-adv-x="1492" 
d="M1360 938h-39q-52 144 -176.5 229.5t-290.5 85.5q-253 0 -404 -164.5t-151 -426.5q0 -136 47 -256.5t125.5 -205t184.5 -133.5t221 -49q329 0 499 304h39q-48 -163 -131 -299q-44 6 -94.5 -1.5t-94.5 -20t-118.5 -23.5t-155.5 -11q-205 0 -368.5 84t-255 233.5
t-91.5 336.5q0 147 55 274t152 217t234 141.5t295 51.5q88 0 167 -13t123 -28t83.5 -28t58.5 -13q29 0 37 12h30z" />
    <glyph glyph-name="D" unicode="D" horiz-adv-x="1556" 
d="M227 188v881q0 99 -32 132.5t-123 33.5h-41v39q105 6 288 12q170 6 345 6q159 0 288.5 -31.5t220 -86.5t152.5 -132.5t90.5 -168t28.5 -193.5q0 -95 -28.5 -189.5t-90 -183.5t-148.5 -157t-214 -109t-277 -41h-655v39h35q87 0 124 31.5t37 117.5zM397 1245v-1093
q0 -30 2 -45t10.5 -30.5t26.5 -22t49 -11t80 -4.5q204 0 312 35t204 131q68 66 119 182t51 260q0 276 -164 440q-78 78 -201.5 122t-324.5 44q-64 0 -164 -8z" />
    <glyph glyph-name="E" unicode="E" horiz-adv-x="1216" 
d="M950 850v-389h-39q-11 103 -40.5 132.5t-98.5 29.5h-346v-437q0 -67 25 -89.5t86 -22.5h315q105 0 152 47.5t86 183.5h36l-32 -305h-1088v39h57q119 0 156 35.5t37 132.5v864q0 91 -32.5 127.5t-131.5 36.5h-45v39h983l17 -285h-37q-19 123 -55 167t-97 44h-432v-504h367
q57 0 84 33.5t34 120.5h39z" />
    <glyph glyph-name="F" unicode="F" horiz-adv-x="1087" 
d="M971 850v-361h-35q-3 87 -36.5 121.5t-108.5 34.5h-379v-448q0 -91 33.5 -124.5t144.5 -33.5v-39h-498v39q96 6 123 41.5t27 159.5v802q0 45 -2.5 71t-10.5 52t-25 39.5t-45 21.5t-71 9v39h918v-242h-35q-2 91 -39 129.5t-131 38.5h-389v-481h405q110 0 119 131h35z" />
    <glyph glyph-name="G" unicode="G" horiz-adv-x="1515" 
d="M1323 381v-285q-133 -68 -292.5 -98.5t-256.5 -30.5q-130 0 -240 38.5t-185.5 102.5t-129 148t-78 174t-24.5 182q0 67 13 135t41 136.5t69 130t100 115t130.5 92.5t164 61.5t196.5 22.5q96 0 188 -17.5t149.5 -35t70.5 -17.5q30 0 47 14h29v-331h-41q-39 179 -150.5 257
t-269.5 78q-105 0 -194.5 -33.5t-153.5 -92.5t-108.5 -138.5t-66.5 -171.5t-22 -192q0 -121 32.5 -223.5t86 -172t123.5 -118.5t143 -71t146 -22q156 0 313 78v258q0 88 -36 122t-128 34h-76v37h553v-37q-77 -5 -110 -34t-33 -95z" />
    <glyph glyph-name="H" unicode="H" horiz-adv-x="1622" 
d="M1208 608h-802v-389q0 -104 32 -142t131 -38h6v-39h-514v39h13q92 0 127 31t35 118v902q0 79 -31.5 109t-116.5 36v39h487v-39q-107 0 -138 -38t-31 -159v-356h802v403q0 84 -34 117t-127 33h-39v39h526v-39q-92 -3 -124 -37.5t-32 -130.5v-850q0 -106 35 -142t129 -36
h21v-39h-580v39h64q96 0 128.5 35t32.5 119v415z" />
    <glyph glyph-name="I" unicode="I" horiz-adv-x="681" 
d="M590 39v-39h-498v39q95 4 124.5 38.5t29.5 137.5v872q0 82 -33 112.5t-121 35.5v39h498v-39q-100 0 -137 -33t-37 -133v-868q0 -93 35 -127.5t139 -34.5z" />
    <glyph glyph-name="J" unicode="J" horiz-adv-x="618" 
d="M399 1085v-874q0 -204 -52.5 -360.5t-148.5 -242t-223 -85.5q-85 0 -141.5 31.5t-56.5 78.5q0 33 21.5 57.5t51.5 24.5q29 0 64 -24t73 -48t74 -24q168 0 168 301v1094q0 139 -29 180t-137 41h-22v39h518v-39q-96 -3 -128 -34.5t-32 -115.5z" />
    <glyph glyph-name="K" unicode="K" horiz-adv-x="1429" 
d="M1432 0h-601v39q71 2 102.5 15t31.5 42t-53.5 98t-198.5 214q-123 123 -179.5 157t-123.5 27v-383q0 -97 34 -133.5t129 -36.5h27v-39h-561v39h37q95 0 129.5 34t34.5 115v899q0 88 -38 118t-126 30h-37v39h553v-39h-19q-92 0 -127.5 -35t-35.5 -127v-442q60 6 112 36
t117 95q119 119 202 239t83 170q0 36 -30 50t-112 14v39h539v-39q-108 -1 -166 -19.5t-104 -64.5q-19 -19 -80 -110t-147 -196t-181 -177q27 -4 60.5 -30.5t103.5 -96.5q126 -126 253.5 -276.5t143.5 -166.5q29 -29 80 -44t148 -15v-39z" />
    <glyph glyph-name="L" unicode="L" horiz-adv-x="1130" 
d="M1114 299l-158 -299h-915v39h68q72 0 100.5 29t28.5 106v907q0 85 -34 119.5t-128 34.5h-29v39h604v-39h-76q-104 0 -135.5 -24.5t-31.5 -116.5v-944q0 -41 18.5 -58.5t62.5 -17.5h302q37 0 65 7.5t49.5 19t51 44t52 61.5t68.5 93h37z" />
    <glyph glyph-name="M" unicode="M" horiz-adv-x="1878" 
d="M918 0h-48l-522 1092h-4l-55 -922q-2 -38 9.5 -63.5t36 -39.5t52.5 -20t66 -8v-39h-426v39q59 0 90 7t51 33.5t26.5 64.5t10.5 114l49 797q2 51 2 84t-12.5 53.5t-38.5 30t-74 12.5v37h309l494 -1032l491 1032h301v-37q-33 -3 -45.5 -4t-34 -4.5t-28 -8t-15.5 -13
t-11 -20.5t-1 -30l66 -928q2 -30 3.5 -51t5.5 -40.5t6 -32t10 -24t12 -17.5t17.5 -11t21 -7t28 -3.5t33 -1.5h41.5v-39h-526v39q84 0 135.5 30t46.5 105l-59 918h-5z" />
    <glyph glyph-name="N" unicode="N" horiz-adv-x="1665" 
d="M1444 -14h-53l-1061 1110v-879q0 -111 38.5 -144.5t168.5 -33.5v-39h-476v39h9q93 0 130.5 32.5t37.5 104.5v1008q-69 48 -172 51v39h321l965 -1006v815q0 93 -38.5 121t-162.5 31v39h479v-39q-113 0 -149.5 -22.5t-36.5 -84.5v-1142z" />
    <glyph glyph-name="O" unicode="O" horiz-adv-x="1685" 
d="M1577 672q0 -202 -99.5 -364.5t-265.5 -251.5t-364 -89q-149 0 -284 47t-236 129.5t-160 203.5t-59 261q0 201 96 360.5t267 248t386 88.5q144 0 275.5 -47.5t229.5 -130t156 -201.5t58 -254zM1384 604q0 285 -162.5 467t-416.5 182q-104 0 -190.5 -37t-143 -96.5
t-96 -137t-57 -155.5t-17.5 -155q0 -188 78.5 -338t213 -233t298.5 -83q97 0 179 33t139 89.5t97 131.5t59 159t19 173z" />
    <glyph glyph-name="P" unicode="P" horiz-adv-x="1153" 
d="M410 555v-358q0 -88 34 -123t129 -35h68v-39h-567v39h28q81 0 109.5 24t28.5 95v968q0 58 -22 83.5t-75 25.5h-102v39q27 1 116.5 5.5t141.5 6.5q150 6 254 6q123 0 218.5 -23t152 -58.5t93 -85t49.5 -96.5t13 -99q0 -180 -134 -285.5t-361 -105.5q-93 0 -174 16z
M410 1245v-651q72 -16 110 -16q165 0 266 100.5t101 257.5q0 317 -336 317q-92 0 -141 -8z" />
    <glyph glyph-name="Q" unicode="Q" horiz-adv-x="1685" 
d="M1640 -371l-32 -43q-50 -12 -95 -12q-90 0 -172 30.5t-149 79.5t-128 101t-134.5 104.5t-143.5 79.5q-193 13 -347 98t-242 228.5t-88 320.5q0 144 57 272t155.5 219.5t236 144.5t292.5 53q147 0 280 -46.5t232 -129t157 -203t58 -260.5q0 -241 -149 -429t-398 -249v-4
q64 -24 129 -69.5t117 -92t107 -90.5t120.5 -72.5t136.5 -30.5zM1384 604q0 285 -162.5 467t-416.5 182q-104 0 -190.5 -37t-143 -96.5t-96 -137t-57 -155.5t-17.5 -155q0 -188 78.5 -337.5t213 -232t298.5 -82.5q97 0 179 33t139 89t97 131t59 158.5t19 172.5z" />
    <glyph glyph-name="R" unicode="R" horiz-adv-x="1642" 
d="M408 539v-346q0 -89 37 -121.5t126 -32.5h47v-39h-579v39h35q93 0 128.5 35t35.5 135v862q0 95 -32.5 129.5t-121.5 34.5h-45v39q6 0 258 12q126 6 258 6q273 0 411 -99.5t138 -264.5q0 -116 -73.5 -205.5t-199.5 -126.5q94 -73 234 -213l162 -162q96 -96 192.5 -148
t210.5 -59v-37q-107 -5 -187.5 3t-136.5 22.5t-112 50.5t-94.5 70t-102.5 98l-135 135q-125 125 -211 183q-102 -4 -139 -4q-38 0 -104 4zM408 1249v-671q41 -5 127 -5q376 0 376 342q0 76 -19 134t-63 105.5t-124.5 73t-194.5 25.5q-65 0 -102 -4z" />
    <glyph glyph-name="S" unicode="S" horiz-adv-x="1003" 
d="M90 311h39q32 -134 127.5 -211t218.5 -77q72 0 134.5 25.5t105.5 82t43 133.5q0 60 -36.5 115t-94.5 99.5t-128 89t-140 91t-128 96.5t-94.5 115t-36.5 138q0 128 104 212.5t261 84.5q74 0 128 -13t88.5 -26t61.5 -13q21 0 37 21h33l35 -260h-35q-43 110 -133.5 175.5
t-196.5 65.5q-102 0 -165.5 -53t-63.5 -139q0 -52 28 -100t74.5 -86t105.5 -78.5t120.5 -76t120.5 -80.5t105.5 -90.5t74.5 -106.5t28 -128q0 -151 -118.5 -250.5t-298.5 -99.5q-67 0 -174 28t-111 28q-26 0 -41 -23h-35z" />
    <glyph glyph-name="T" unicode="T" horiz-adv-x="1386" 
d="M778 1200v-1012q0 -84 34.5 -116.5t127.5 -32.5h76v-39h-645v39h75q93 0 127.5 32.5t34.5 116.5v1012h-356q-63 0 -95 -47t-55 -180h-36l32 332h39q3 -18 23 -25q18 -6 41 -6h985q58 0 63 31h39l33 -332h-37q-23 133 -54.5 180t-94.5 47h-357z" />
    <glyph glyph-name="U" unicode="U" horiz-adv-x="1622" 
d="M1116 1274h481v-39q-102 -1 -144 -45t-42 -143v-553q0 -79 -20 -152.5t-66 -142.5t-114.5 -120t-172.5 -81.5t-233 -30.5q-143 0 -257 39.5t-186.5 109t-110.5 163t-38 204.5v598q0 50 -7.5 79t-29 46t-52.5 22.5t-87 6.5v39h526v-39h-18q-88 0 -125 -32t-37 -118v-569
q0 -209 120.5 -325.5t346.5 -116.5q73 0 137.5 12.5t126.5 44t105.5 80.5t70.5 127.5t27 179.5v477q0 78 -7 120.5t-30.5 70t-60 37t-103.5 12.5v39z" />
    <glyph glyph-name="V" unicode="V" horiz-adv-x="1409" 
d="M756 -33h-103l-444 1108q-28 70 -48.5 100.5t-55 45t-97.5 14.5v39h563v-39q-138 -3 -181 -36t-13 -105l368 -918l324 846q35 87 35 127q0 46 -43.5 66t-147.5 20v39h476v-39q-79 0 -126.5 -40t-84.5 -136z" />
    <glyph glyph-name="W" unicode="W" horiz-adv-x="2048" 
d="M1407 -33h-98l-269 633l-258 -633h-100l-426 1090q-44 113 -91.5 145.5t-150.5 32.5h-12v39h530v-39h-34q-73 0 -99 -32.5t0 -96.5l373 -938l221 547l-166 403q-29 71 -76 94t-135 23v39h840v-39q-92 0 -134.5 -24t-68.5 -85l-131 -319l269 -639l362 950q25 64 -3.5 89
t-139.5 28v39h424v-39q-94 0 -131.5 -32.5t-83.5 -153.5zM1075 922l92 225q37 88 -51 88h-86q-92 0 -57 -76z" />
    <glyph glyph-name="X" unicode="X" horiz-adv-x="1536" 
d="M729 580l-326 -392q-63 -72 -49.5 -110.5t111.5 -38.5h41v-39h-488v39q108 9 171.5 49.5t170.5 169.5l318 383l-318 399q-95 120 -158 156t-184 39v39h611v-39q-66 1 -104 -6.5t-49.5 -24.5t-4 -38.5t32.5 -53.5l278 -344l222 264q135 159 69 192q-21 11 -61 11h-60v39
h492v-39q-99 0 -177.5 -48.5t-170.5 -160.5l-262 -321l385 -480q89 -113 141.5 -144.5t169.5 -41.5v-39h-565v39q111 0 128.5 33.5t-57.5 128.5z" />
    <glyph glyph-name="Y" unicode="Y" horiz-adv-x="1449" 
d="M760 596l289 491q35 56 31 88.5t-36 46t-100 13.5v39h463v-39q-98 -7 -154 -45.5t-102 -116.5l-340 -575v-308q0 -83 36 -117t128 -34h26v-39h-563v39h39q92 0 128 34.5t36 112.5v289l-365 569q-74 117 -126.5 152.5t-153.5 38.5v39h545v-39q-116 0 -137.5 -31.5
t28.5 -101.5z" />
    <glyph glyph-name="Z" unicode="Z" horiz-adv-x="1386" 
d="M82 0v47l919 1153h-608q-100 0 -138 -42.5t-50 -172.5h-37l10 289h1055v-47l-926 -1153h725q23 0 42 2t35.5 8.5t29 12t24 19.5t19 24t16.5 32.5t14 37.5t13 46.5t12.5 52.5t13.5 62h37l-24 -371h-1182z" />
    <glyph glyph-name="bracketleft" unicode="[" horiz-adv-x="618" 
d="M209 1335h395v-41h-145q-66 0 -89.5 -18.5t-23.5 -61.5v-1531q0 -43 23.5 -61.5t89.5 -18.5h145v-41h-395v1773z" />
    <glyph glyph-name="backslash" unicode="\" horiz-adv-x="937" 
d="M182 1305l662 -1334h-88l-662 1334h88z" />
    <glyph glyph-name="bracketright" unicode="]" horiz-adv-x="618" 
d="M410 1335v-1773h-396v41h146q66 0 89 18t23 62v1531q0 44 -23 62t-89 18h-146v41h396z" />
    <glyph glyph-name="asciicircum" unicode="^" horiz-adv-x="960" 
d="M496 1376l428 -717h-95l-350 586l-348 -586h-94l428 717h31z" />
    <glyph glyph-name="underscore" unicode="_" horiz-adv-x="1024" 
d="M1040 -256h-1056v102h1056v-102z" />
    <glyph glyph-name="grave" unicode="`" horiz-adv-x="681" 
d="M500 999l-217 146q-75 51 -107.5 83.5t-32.5 61.5q0 26 18 43t46 17q64 0 131 -90l188 -261h-26z" />
    <glyph glyph-name="a" unicode="a" horiz-adv-x="811" 
d="M231 635l-139 -68q-6 18 -6 29q0 36 47 92.5t120.5 101t135.5 44.5q54 0 115 -27t100 -82q22 -30 26.5 -60t4.5 -116v-275q0 -132 7.5 -166t45.5 -34q47 0 100 45l11 -31q-139 -113 -203 -113q-86 0 -94 125q-97 -81 -143.5 -103t-94.5 -22q-88 0 -139 46t-51 122
q0 45 18 79t54.5 56.5t74.5 37t94 28.5q86 20 183 78v162q0 35 -1.5 51.5t-9 38t-24.5 41.5q-48 59 -115 59q-49 0 -88 -33t-39 -67q0 -16 10 -39zM498 137v244q-42 -25 -121 -57q-56 -23 -81 -35t-50 -30t-33 -39t-8 -52q0 -53 36.5 -87t84.5 -34q26 0 57.5 16t114.5 74z
" />
    <glyph glyph-name="b" unicode="b" horiz-adv-x="1024" 
d="M291 1376v-686q108 77 180 110.5t129 33.5q137 0 236.5 -117.5t99.5 -278.5q0 -197 -137.5 -330t-341.5 -133q-99 0 -303 39v1110q0 80 -13 99t-71 26l-58 8v35l246 84h33zM291 643v-393q0 -86 57 -150.5t166 -64.5q126 0 205.5 96t79.5 250q0 153 -80 255.5t-199 102.5
q-95 0 -229 -96z" />
    <glyph glyph-name="c" unicode="c" horiz-adv-x="874" 
d="M770 207l31 -19q-134 -213 -363 -213q-71 0 -130 25.5t-97.5 67t-65.5 94.5t-39 105.5t-12 103.5q0 192 138 327.5t333 135.5q97 0 163.5 -34t66.5 -83q0 -26 -17.5 -44t-42.5 -18q-27 0 -51.5 13t-43.5 31.5t-38.5 36.5t-46.5 31t-59 13q-106 0 -185.5 -108.5
t-79.5 -255.5q0 -154 82.5 -255.5t206.5 -101.5q143 0 250 148z" />
    <glyph glyph-name="d" unicode="d" horiz-adv-x="1024" 
d="M733 795v397q0 29 -15.5 40t-64.5 17l-67 8v35l284 84v-1202q0 -96 101 -68l49 15v-43l-262 -103h-25v146q-202 -146 -317 -146q-136 0 -232 116t-96 280q0 126 58.5 232.5t160.5 168.5t225 62q108 0 201 -39zM733 166v459q-55 81 -113 117t-131 36q-118 0 -191 -95.5
t-73 -242.5q0 -154 78.5 -265.5t188.5 -111.5q94 0 241 103z" />
    <glyph glyph-name="e" unicode="e" horiz-adv-x="897" 
d="M831 520h-598q-8 -62 -8 -86q0 -155 93 -255.5t219 -100.5q76 0 138.5 32t121.5 101l22 -25q-73 -92 -166.5 -151.5t-197.5 -59.5q-151 0 -254 121t-103 299q0 82 27.5 160t76.5 140.5t125.5 100.5t166.5 38q78 0 133.5 -20.5t85.5 -54.5t48.5 -68t36 -71t33.5 -53v-47z
M240 573h419q-17 100 -72.5 161t-129.5 61q-29 0 -56.5 -8.5t-59 -30.5t-58 -69t-43.5 -114z" />
    <glyph glyph-name="f" unicode="f" horiz-adv-x="555" 
d="M528 811l15 -90h-221v-561q0 -70 32 -95.5t119 -25.5h78v-39h-506v39q88 0 113.5 27t25.5 114v541h-151v35q84 18 151 55q0 134 35.5 233.5t122.5 186.5q145 145 291 145q79 0 145 -34.5t66 -61.5q0 -14 -22.5 -56t-33.5 -42q-9 0 -31 15.5t-48 34.5t-70 34.5t-90 15.5
q-110 0 -168.5 -82.5t-58.5 -232.5v-156h206z" />
    <glyph glyph-name="g" unicode="g" horiz-adv-x="960" 
d="M967 772v-129q-103 7 -205 25q35 -67 35 -131q0 -121 -98 -209t-261 -88q-45 0 -94 16q-12 -13 -45 -30.5t-56.5 -35t-23.5 -38.5q0 -38 69 -55t224 -19q179 -2 254 -16t119 -58q61 -61 61 -143q0 -41 -21 -86t-67 -90.5t-110 -81t-158 -58t-203 -22.5q-151 0 -233 56.5
t-82 137.5q0 41 22 74t51.5 53t73 54.5t72.5 70.5q-81 7 -138 51t-57 95q0 33 23.5 56t53 34.5t70 28t62.5 32.5q-95 37 -145.5 102t-50.5 152q0 132 104 223t256 91q144 0 229 -82q89 0 269 20zM659 518q0 129 -59.5 203t-155.5 74q-33 0 -64.5 -10.5t-63 -34.5t-51 -73
t-19.5 -116q0 -48 12.5 -95.5t37 -90.5t68 -69.5t99.5 -26.5q89 0 142.5 66.5t53.5 172.5zM199 -215q0 -75 90.5 -140t212.5 -65q131 0 234.5 74t103.5 170q0 54 -39 85t-99 36q-24 3 -181 7.5t-189 8.5q-18 -22 -56.5 -54.5t-57.5 -59t-19 -62.5z" />
    <glyph glyph-name="h" unicode="h" 
d="M328 653v-491q0 -72 27 -97.5t106 -25.5v-39h-410v39q83 4 111 37.5t28 120.5v981q0 35 -10 49t-41 18l-88 12v35l244 84h33v-671q113 67 189 98t149 31q118 0 172.5 -75t54.5 -231q0 -226 -10 -411q3 -43 35 -60.5t120 -17.5v-39h-442v39q82 0 115 33q27 27 36 113
t9 317q0 63 -13.5 110t-32.5 72.5t-46 41t-49 20t-46 4.5q-87 0 -241 -97z" />
    <glyph glyph-name="i" unicode="i" horiz-adv-x="532" 
d="M344 844v-688q0 -117 148 -117v-39h-455v39q94 0 132 33.5t38 115.5v412q0 58 -11.5 75t-52.5 25l-96 19v33l266 92h31zM172 1227q0 32 25.5 55t62.5 23t63.5 -23t26.5 -55t-26.5 -55t-63.5 -23t-62.5 23t-25.5 55z" />
    <glyph glyph-name="j" unicode="j" horiz-adv-x="512" 
d="M344 844v-881q0 -204 -97 -322t-243 -118q-92 0 -155.5 31t-63.5 75q0 38 18.5 66.5t42.5 28.5q20 0 47.5 -19t52 -42.5t58.5 -42.5t66 -19q137 0 137 223v794q0 45 -13 60.5t-55 23.5l-92 17v33l268 92h29zM168 1227q0 32 25.5 55t62.5 23t63.5 -23t26.5 -55t-26.5 -55
t-63.5 -23t-62.5 23t-25.5 55z" />
    <glyph glyph-name="k" unicode="k" horiz-adv-x="1024" 
d="M543 811h405v-39q-99 -4 -160.5 -32.5t-154.5 -96.5l-189 -135l328 -334q78 -79 126 -106.5t118 -28.5v-39h-441v39q146 0 62 90l-311 324v-314q0 -56 24.5 -78t93.5 -22h21v-39h-420v39q79 0 111 34t32 103v989q0 43 -11.5 59.5t-47.5 20.5l-84 12v35l250 84h31v-889
l295 211q40 29 27 51.5t-70 22.5h-35v39z" />
    <glyph glyph-name="l" unicode="l" horiz-adv-x="491" 
d="M319 1376v-1214q0 -123 119 -123h35v-39h-461v39q96 0 133 31t37 106v989q0 45 -11 61.5t-52 20.5l-92 10v35l262 84h30z" />
    <glyph glyph-name="m" unicode="m" horiz-adv-x="1622" 
d="M326 633v-467q0 -79 28 -103t115 -24v-39h-426v39q85 0 115 37.5t30 120.5v401q0 59 -11.5 79t-47.5 25l-80 11v35l246 86h31v-164q110 78 206 121t158 43q75 0 127.5 -44.5t67.5 -119.5q67 42 103 63.5t89 49t93.5 39.5t76.5 12q107 0 156 -78.5t49 -231.5
q0 -268 -6 -393q0 -38 25 -65t83 -27h66v-39h-461v39h19q75 0 104 29q21 21 27 91t6 199v160q0 234 -154 234q-98 0 -272 -115v-471q0 -76 25.5 -101.5t101.5 -25.5v-39h-420v39q86 0 121 35t35 123v378q0 89 -45 133t-107 44q-94 0 -274 -119z" />
    <glyph glyph-name="n" unicode="n" 
d="M328 623v-445q0 -85 27 -112t110 -27v-39h-412v39q67 0 102 34t35 95v430q0 57 -10.5 75t-50.5 25l-70 15v32l236 86h33v-159q161 101 220 128q76 34 132 34q106 0 162.5 -78t56.5 -230q0 -120 -3.5 -201.5t-7.5 -130t-5 -73.5q-2 -42 25 -62t89 -20h45v-39h-440v39
q81 3 117 39q27 27 35 129.5t8 331.5q0 114 -46 164.5t-116 50.5q-84 0 -272 -131z" />
    <glyph glyph-name="o" unicode="o" 
d="M92 399q0 102 39 186.5t103 137.5t142 82t159 29q187 0 313.5 -124t126.5 -307q0 -181 -125.5 -304.5t-308.5 -123.5q-191 0 -320 122t-129 302zM246 469q0 -186 92.5 -315t224.5 -129q98 0 178 91t80 236q0 115 -42.5 214.5t-115.5 158.5t-157 59q-103 0 -181.5 -92.5
t-78.5 -222.5z" />
    <glyph glyph-name="p" unicode="p" horiz-adv-x="1024" 
d="M307 27v-332q0 -73 34.5 -103t102.5 -30h52v-39h-484v39h21q78 0 107.5 32t29.5 119v903q0 31 -11 45t-46 23l-66 16v39l219 135h41v-196q197 149 318 149q120 0 211.5 -115t91.5 -266q0 -122 -59.5 -228t-160 -169t-214.5 -63q-77 0 -187 41zM307 627v-467
q57 -51 121.5 -81t120.5 -30q103 0 172.5 89t69.5 216q0 78 -17.5 142.5t-45.5 106t-64 70.5t-72 41.5t-70 12.5q-98 0 -215 -100z" />
    <glyph glyph-name="q" unicode="q" horiz-adv-x="1024" 
d="M874 725v-1038q0 -62 34 -93.5t85 -31.5h23v-39h-496v39h80q79 0 108 34t29 123v408q-165 -143 -309 -143q-145 0 -239.5 114t-94.5 287q0 188 125.5 318.5t306.5 130.5q121 0 258 -70q28 41 68 65h35q-13 -60 -13 -104zM737 174v365q0 107 -66 175t-165 68
q-125 0 -200 -93t-75 -251q0 -157 81.5 -262.5t201.5 -105.5q52 0 113.5 28t109.5 76z" />
    <glyph glyph-name="r" unicode="r" horiz-adv-x="681" 
d="M328 547v-397q0 -63 28.5 -87t104.5 -24h78v-39h-486v39q77 1 107 36t30 118v473l-137 49v35l234 81h41v-217h4q82 135 114 171t80 36q26 0 70 -18q6 -3 106 -31l-49 -123q-51 7 -108 33q-46 20 -72 20q-43 0 -80 -53q-42 -58 -65 -102z" />
    <glyph glyph-name="s" unicode="s" horiz-adv-x="618" 
d="M66 207h32q18 -91 71.5 -142t123.5 -51q61 0 103 40t42 96q0 34 -12.5 59t-52.5 65q-38 38 -87 73t-84.5 58t-68.5 50.5t-50 64t-17 84.5q0 102 72.5 166t189.5 64q80 0 164 -33l4 -187h-35q-10 77 -56 123.5t-108 46.5q-52 0 -88.5 -32t-36.5 -82q0 -36 21 -68.5
t54.5 -58t74.5 -51t81.5 -54t74 -60t54.5 -75t21 -94.5q0 -100 -73.5 -167t-180.5 -67q-47 0 -90 15q-46 12 -55 12q-19 0 -35 -25h-31z" />
    <glyph glyph-name="t" unicode="t" horiz-adv-x="598" 
d="M291 811h293l-33 -90h-260v-477q0 -45 14.5 -80.5t37 -54.5t44 -28t39.5 -9q66 0 125 102l33 -31q-37 -80 -95.5 -124t-128.5 -44q-90 0 -148 67.5t-58 170.5v508h-95v33q123 60 197 260h35v-203z" />
    <glyph glyph-name="u" unicode="u" 
d="M1018 96v-37l-275 -84v164q-228 -164 -348 -164q-84 0 -150.5 55.5t-66.5 153.5v455q0 38 -11.5 56.5t-43.5 27.5l-72 20v31l264 57v-573q0 -89 54.5 -136.5t130.5 -47.5q109 0 243 112v441q0 61 -13 80t-62 28l-103 19v28l316 49v-690q0 -42 19.5 -53t74.5 0z" />
    <glyph glyph-name="v" unicode="v" horiz-adv-x="980" 
d="M524 -18h-59l-297 680q-22 52 -43 74.5t-47 27.5l-64 10v37h418v-37q-50 -2 -78 -6.5t-44 -17.5t-13.5 -35t20.5 -58l218 -510l208 474q17 43 15.5 75t-38 52.5t-108.5 25.5v37h357v-37q-58 -10 -95 -45t-67 -104z" />
    <glyph glyph-name="w" unicode="w" horiz-adv-x="1515" 
d="M1075 -18h-55l-244 577l-246 -577h-57l-305 688q-23 51 -54 74t-98 30v37h398v-37q-88 -4 -104.5 -34.5t18.5 -102.5l221 -494l201 475q-34 79 -66.5 111.5t-85.5 38.5l-49 6v37h424v-37q-77 -2 -97.5 -30t9.5 -105l200 -487l197 479q32 82 5.5 112.5t-124.5 30.5v37h344
v-37q-59 -6 -98.5 -39.5t-69.5 -107.5z" />
    <glyph glyph-name="x" unicode="x" horiz-adv-x="1003" 
d="M31 774v37h413v-37q-69 0 -83.5 -20.5t16.5 -63.5l153 -203l134 150q53 60 32 98.5t-100 38.5v37h395v-37l-59 -6q-63 -7 -107 -36t-94 -85l-174 -192l246 -308q45 -57 84 -81.5t104 -24.5v-41h-409v41q76 0 93 18.5t-20 67.5l-182 233l-180 -202q-44 -51 -14.5 -84
t118.5 -33v-41h-381v41q72 0 113 21.5t96 84.5l219 246l-198 260q-42 57 -90 87.5t-125 33.5z" />
    <glyph glyph-name="y" unicode="y" horiz-adv-x="960" 
d="M535 150l174 434q23 58 28 94.5t-9.5 57.5t-41.5 28.5t-76 9.5v37h340v-37q-60 -7 -99.5 -47.5t-70.5 -116.5l-348 -868q-47 -118 -87.5 -168.5t-92.5 -50.5q-37 0 -60.5 20t-23.5 51q0 29 20 46.5t45.5 23.5t57 17.5t47.5 27.5q40 40 70 117l61 154l-317 673
q-30 65 -64.5 92.5t-97.5 28.5v37h411v-37q-91 -1 -111.5 -31t13.5 -94z" />
    <glyph glyph-name="z" unicode="z" horiz-adv-x="831" 
d="M63 0v39l519 698h-281h-65q-33 0 -50 -30.5t-47 -127.5q-3 -8 -4 -12.5t-3.5 -12l-4.5 -13.5h-39l64 325h34q0 -34 19 -44.5t78 -10.5h487v-37l-516 -700h375q49 0 78 33.5t63 115.5h37l-84 -223h-660z" />
    <glyph glyph-name="braceleft" unicode="{" horiz-adv-x="980" 
d="M211 432v35q100 19 163.5 76t63.5 129q0 45 -24 147q-23 102 -23 172q0 138 108 254t269 131v-37q-106 -10 -168.5 -81t-62.5 -156q0 -74 18 -162q20 -98 20 -160q0 -100 -77 -193.5t-207 -133.5v-4q130 -40 207 -135t77 -195q0 -60 -20 -158q-18 -88 -18 -164
q0 -85 62.5 -156t168.5 -81v-37q-161 15 -269 131t-108 254q0 74 23 172q24 106 24 147q0 72 -63.5 129t-163.5 76z" />
    <glyph glyph-name="bar" unicode="|" horiz-adv-x="1044" 
d="M479 1305h88v-1782h-88v1782z" />
    <glyph glyph-name="braceright" unicode="}" horiz-adv-x="980" 
d="M770 467v-35q-100 -19 -163.5 -76t-63.5 -129q0 -50 22 -147q25 -106 25 -172q0 -138 -108 -254t-269 -131v37q106 10 168.5 81t62.5 156q0 66 -20 164q-18 88 -18 158q0 100 77 195t207 135v4q-130 40 -207 133.5t-77 193.5q0 72 18 160q20 98 20 162q0 85 -62.5 156
t-168.5 81v37q161 -15 269 -131t108 -254q0 -62 -25 -172q-22 -94 -22 -147q0 -72 63.5 -129t163.5 -76z" />
    <glyph glyph-name="asciitilde" unicode="~" horiz-adv-x="1110" 
d="M1038 793h58q-6 -149 -75.5 -227.5t-189.5 -78.5q-43 0 -100 15t-99 31.5t-108 44.5q-159 68 -215 81q-37 9 -65 9q-71 0 -113 -44.5t-59 -136.5h-58q3 151 73.5 228.5t191.5 77.5q38 0 93.5 -15.5t88 -28.5t114.5 -47q75 -32 113.5 -47t92.5 -31t89 -16q71 0 116 49.5
t52 135.5z" />
    <glyph glyph-name="uni00A0" unicode="&#xa0;" horiz-adv-x="569" 
 />
    <glyph glyph-name="exclamdown" unicode="&#xa1;" horiz-adv-x="532" 
d="M242 489h41l75 -921q2 -28 -7.5 -36.5t-43.5 -8.5h-92q-34 0 -43 9.5t-6 39.5zM367 782q0 -42 -30 -69t-75 -27q-44 0 -74 26.5t-30 69.5q0 44 30 70.5t74 26.5q45 0 75 -27.5t30 -69.5z" />
    <glyph glyph-name="cent" unicode="&#xa2;" horiz-adv-x="874" 
d="M147 -344l144 352q-95 53 -146 152.5t-51 210.5q0 95 39.5 183t107 153t166.5 100t211 24l107 261h66l-111 -275q115 -36 115 -100q0 -26 -17.5 -44t-42.5 -18q-49 0 -102 50l-244 -613q73 -33 133 -33q73 0 131.5 35t118.5 113l29 -19q-76 -123 -191 -178.5t-262 -21.5
l-135 -332h-66zM338 133l248 612q-53 35 -90 35q-106 0 -185.5 -108.5t-79.5 -255.5q0 -164 107 -283z" />
    <glyph glyph-name="sterling" unicode="&#xa3;" horiz-adv-x="1556" 
d="M426 180l160 414q79 206 159 350.5t191 255.5q80 80 159.5 116t170.5 36q98 0 169.5 -43.5t71.5 -102.5q0 -28 -18 -45.5t-47 -17.5q-24 0 -46.5 14.5t-41.5 35t-41 40.5t-54.5 34.5t-70.5 14.5q-32 0 -73 -19t-77 -55q-58 -58 -136.5 -235t-177 -418t-169.5 -375h352
l-10 -49h-365q-73 -152 -174 -276l4 -5q103 56 224 56q73 0 142 -26.5t121.5 -64t102 -75t105.5 -64t110 -26.5q77 0 131 44t54 107q0 34 -29 82.5t-29 67.5q0 32 21 54t51 22q40 0 65 -38.5t25 -97.5q0 -132 -116.5 -237t-264.5 -105q-76 0 -145 30t-121 72.5t-101 84.5
t-107 72t-118 30q-70 0 -166 -47q-52 -106 -117 -171.5t-116 -65.5q-22 0 -38.5 14t-16.5 33q0 50 74 119t167 104q62 109 136 307h-302l11 49h311z" />
    <glyph glyph-name="currency" unicode="&#xa4;" horiz-adv-x="1366" 
d="M967 999l125 125l61 -63l-125 -123q55 -75 77.5 -138t22.5 -145q0 -78 -22.5 -141t-77.5 -139l125 -125l-61 -62l-125 125q-76 -57 -139.5 -79.5t-143.5 -22.5q-79 0 -143.5 23t-139.5 77l-125 -123l-61 62l125 123q-55 76 -77.5 139t-22.5 143t22.5 144.5t77.5 138.5
l-125 123l61 63l125 -123q76 55 139.5 77t143.5 22t143 -22t140 -79zM328 655q0 -147 104.5 -251.5t251.5 -104.5q146 0 251 105t105 251q0 147 -105 252t-251 105q-148 0 -252 -104.5t-104 -252.5z" />
    <glyph glyph-name="yen" unicode="&#xa5;" horiz-adv-x="1024" 
d="M328 936h420l88 151q45 83 20 115.5t-125 32.5v39h463v-39q-99 -7 -154.5 -45t-101.5 -117l-80 -137h227v-68h-268l-190 -321h458v-68h-487v-289q0 -83 36 -117t128 -34h26v-39h-563v39h39q92 0 128 34.5t36 112.5v293h-549v68h504l-207 321h-297v68h254l-70 108
q-74 117 -126.5 152.5t-153.5 38.5v39h545v-39q-116 0 -137.5 -31.5t28.5 -101.5zM707 868h-336l176 -272z" />
    <glyph glyph-name="brokenbar" unicode="&#xa6;" horiz-adv-x="1044" 
d="M479 279h88v-756h-88v756zM479 1305h88v-756h-88v756z" />
    <glyph glyph-name="section" unicode="&#xa7;" horiz-adv-x="960" 
d="M641 -233q0 56 -55 149.5t-133.5 200.5t-157.5 222.5t-134 247t-55 244.5q0 137 60.5 256.5t167.5 192t233 72.5q97 0 179.5 -42t82.5 -91q0 -28 -21 -47t-52 -19q-28 0 -56.5 21.5t-50.5 47t-60 47t-83 21.5q-76 0 -131.5 -49t-55.5 -117q0 -64 97 -210q31 -46 162 -228
q71 -98 114.5 -167t83.5 -151t58 -162.5t18 -168.5q0 -111 -45 -206.5t-115 -156t-150.5 -94t-156.5 -33.5q-97 0 -174.5 39.5t-77.5 89.5q0 26 20 46t46 20q24 0 46 -14t40.5 -33.5t40 -39.5t54.5 -34t75 -14q75 0 130.5 48.5t55.5 111.5zM358 393q35 -56 101.5 -151.5
t110.5 -160t85 -146.5t52 -146q67 100 67 227q0 68 -11.5 130.5t-27 109.5t-51 110t-62 103.5t-81.5 120.5q-158 228 -206 312q-77 133 -81 206h-4q-31 -47 -49.5 -117t-18.5 -139q0 -65 16 -130t51.5 -136t51.5 -99t57 -94z" />
    <glyph glyph-name="dieresis" unicode="&#xa8;" horiz-adv-x="681" 
d="M541 1235q37 0 63.5 -26.5t26.5 -63.5t-26.5 -63.5t-63.5 -26.5t-63.5 26.5t-26.5 63.5t26.5 63.5t63.5 26.5zM143 1235q37 0 63.5 -26.5t26.5 -63.5t-26.5 -63.5t-63.5 -26.5t-63.5 26.5t-26.5 63.5t26.5 63.5t63.5 26.5z" />
    <glyph glyph-name="copyright" unicode="&#xa9;" horiz-adv-x="1556" 
d="M1126 1135l21 -281h-39q-71 238 -303 238q-148 0 -235 -105.5t-87 -284.5q0 -213 92 -313t240 -100q195 0 311 162l39 -19q-139 -203 -385 -203q-196 0 -329.5 127.5t-133.5 315.5q0 197 143 330t355 133q55 0 101.5 -11.5t77 -22.5t46.5 -11q34 0 47 45h39zM778 1386
q144 0 275.5 -56t226.5 -151t151 -226t56 -275q0 -115 -36 -223.5t-101.5 -195.5t-152.5 -152.5t-195.5 -101.5t-223.5 -36q-144 0 -275 56t-226 151t-151 226.5t-56 275.5t56 275t151 226t226 151t275 56zM778 1325q-176 0 -325 -86.5t-235.5 -235.5t-86.5 -325t86.5 -325
t235.5 -235.5t325 -86.5t325 86.5t235.5 235.5t86.5 325t-86.5 325t-235.5 235.5t-325 86.5z" />
    <glyph glyph-name="ordfeminine" unicode="&#xaa;" horiz-adv-x="532" 
d="M170 1180l-111 -50q-21 26 8.5 68.5t85.5 74.5t103 32q65 0 117.5 -36.5t52.5 -92.5v-263q0 -29 4.5 -42t18.5 -13q34 0 69 35l12 -35q-87 -72 -143 -72q-58 0 -70 64q-52 -39 -79.5 -51.5t-65.5 -12.5q-57 0 -93 30t-36 77q0 40 29 66.5t66.5 37.5t90.5 27.5t84 34.5
v112q0 37 -27.5 61.5t-56.5 24.5q-30 0 -54.5 -24t-4.5 -53zM313 889v129q-23 -11 -53 -22t-46 -17.5t-32 -16.5t-23 -23t-7 -32q0 -28 17.5 -46.5t45.5 -18.5q13 0 98 47z" />
    <glyph glyph-name="guillemotleft" unicode="&#xab;" horiz-adv-x="724" 
d="M502 449l133 -347h-37l-240 347l240 346h37zM213 449l195 -377h-37l-301 377l301 376h37z" />
    <glyph glyph-name="logicalnot" unicode="&#xac;" horiz-adv-x="1366" 
d="M145 946h1076v-577h-93v487h-983v90z" />
    <glyph glyph-name="uni00AD" unicode="&#xad;" horiz-adv-x="811" 
d="M72 453h667v-103h-667v103z" />
    <glyph glyph-name="registered" unicode="&#xae;" horiz-adv-x="1556" 
d="M385 1114h385q135 0 217 -62t82 -163q0 -166 -223 -221l209 -299q33 -49 58.5 -67t62.5 -21v-33h-185l-295 405h-73v-295q0 -42 25 -59.5t91 -17.5v-33h-366v33q55 0 79.5 22t24.5 66v622q0 44 -19 65t-73 21v37zM623 696h39q104 0 174.5 45.5t70.5 137.5q0 82 -57 136
t-145 54q-33 0 -82 -14v-359zM778 1386q144 0 275.5 -56t226.5 -151t151 -226t56 -275q0 -115 -36 -223.5t-101.5 -195.5t-152.5 -152.5t-195.5 -101.5t-223.5 -36q-144 0 -275 56t-226 151t-151 226.5t-56 275.5t56 275t151 226t226 151t275 56zM778 1325
q-176 0 -325 -86.5t-235.5 -235.5t-86.5 -325t86.5 -325t235.5 -235.5t325 -86.5t325 86.5t235.5 235.5t86.5 325t-86.5 325t-235.5 235.5t-325 86.5z" />
    <glyph glyph-name="macron" unicode="&#xaf;" horiz-adv-x="681" 
d="M59 1206h564v-119h-564v119z" />
    <glyph glyph-name="degree" unicode="&#xb0;" horiz-adv-x="811" 
d="M406 1225q-92 0 -158 -66t-66 -158t66 -157.5t158 -65.5t157.5 65.5t65.5 157.5t-65.5 158t-157.5 66zM406 1309q127 0 217 -90t90 -218q0 -127 -89.5 -217t-217.5 -90t-218 90t-90 217t90 217.5t218 90.5z" />
    <glyph glyph-name="plusminus" unicode="&#xb1;" horiz-adv-x="1366" 
d="M145 53h1076v-90h-1076v90zM727 862h494v-90h-494v-493h-90v493h-492v90h492v492h90v-492z" />
    <glyph glyph-name="twosuperior" unicode="&#xb2;" horiz-adv-x="618" 
d="M16 840v24q45 50 230 209q155 134 155 240q0 60 -44.5 96.5t-102.5 36.5q-31 0 -62.5 -10t-67 -44t-52.5 -87h-41q11 105 86 160t170 55q97 0 166 -53.5t69 -137.5q0 -33 -9.5 -61t-22.5 -48.5t-42.5 -47t-52 -43.5t-69.5 -50q-94 -68 -201 -161h262q71 0 88 11t29 70h43
l-25 -159h-506z" />
    <glyph glyph-name="threesuperior" unicode="&#xb3;" horiz-adv-x="618" 
d="M205 1153l-23 29q168 105 168 180q0 42 -32.5 66t-71.5 24q-11 0 -22.5 -2t-36.5 -10.5t-51 -32.5t-46 -61l-43 14q38 82 104.5 120t133.5 38q71 0 120.5 -34.5t49.5 -88.5q0 -76 -111 -142q87 -7 134.5 -58t47.5 -120q0 -96 -95 -173t-224 -77q-69 0 -131 23t-62 57
q0 19 16 31t36 12q18 0 33 -8t59 -39q46 -29 73 -34q9 -1 19 -1q61 0 111.5 53t50.5 130q0 68 -38 103.5t-81 35.5q-44 0 -88 -35z" />
    <glyph glyph-name="acute" unicode="&#xb4;" horiz-adv-x="681" 
d="M170 999h-27l189 261q67 90 131 90q28 0 45.5 -17t17.5 -43q0 -29 -32 -61.5t-107 -83.5z" />
    <glyph glyph-name="mu" unicode="&#xb5;" horiz-adv-x="1024" 
d="M117 811h137v-442q0 -159 35.5 -222t130.5 -63q76 0 138 33t128 110v584h137v-616q0 -53 20.5 -84t49.5 -31q62 0 80 123h43q-5 -104 -52.5 -168t-123.5 -64q-64 0 -108.5 51.5t-45.5 139.5q-96 -96 -176.5 -143.5t-163.5 -47.5q-53 0 -87 18.5t-69 67.5
q-9 -85 18.5 -215.5t27.5 -175.5q0 -44 -27.5 -76t-65.5 -32q-39 0 -63.5 29.5t-24.5 78.5q0 39 31 167t31 241v737z" />
    <glyph glyph-name="paragraph" unicode="&#xb6;" horiz-adv-x="917" 
d="M799 1219v-1696h-74v1696h-186v-1696h-74v995q-243 0 -361 101t-118 278t119 277t331 100h494v-55h-131z" />
    <glyph glyph-name="periodcentered" unicode="&#xb7;" horiz-adv-x="532" 
d="M266 758q44 0 74.5 -26.5t30.5 -69.5q0 -44 -30.5 -70.5t-74.5 -26.5q-45 0 -74.5 27.5t-29.5 69.5t29.5 69t74.5 27z" />
    <glyph glyph-name="cedilla" unicode="&#xb8;" horiz-adv-x="681" 
d="M229 -412l15 29q27 -8 53 -8q44 0 76.5 30.5t32.5 73.5q0 34 -17.5 54t-48.5 20q-47 0 -131 -41l160 264h30l-65 -110q64 12 111 -37t47 -115q0 -73 -51.5 -124.5t-123.5 -51.5q-38 0 -88 16z" />
    <glyph glyph-name="onesuperior" unicode="&#xb9;" horiz-adv-x="618" 
d="M313 1518h62v-605q0 -24 8 -32.5t29 -8.5h75v-32h-327v32h67q29 0 36 7.5t7 33.5v496q-81 -51 -145 -78l-16 27q48 29 109 75.5t95 84.5z" />
    <glyph glyph-name="ordmasculine" unicode="&#xba;" horiz-adv-x="704" 
d="M643 1047q0 -99 -83.5 -180t-211.5 -81q-66 0 -119 20.5t-85 50.5t-53.5 67t-29.5 68t-8 55q0 43 19.5 87.5t55 83t93.5 63t127 24.5q66 0 119 -20t85 -49.5t53.5 -66t29.5 -67t8 -55.5zM178 1085q0 -106 56 -181t135 -75q66 0 109.5 53.5t43.5 133.5q0 100 -56.5 173
t-133.5 73q-66 0 -110 -51t-44 -126z" />
    <glyph glyph-name="guillemotright" unicode="&#xbb;" horiz-adv-x="724" 
d="M223 449l-133 346h37l240 -346l-240 -347h-37zM512 449l-195 376h37l301 -376l-301 -377h-37z" />
    <glyph glyph-name="onequarter" unicode="&#xbc;" horiz-adv-x="1472" 
d="M1161 190v-204h-104v204h-309v31l360 457h53v-424h121v-64h-121zM1057 254v287h-4l-219 -287h223zM270 692v504q-87 -56 -143 -78l-18 27q55 31 115.5 79.5t88.5 80.5h62v-611q0 -20 8 -27.5t31 -7.5h73v-32h-327v32h84q26 0 26 33zM240 -55h-84l995 1394h84z" />
    <glyph glyph-name="onehalf" unicode="&#xbd;" horiz-adv-x="1472" 
d="M240 -55h-84l995 1394h84zM1315 160h43l-25 -160h-506v25q50 51 116 109t108 95.5t82 79.5t59.5 82t19.5 82q0 57 -42 95t-105 38t-111.5 -38t-68.5 -103h-43q11 95 81.5 154t174.5 59q100 0 167.5 -54.5t67.5 -136.5q0 -51 -19.5 -89t-59 -71t-83.5 -63t-109 -81
t-120 -109h281q50 0 67.5 15.5t24.5 70.5zM270 692v504q-87 -56 -143 -78l-18 27q55 31 115.5 79.5t88.5 80.5h62v-611q0 -20 8 -27.5t31 -7.5h73v-32h-327v32h84q26 0 26 33z" />
    <glyph glyph-name="threequarters" unicode="&#xbe;" horiz-adv-x="1472" 
d="M1196 -14h-104v204h-310v31l361 457h53v-424h121v-64h-121v-204zM1092 254v287h-5l-219 -287h224zM274 -55h-84l996 1394h84zM246 940l-25 29q87 58 128.5 98.5t41.5 81.5q0 38 -31 64t-75 26q-45 0 -87 -28t-69 -78l-41 14q34 73 97.5 115.5t140.5 42.5q72 0 121 -35.5
t49 -87.5q0 -76 -111 -140v-4q83 -6 132.5 -54t49.5 -122q0 -100 -96 -175t-223 -75q-77 0 -135 24t-58 56q0 17 14.5 30t34.5 13q25 0 55 -20.5t64 -41t68 -20.5q65 0 113.5 55t48.5 128q0 59 -35 99t-86 40q-41 0 -86 -35z" />
    <glyph glyph-name="questiondown" unicode="&#xbf;" horiz-adv-x="724" 
d="M442 -477q-151 0 -252.5 100t-101.5 262q0 79 20.5 138.5t53 94t71.5 59t78.5 39.5t72 29t53 34t20.5 49q0 69 -78 147h45q44 -47 72 -104t28 -107q0 -49 -21.5 -83.5t-55.5 -54.5t-75.5 -35.5t-82.5 -32.5t-75 -39.5t-55.5 -62.5t-21.5 -95q0 -88 57.5 -135.5
t151.5 -47.5q37 0 90 7.5t68 7.5q49 0 83 -17.5t34 -56.5q0 -43 -43 -69.5t-136 -26.5zM408 651q-44 0 -74.5 27t-30.5 70q0 44 30 70t75 26t74.5 -27t29.5 -69t-29.5 -69.5t-74.5 -27.5z" />
    <glyph glyph-name="Agrave" unicode="&#xc0;" horiz-adv-x="1386" 
d="M852 1436l-217 145q-75 51 -107 83.5t-32 61.5q0 26 17.5 43t45.5 17q64 0 131 -90l189 -260h-27zM866 565h-424l-118 -321q-3 -9 -12 -31.5t-14 -37.5t-10 -32.5t-5 -27.5q0 -41 40 -58.5t126 -17.5h32v-39h-473v39q70 1 104 16t58 53.5t59 133.5l373 1018l-18 45h178
l428 -1137q30 -79 68 -104t118 -25v-39h-563v39h53q91 0 125.5 14t34.5 56q0 29 -22 84zM831 655l-180 478l-174 -478h354z" />
    <glyph glyph-name="Aacute" unicode="&#xc1;" horiz-adv-x="1386" 
d="M522 1436h-26l188 260q67 90 131 90q28 0 46 -17t18 -43q0 -29 -32.5 -61.5t-107.5 -83.5zM866 565h-424l-118 -321q-3 -9 -12 -31.5t-14 -37.5t-10 -32.5t-5 -27.5q0 -41 40 -58.5t126 -17.5h32v-39h-473v39q70 1 104 16t58 53.5t59 133.5l373 1018l-18 45h178
l428 -1137q30 -79 68 -104t118 -25v-39h-563v39h53q91 0 125.5 14t34.5 56q0 29 -22 84zM831 655l-180 478l-174 -478h354z" />
    <glyph glyph-name="Acircumflex" unicode="&#xc2;" horiz-adv-x="1386" 
d="M688 1688l-242 -256v34l222 369h57l217 -369v-34zM866 565h-424l-118 -321q-3 -9 -12 -31.5t-14 -37.5t-10 -32.5t-5 -27.5q0 -41 40 -58.5t126 -17.5h32v-39h-473v39q70 1 104 16t58 53.5t59 133.5l373 1018l-18 45h178l428 -1137q30 -79 68 -104t118 -25v-39h-563v39
h53q91 0 125.5 14t34.5 56q0 29 -22 84zM831 655l-180 478l-174 -478h354z" />
    <glyph glyph-name="Atilde" unicode="&#xc3;" horiz-adv-x="1386" 
d="M440 1477h-22q0 112 44 170.5t122 58.5q60 0 145 -61q5 -4 21.5 -15t23 -15.5t19.5 -12.5t21 -11.5t18.5 -6.5t19.5 -3q85 0 94 125h23q10 -97 -39 -162t-119 -65q-25 0 -52.5 10.5t-45 21.5t-47.5 31q-31 22 -44.5 31t-37.5 20t-43 11q-86 0 -101 -127zM866 565h-424
l-118 -321q-3 -9 -12 -31.5t-14 -37.5t-10 -32.5t-5 -27.5q0 -41 40 -58.5t126 -17.5h32v-39h-473v39q70 1 104 16t58 53.5t59 133.5l373 1018l-18 45h178l428 -1137q30 -79 68 -104t118 -25v-39h-563v39h53q91 0 125.5 14t34.5 56q0 29 -22 84zM831 655l-180 478l-174 -478
h354z" />
    <glyph glyph-name="Adieresis" unicode="&#xc4;" horiz-adv-x="1386" 
d="M866 565h-424l-118 -321q-3 -9 -12 -31.5t-14 -37.5t-10 -32.5t-5 -27.5q0 -41 40 -58.5t126 -17.5h32v-39h-473v39q70 1 104 16t58 53.5t59 133.5l373 1018l-18 45h178l428 -1137q30 -79 68 -104t118 -25v-39h-563v39h53q91 0 125.5 14t34.5 56q0 29 -22 84zM831 655
l-180 478l-174 -478h354zM893 1671q37 0 63.5 -26.5t26.5 -63.5t-26.5 -63.5t-63.5 -26.5t-63.5 26.5t-26.5 63.5t26.5 63.5t63.5 26.5zM496 1671q37 0 63.5 -26.5t26.5 -63.5t-26.5 -63.5t-63.5 -26.5t-63.5 26.5t-26.5 63.5t26.5 63.5t63.5 26.5z" />
    <glyph glyph-name="Aring" unicode="&#xc5;" horiz-adv-x="1386" 
d="M694 1755q77 0 132 -55t55 -131q0 -77 -55.5 -132t-131.5 -55t-131 55t-55 132t55 131.5t131 54.5zM694 1706q-57 0 -97 -40t-40 -97t40 -97t97 -40t97 40t40 97t-40 97t-97 40zM866 565h-424l-118 -321q-3 -9 -12 -31.5t-14 -37.5t-10 -32.5t-5 -27.5q0 -41 40 -58.5
t126 -17.5h32v-39h-473v39q70 1 104 16t58 53.5t59 133.5l373 1018l-18 45h178l428 -1137q30 -79 68 -104t118 -25v-39h-563v39h53q91 0 125.5 14t34.5 56q0 29 -22 84zM831 655l-180 478l-174 -478h354z" />
    <glyph glyph-name="AE" unicode="&#xc6;" horiz-adv-x="1792" 
d="M856 1223h-18l-389 -643h407v643zM1526 850v-389h-39q-11 103 -40.5 132.5t-98.5 29.5h-322v-437q0 -67 25 -89.5t86 -22.5h290q105 0 152 47.5t86 183.5h37l-33 -305h-1063v39h58q82 0 123.5 17.5t55 51t13.5 99.5v299h-450l-203 -330q-24 -42 -27 -72t35.5 -47.5
t120.5 -17.5v-39h-438v39q71 0 120 38.5t109 135.5l539 891q78 131 -56 131h-45v39h1045l16 -285h-37q-10 68 -26 112t-37.5 64.5t-41 27.5t-46.5 7h-408v-504h342q57 0 84.5 33.5t34.5 120.5h39z" />
    <glyph glyph-name="Ccedilla" unicode="&#xc7;" horiz-adv-x="1492" 
d="M618 -254l138 225q-142 9 -263 61.5t-206 137.5t-133 201.5t-48 249.5q0 147 55 274t152 217t234 141.5t295 51.5q88 0 167 -13t123 -28t83.5 -28t58.5 -13q29 0 37 12h30l19 -297h-39q-51 143 -178.5 230t-288.5 87q-120 0 -224.5 -49t-176.5 -130.5t-113 -189
t-41 -222.5q0 -172 78 -320.5t211.5 -236t288.5 -87.5q136 0 275 76t224 226h39q-48 -163 -131 -299q-44 6 -94.5 -1.5t-96 -20t-129.5 -23.5t-180 -11l-41 -67q64 12 111 -37t47 -115q0 -73 -51 -124.5t-123 -51.5q-38 0 -88 16l14 29q27 -8 54 -8q44 0 76 30.5t32 73.5
q0 34 -17.5 54t-47.5 20q-48 0 -132 -41z" />
    <glyph glyph-name="Egrave" unicode="&#xc8;" horiz-adv-x="1216" 
d="M768 1436l-217 145q-75 51 -107 83.5t-32 61.5q0 26 17.5 43t45.5 17q64 0 131 -90l189 -260h-27zM950 850v-389h-39q-11 103 -40.5 132.5t-98.5 29.5h-346v-437q0 -67 25 -89.5t86 -22.5h315q105 0 152 47.5t86 183.5h36l-32 -305h-1088v39h57q119 0 156 35.5t37 132.5
v864q0 91 -32.5 127.5t-131.5 36.5h-45v39h983l17 -285h-37q-19 123 -55 167t-97 44h-432v-504h367q57 0 84 33.5t34 120.5h39z" />
    <glyph glyph-name="Eacute" unicode="&#xc9;" horiz-adv-x="1216" 
d="M438 1436h-26l188 260q67 90 131 90q28 0 46 -17t18 -43q0 -29 -32.5 -61.5t-107.5 -83.5zM950 850v-389h-39q-11 103 -40.5 132.5t-98.5 29.5h-346v-437q0 -67 25 -89.5t86 -22.5h315q105 0 152 47.5t86 183.5h36l-32 -305h-1088v39h57q119 0 156 35.5t37 132.5v864
q0 91 -32.5 127.5t-131.5 36.5h-45v39h983l17 -285h-37q-19 123 -55 167t-97 44h-432v-504h367q57 0 84 33.5t34 120.5h39z" />
    <glyph glyph-name="Ecircumflex" unicode="&#xca;" horiz-adv-x="1216" 
d="M604 1688l-242 -256v34l222 369h57l217 -369v-34zM950 850v-389h-39q-11 103 -40.5 132.5t-98.5 29.5h-346v-437q0 -67 25 -89.5t86 -22.5h315q105 0 152 47.5t86 183.5h36l-32 -305h-1088v39h57q119 0 156 35.5t37 132.5v864q0 91 -32.5 127.5t-131.5 36.5h-45v39h983
l17 -285h-37q-19 123 -55 167t-97 44h-432v-504h367q57 0 84 33.5t34 120.5h39z" />
    <glyph glyph-name="Edieresis" unicode="&#xcb;" horiz-adv-x="1216" 
d="M809 1671q37 0 63.5 -26.5t26.5 -63.5t-26.5 -63.5t-63.5 -26.5t-63.5 26.5t-26.5 63.5t26.5 63.5t63.5 26.5zM412 1671q37 0 63.5 -26.5t26.5 -63.5t-26.5 -63.5t-63.5 -26.5t-63.5 26.5t-26.5 63.5t26.5 63.5t63.5 26.5zM950 850v-389h-39q-11 103 -40.5 132.5
t-98.5 29.5h-346v-437q0 -67 25 -89.5t86 -22.5h315q105 0 152 47.5t86 183.5h36l-32 -305h-1088v39h57q119 0 156 35.5t37 132.5v864q0 91 -32.5 127.5t-131.5 36.5h-45v39h983l17 -285h-37q-19 123 -55 167t-97 44h-432v-504h367q57 0 84 33.5t34 120.5h39z" />
    <glyph glyph-name="Igrave" unicode="&#xcc;" horiz-adv-x="681" 
d="M500 1436l-217 145q-75 51 -107.5 83.5t-32.5 61.5q0 26 18 43t46 17q64 0 131 -90l188 -260h-26zM590 39v-39h-498v39q95 4 124.5 38.5t29.5 137.5v872q0 82 -33 112.5t-121 35.5v39h498v-39q-100 0 -137 -33t-37 -133v-868q0 -93 35 -127.5t139 -34.5z" />
    <glyph glyph-name="Iacute" unicode="&#xcd;" horiz-adv-x="681" 
d="M170 1436h-27l189 260q67 90 131 90q28 0 45.5 -17t17.5 -43q0 -29 -32 -61.5t-107 -83.5zM590 39v-39h-498v39q95 4 124.5 38.5t29.5 137.5v872q0 82 -33 112.5t-121 35.5v39h498v-39q-100 0 -137 -33t-37 -133v-868q0 -93 35 -127.5t139 -34.5z" />
    <glyph glyph-name="Icircumflex" unicode="&#xce;" horiz-adv-x="681" 
d="M336 1688l-242 -256v34l221 369h58l217 -369v-34zM590 39v-39h-498v39q95 4 124.5 38.5t29.5 137.5v872q0 82 -33 112.5t-121 35.5v39h498v-39q-100 0 -137 -33t-37 -133v-868q0 -93 35 -127.5t139 -34.5z" />
    <glyph glyph-name="Idieresis" unicode="&#xcf;" horiz-adv-x="681" 
d="M541 1671q37 0 63.5 -26.5t26.5 -63.5t-26.5 -63.5t-63.5 -26.5t-63.5 26.5t-26.5 63.5t26.5 63.5t63.5 26.5zM143 1671q37 0 63.5 -26.5t26.5 -63.5t-26.5 -63.5t-63.5 -26.5t-63.5 26.5t-26.5 63.5t26.5 63.5t63.5 26.5zM590 39v-39h-498v39q95 4 124.5 38.5
t29.5 137.5v872q0 82 -33 112.5t-121 35.5v39h498v-39q-100 0 -137 -33t-37 -133v-868q0 -93 35 -127.5t139 -34.5z" />
    <glyph glyph-name="Eth" unicode="&#xd0;" horiz-adv-x="1556" 
d="M227 678v391q0 99 -32 132.5t-123 33.5h-41v39q105 6 288 12q170 6 345 6q159 0 288.5 -31.5t220 -86.5t152.5 -132.5t90.5 -168t28.5 -193.5q0 -95 -28.5 -189.5t-90 -183.5t-148.5 -157t-214 -109t-277 -41h-655v39h35q87 0 124 31.5t37 117.5v408h-196v82h196z
M762 678v-82h-365v-444q0 -30 2 -45t10.5 -30.5t26.5 -22t49 -11t80 -4.5q204 0 312 35t204 131q68 66 119 182t51 260q0 276 -164 440q-78 78 -201.5 122t-324.5 44q-64 0 -164 -8v-567h365z" />
    <glyph glyph-name="Ntilde" unicode="&#xd1;" horiz-adv-x="1665" 
d="M580 1477h-23q0 112 44 170.5t122 58.5q60 0 145 -61q5 -4 21.5 -15t23 -15.5t19.5 -12.5t21 -11.5t18.5 -6.5t19.5 -3q85 0 94 125h23q10 -97 -39 -162t-119 -65q-25 0 -52.5 10.5t-45 21.5t-47.5 31q-31 22 -44.5 31t-37.5 20t-43 11q-85 0 -100 -127zM1444 -14h-53
l-1061 1110v-879q0 -111 38.5 -144.5t168.5 -33.5v-39h-476v39h9q93 0 130.5 32.5t37.5 104.5v1008q-69 48 -172 51v39h321l965 -1006v815q0 93 -38.5 121t-162.5 31v39h479v-39q-113 0 -149.5 -22.5t-36.5 -84.5v-1142z" />
    <glyph glyph-name="Ograve" unicode="&#xd2;" horiz-adv-x="1685" 
d="M1001 1436l-217 145q-75 51 -107 83.5t-32 61.5q0 26 18 43t46 17q64 0 131 -90l188 -260h-27zM1577 672q0 -202 -99.5 -364.5t-265.5 -251.5t-364 -89q-149 0 -284 47t-236 129.5t-160 203.5t-59 261q0 201 96 360.5t267 248t386 88.5q144 0 275.5 -47.5t229.5 -130
t156 -201.5t58 -254zM1384 604q0 285 -162.5 467t-416.5 182q-104 0 -190.5 -37t-143 -96.5t-96 -137t-57 -155.5t-17.5 -155q0 -188 78.5 -338t213 -233t298.5 -83q97 0 179 33t139 89.5t97 131.5t59 159t19 173z" />
    <glyph glyph-name="Oacute" unicode="&#xd3;" horiz-adv-x="1685" 
d="M672 1436h-27l189 260q67 90 131 90q28 0 45.5 -17t17.5 -43q0 -29 -32 -61.5t-107 -83.5zM1577 672q0 -202 -99.5 -364.5t-265.5 -251.5t-364 -89q-149 0 -284 47t-236 129.5t-160 203.5t-59 261q0 201 96 360.5t267 248t386 88.5q144 0 275.5 -47.5t229.5 -130
t156 -201.5t58 -254zM1384 604q0 285 -162.5 467t-416.5 182q-104 0 -190.5 -37t-143 -96.5t-96 -137t-57 -155.5t-17.5 -155q0 -188 78.5 -338t213 -233t298.5 -83q97 0 179 33t139 89.5t97 131.5t59 159t19 173z" />
    <glyph glyph-name="Ocircumflex" unicode="&#xd4;" horiz-adv-x="1685" 
d="M838 1688l-242 -256v34l221 369h57l218 -369v-34zM1577 672q0 -202 -99.5 -364.5t-265.5 -251.5t-364 -89q-149 0 -284 47t-236 129.5t-160 203.5t-59 261q0 201 96 360.5t267 248t386 88.5q144 0 275.5 -47.5t229.5 -130t156 -201.5t58 -254zM1384 604q0 285 -162.5 467
t-416.5 182q-104 0 -190.5 -37t-143 -96.5t-96 -137t-57 -155.5t-17.5 -155q0 -188 78.5 -338t213 -233t298.5 -83q97 0 179 33t139 89.5t97 131.5t59 159t19 173z" />
    <glyph glyph-name="Otilde" unicode="&#xd5;" horiz-adv-x="1685" 
d="M590 1477h-23q0 112 44 170.5t122 58.5q61 0 146 -61q5 -3 25.5 -17.5t27.5 -19t22 -13t25.5 -11.5t21.5 -3q86 0 95 125h22q10 -97 -39 -162t-118 -65q-55 0 -146 63q-31 22 -44.5 31t-37.5 20t-43 11q-85 0 -100 -127zM1577 672q0 -202 -99.5 -364.5t-265.5 -251.5
t-364 -89q-149 0 -284 47t-236 129.5t-160 203.5t-59 261q0 201 96 360.5t267 248t386 88.5q144 0 275.5 -47.5t229.5 -130t156 -201.5t58 -254zM1384 604q0 285 -162.5 467t-416.5 182q-104 0 -190.5 -37t-143 -96.5t-96 -137t-57 -155.5t-17.5 -155q0 -188 78.5 -338
t213 -233t298.5 -83q97 0 179 33t139 89.5t97 131.5t59 159t19 173z" />
    <glyph glyph-name="Odieresis" unicode="&#xd6;" horiz-adv-x="1685" 
d="M1577 672q0 -202 -99.5 -364.5t-265.5 -251.5t-364 -89q-149 0 -284 47t-236 129.5t-160 203.5t-59 261q0 201 96 360.5t267 248t386 88.5q144 0 275.5 -47.5t229.5 -130t156 -201.5t58 -254zM1384 604q0 285 -162.5 467t-416.5 182q-104 0 -190.5 -37t-143 -96.5
t-96 -137t-57 -155.5t-17.5 -155q0 -188 78.5 -338t213 -233t298.5 -83q97 0 179 33t139 89.5t97 131.5t59 159t19 173zM1042 1671q37 0 64 -26.5t27 -63.5t-27 -63.5t-64 -26.5t-63.5 26.5t-26.5 63.5t26.5 63.5t63.5 26.5zM645 1671q37 0 63.5 -26.5t26.5 -63.5
t-26.5 -63.5t-63.5 -26.5t-63.5 26.5t-26.5 63.5t26.5 63.5t63.5 26.5z" />
    <glyph glyph-name="multiply" unicode="&#xd7;" horiz-adv-x="1366" 
d="M682 592l-422 -422l-65 66l421 421l-421 422l65 66l422 -422l424 424l68 -68l-424 -424l421 -422l-65 -65z" />
    <glyph glyph-name="Oslash" unicode="&#xd8;" horiz-adv-x="1685" 
d="M1296 1178l162 184l29 -29l-156 -182q248 -183 248 -485q0 -199 -99 -360t-266 -250t-366 -89q-248 0 -445 125l-196 -221l-29 25l191 219q-136 97 -197 229.5t-61 273.5q0 133 51.5 256.5t144.5 219.5t235 153.5t310 57.5q250 0 444 -127zM459 219l753 862
q-160 172 -415 172q-93 0 -173.5 -33t-138.5 -90t-99.5 -132t-62 -159.5t-20.5 -172.5q0 -262 156 -447zM1239 1051l-754 -861q18 -18 38.5 -36t59 -44t80 -45t100 -33t118.5 -14q109 0 197.5 37t144.5 96t94 137.5t53.5 157t15.5 158.5q0 271 -147 447z" />
    <glyph glyph-name="Ugrave" unicode="&#xd9;" horiz-adv-x="1622" 
d="M971 1436l-217 145q-75 51 -107.5 83.5t-32.5 61.5q0 26 18 43t46 17q64 0 131 -90l188 -260h-26zM1116 1274h481v-39q-102 -1 -144 -45t-42 -143v-553q0 -79 -20 -152.5t-66 -142.5t-114.5 -120t-172.5 -81.5t-233 -30.5q-143 0 -257 39.5t-186.5 109t-110.5 163
t-38 204.5v598q0 50 -7.5 79t-29 46t-52.5 22.5t-87 6.5v39h526v-39h-18q-88 0 -125 -32t-37 -118v-569q0 -209 120.5 -325.5t346.5 -116.5q73 0 137.5 12.5t126.5 44t105.5 80.5t70.5 127.5t27 179.5v477q0 78 -7 120.5t-30.5 70t-60 37t-103.5 12.5v39z" />
    <glyph glyph-name="Uacute" unicode="&#xda;" horiz-adv-x="1622" 
d="M641 1436h-27l189 260q67 90 131 90q28 0 45.5 -17t17.5 -43q0 -29 -32 -61.5t-107 -83.5zM1116 1274h481v-39q-102 -1 -144 -45t-42 -143v-553q0 -79 -20 -152.5t-66 -142.5t-114.5 -120t-172.5 -81.5t-233 -30.5q-143 0 -257 39.5t-186.5 109t-110.5 163t-38 204.5v598
q0 50 -7.5 79t-29 46t-52.5 22.5t-87 6.5v39h526v-39h-18q-88 0 -125 -32t-37 -118v-569q0 -209 120.5 -325.5t346.5 -116.5q73 0 137.5 12.5t126.5 44t105.5 80.5t70.5 127.5t27 179.5v477q0 78 -7 120.5t-30.5 70t-60 37t-103.5 12.5v39z" />
    <glyph glyph-name="Ucircumflex" unicode="&#xdb;" horiz-adv-x="1622" 
d="M807 1688l-242 -256v34l221 369h58l217 -369v-34zM1116 1274h481v-39q-102 -1 -144 -45t-42 -143v-553q0 -79 -20 -152.5t-66 -142.5t-114.5 -120t-172.5 -81.5t-233 -30.5q-143 0 -257 39.5t-186.5 109t-110.5 163t-38 204.5v598q0 50 -7.5 79t-29 46t-52.5 22.5
t-87 6.5v39h526v-39h-18q-88 0 -125 -32t-37 -118v-569q0 -209 120.5 -325.5t346.5 -116.5q73 0 137.5 12.5t126.5 44t105.5 80.5t70.5 127.5t27 179.5v477q0 78 -7 120.5t-30.5 70t-60 37t-103.5 12.5v39z" />
    <glyph glyph-name="Udieresis" unicode="&#xdc;" horiz-adv-x="1622" 
d="M1012 1671q37 0 63.5 -26.5t26.5 -63.5t-26.5 -63.5t-63.5 -26.5t-63.5 26.5t-26.5 63.5t26.5 63.5t63.5 26.5zM614 1671q37 0 64 -26.5t27 -63.5t-27 -63.5t-64 -26.5t-63.5 26.5t-26.5 63.5t26.5 63.5t63.5 26.5zM1116 1274h481v-39q-102 -1 -144 -45t-42 -143v-553
q0 -79 -20 -152.5t-66 -142.5t-114.5 -120t-172.5 -81.5t-233 -30.5q-143 0 -257 39.5t-186.5 109t-110.5 163t-38 204.5v598q0 50 -7.5 79t-29 46t-52.5 22.5t-87 6.5v39h526v-39h-18q-88 0 -125 -32t-37 -118v-569q0 -209 120.5 -325.5t346.5 -116.5q73 0 137.5 12.5
t126.5 44t105.5 80.5t70.5 127.5t27 179.5v477q0 78 -7 120.5t-30.5 70t-60 37t-103.5 12.5v39z" />
    <glyph glyph-name="Yacute" unicode="&#xdd;" horiz-adv-x="1449" 
d="M555 1436h-27l189 260q67 90 131 90q28 0 45.5 -17t17.5 -43q0 -29 -32 -61.5t-107 -83.5zM760 596l289 491q35 56 31 88.5t-36 46t-100 13.5v39h463v-39q-98 -7 -154 -45.5t-102 -116.5l-340 -575v-308q0 -83 36 -117t128 -34h26v-39h-563v39h39q92 0 128 34.5t36 112.5
v289l-365 569q-74 117 -126.5 152.5t-153.5 38.5v39h545v-39q-116 0 -137.5 -31.5t28.5 -101.5z" />
    <glyph glyph-name="Thorn" unicode="&#xde;" horiz-adv-x="1153" 
d="M240 158v958q0 71 -28.5 95t-109.5 24h-28v39h501v-39h-28q-80 0 -108.5 -24t-28.5 -95v-98q114 4 143 4q123 0 218.5 -23t152 -59t93 -85.5t49.5 -96.5t13 -99q0 -180 -134 -285.5t-361 -105.5q-88 0 -174 17v-88q0 -87 34.5 -122.5t128.5 -35.5h68v-39h-567v39h28
q81 0 109.5 24t28.5 95zM410 975v-651q76 -17 110 -17q165 0 266 101t101 258q0 149 -81 233t-255 84q-92 0 -141 -8z" />
    <glyph glyph-name="germandbls" unicode="&#xdf;" 
d="M481 725v31q137 14 212 92t75 207q0 122 -63 197t-166 75q-107 0 -167.5 -87t-60.5 -224v-850q0 -77 28.5 -102t104.5 -25v-39h-403v39q81 0 107 21.5t26 84.5v748q0 101 21.5 183.5t58 137.5t86.5 92t105 53.5t116 16.5q145 0 244.5 -88t99.5 -215q0 -107 -76 -191
t-213 -130v-4q67 -14 127.5 -43t113.5 -74t84.5 -113t31.5 -149q0 -98 -35.5 -177t-89.5 -124.5t-111 -69t-108 -23.5q-41 0 -67.5 18.5t-26.5 47.5q0 23 14 39t33 16q21 0 60.5 -22.5t64.5 -22.5q47 0 79.5 81t32.5 202q0 221 -96 317q-42 42 -98.5 58t-143.5 16z" />
    <glyph glyph-name="agrave" unicode="&#xe0;" horiz-adv-x="811" 
d="M565 999l-217 146q-75 51 -107 83.5t-32 61.5q0 26 17.5 43t45.5 17q64 0 131 -90l189 -261h-27zM231 635l-139 -68q-6 18 -6 29q0 36 47 92.5t120.5 101t135.5 44.5q54 0 115 -27t100 -82q22 -30 26.5 -60t4.5 -116v-275q0 -132 7.5 -166t45.5 -34q47 0 100 45l11 -31
q-139 -113 -203 -113q-86 0 -94 125q-97 -81 -143.5 -103t-94.5 -22q-88 0 -139 46t-51 122q0 45 18 79t54.5 56.5t74.5 37t94 28.5q86 20 183 78v162q0 35 -1.5 51.5t-9 38t-24.5 41.5q-48 59 -115 59q-49 0 -88 -33t-39 -67q0 -16 10 -39zM498 137v244q-42 -25 -121 -57
q-56 -23 -81 -35t-50 -30t-33 -39t-8 -52q0 -53 36.5 -87t84.5 -34q26 0 57.5 16t114.5 74z" />
    <glyph glyph-name="aacute" unicode="&#xe1;" horiz-adv-x="811" 
d="M236 999h-27l188 261q67 90 131 90q28 0 46 -17t18 -43q0 -29 -32 -61.5t-107 -83.5zM231 635l-139 -68q-6 18 -6 29q0 36 47 92.5t120.5 101t135.5 44.5q54 0 115 -27t100 -82q22 -30 26.5 -60t4.5 -116v-275q0 -132 7.5 -166t45.5 -34q47 0 100 45l11 -31
q-139 -113 -203 -113q-86 0 -94 125q-97 -81 -143.5 -103t-94.5 -22q-88 0 -139 46t-51 122q0 45 18 79t54.5 56.5t74.5 37t94 28.5q86 20 183 78v162q0 35 -1.5 51.5t-9 38t-24.5 41.5q-48 59 -115 59q-49 0 -88 -33t-39 -67q0 -16 10 -39zM498 137v244q-42 -25 -121 -57
q-56 -23 -81 -35t-50 -30t-33 -39t-8 -52q0 -53 36.5 -87t84.5 -34q26 0 57.5 16t114.5 74z" />
    <glyph glyph-name="acircumflex" unicode="&#xe2;" horiz-adv-x="811" 
d="M401 1251l-241 -256v35l221 369h57l217 -369v-35zM231 635l-139 -68q-6 18 -6 29q0 36 47 92.5t120.5 101t135.5 44.5q54 0 115 -27t100 -82q22 -30 26.5 -60t4.5 -116v-275q0 -132 7.5 -166t45.5 -34q47 0 100 45l11 -31q-139 -113 -203 -113q-86 0 -94 125
q-97 -81 -143.5 -103t-94.5 -22q-88 0 -139 46t-51 122q0 45 18 79t54.5 56.5t74.5 37t94 28.5q86 20 183 78v162q0 35 -1.5 51.5t-9 38t-24.5 41.5q-48 59 -115 59q-49 0 -88 -33t-39 -67q0 -16 10 -39zM498 137v244q-42 -25 -121 -57q-56 -23 -81 -35t-50 -30t-33 -39
t-8 -52q0 -53 36.5 -87t84.5 -34q26 0 57.5 16t114.5 74z" />
    <glyph glyph-name="atilde" unicode="&#xe3;" horiz-adv-x="811" 
d="M154 1040h-23q0 112 44 171t122 59q59 0 145 -62q4 -3 18.5 -13t19.5 -13.5t17 -11t18.5 -10.5t16 -7.5t17.5 -6t16 -1.5q85 0 94 125h23q10 -97 -39.5 -162.5t-118.5 -65.5q-25 0 -53 11t-44.5 21.5t-47.5 31.5q-29 21 -44 31t-38.5 20t-42.5 10q-85 0 -100 -127z
M231 635l-139 -68q-6 18 -6 29q0 36 47 92.5t120.5 101t135.5 44.5q54 0 115 -27t100 -82q22 -30 26.5 -60t4.5 -116v-275q0 -132 7.5 -166t45.5 -34q47 0 100 45l11 -31q-139 -113 -203 -113q-86 0 -94 125q-97 -81 -143.5 -103t-94.5 -22q-88 0 -139 46t-51 122
q0 45 18 79t54.5 56.5t74.5 37t94 28.5q86 20 183 78v162q0 35 -1.5 51.5t-9 38t-24.5 41.5q-48 59 -115 59q-49 0 -88 -33t-39 -67q0 -16 10 -39zM498 137v244q-42 -25 -121 -57q-56 -23 -81 -35t-50 -30t-33 -39t-8 -52q0 -53 36.5 -87t84.5 -34q26 0 57.5 16t114.5 74z
" />
    <glyph glyph-name="adieresis" unicode="&#xe4;" horiz-adv-x="811" 
d="M231 635l-139 -68q-6 18 -6 29q0 36 47 92.5t120.5 101t135.5 44.5q54 0 115 -27t100 -82q22 -30 26.5 -60t4.5 -116v-275q0 -132 7.5 -166t45.5 -34q47 0 100 45l11 -31q-139 -113 -203 -113q-86 0 -94 125q-97 -81 -143.5 -103t-94.5 -22q-88 0 -139 46t-51 122
q0 45 18 79t54.5 56.5t74.5 37t94 28.5q86 20 183 78v162q0 35 -1.5 51.5t-9 38t-24.5 41.5q-48 59 -115 59q-49 0 -88 -33t-39 -67q0 -16 10 -39zM498 137v244q-42 -25 -121 -57q-56 -23 -81 -35t-50 -30t-33 -39t-8 -52q0 -53 36.5 -87t84.5 -34q26 0 57.5 16t114.5 74z
M565 1235q37 0 63.5 -26.5t26.5 -63.5t-26.5 -63.5t-63.5 -26.5t-63.5 26.5t-26.5 63.5t26.5 63.5t63.5 26.5zM168 1235q37 0 63.5 -26.5t26.5 -63.5t-26.5 -63.5t-63.5 -26.5t-63.5 26.5t-26.5 63.5t26.5 63.5t63.5 26.5z" />
    <glyph glyph-name="aring" unicode="&#xe5;" horiz-adv-x="811" 
d="M408 1319q76 0 131 -54.5t55 -131.5t-55 -132t-131 -55t-131.5 55t-55.5 132q0 76 55 131t132 55zM408 1270q-57 0 -97.5 -40t-40.5 -97t40.5 -97.5t97.5 -40.5t97 40.5t40 97.5t-40 97t-97 40zM231 635l-139 -68q-6 18 -6 29q0 36 47 92.5t120.5 101t135.5 44.5
q54 0 115 -27t100 -82q22 -30 26.5 -60t4.5 -116v-275q0 -132 7.5 -166t45.5 -34q47 0 100 45l11 -31q-139 -113 -203 -113q-86 0 -94 125q-97 -81 -143.5 -103t-94.5 -22q-88 0 -139 46t-51 122q0 45 18 79t54.5 56.5t74.5 37t94 28.5q86 20 183 78v162q0 35 -1.5 51.5
t-9 38t-24.5 41.5q-48 59 -115 59q-49 0 -88 -33t-39 -67q0 -16 10 -39zM498 137v244q-42 -25 -121 -57q-56 -23 -81 -35t-50 -30t-33 -39t-8 -52q0 -53 36.5 -87t84.5 -34q26 0 57.5 16t114.5 74z" />
    <glyph glyph-name="ae" unicode="&#xe6;" horiz-adv-x="1280" 
d="M1219 520h-572v-49q0 -131 27 -207q26 -81 97.5 -132.5t156.5 -51.5q70 0 124.5 28.5t118.5 96.5l25 -25q-174 -205 -344 -205q-179 0 -287 177q-69 -83 -153 -130t-156 -47q-77 0 -129.5 48t-52.5 118q0 33 7 58t25.5 44.5t36.5 32.5t55 26t64 21t80 21q93 24 172 76
v147q0 62 -7 89t-30 55q-49 59 -115 59q-55 0 -94 -32t-39 -76q0 -11 4 -25l3 -8l-136 -62q-8 12 -8 29q0 37 29 74t98 90q102 74 178 74q66 0 130 -34.5t96 -88.5q111 123 258 123q78 0 133.5 -20.5t86 -54.5t49 -68t36 -71t33.5 -53v-47zM653 573h394q-15 95 -71 158.5
t-120 63.5q-84 0 -154 -90q-38 -52 -49 -132zM514 145v234q-49 -36 -158 -70q-78 -25 -112.5 -53t-34.5 -86q0 -55 33 -89t86 -34q95 0 186 98z" />
    <glyph glyph-name="ccedilla" unicode="&#xe7;" horiz-adv-x="874" 
d="M770 207l31 -19q-65 -103 -150 -156.5t-200 -56.5l-45 -75q64 12 110.5 -37t46.5 -115q0 -73 -51 -124.5t-123 -51.5q-38 0 -88 16l14 29q27 -8 54 -8q44 0 76 30.5t32 73.5q0 34 -17.5 54t-47.5 20q-47 0 -131 -41l139 231q-67 3 -123 30.5t-92.5 68t-62.5 92t-37 103
t-11 100.5q0 192 138 327.5t333 135.5q97 0 163.5 -34t66.5 -83q0 -26 -17.5 -44t-42.5 -18q-27 0 -51.5 13t-43.5 31.5t-38.5 36.5t-46.5 31t-59 13q-106 0 -185.5 -108.5t-79.5 -255.5q0 -154 82.5 -255.5t206.5 -101.5q143 0 250 148z" />
    <glyph glyph-name="egrave" unicode="&#xe8;" horiz-adv-x="897" 
d="M608 999l-217 146q-75 51 -107 83.5t-32 61.5q0 26 17.5 43t45.5 17q64 0 131 -90l189 -261h-27zM831 520h-598q-8 -62 -8 -86q0 -155 93 -255.5t219 -100.5q76 0 138.5 32t121.5 101l22 -25q-73 -92 -166.5 -151.5t-197.5 -59.5q-151 0 -254 121t-103 299q0 82 27.5 160
t76.5 140.5t125.5 100.5t166.5 38q78 0 133.5 -20.5t85.5 -54.5t48.5 -68t36 -71t33.5 -53v-47zM240 573h419q-17 100 -72.5 161t-129.5 61q-29 0 -56.5 -8.5t-59 -30.5t-58 -69t-43.5 -114z" />
    <glyph glyph-name="eacute" unicode="&#xe9;" horiz-adv-x="897" 
d="M279 999h-27l188 261q67 90 131 90q28 0 46 -17t18 -43q0 -29 -32 -61.5t-107 -83.5zM831 520h-598q-8 -62 -8 -86q0 -155 93 -255.5t219 -100.5q76 0 138.5 32t121.5 101l22 -25q-73 -92 -166.5 -151.5t-197.5 -59.5q-151 0 -254 121t-103 299q0 82 27.5 160t76.5 140.5
t125.5 100.5t166.5 38q78 0 133.5 -20.5t85.5 -54.5t48.5 -68t36 -71t33.5 -53v-47zM240 573h419q-17 100 -72.5 161t-129.5 61q-29 0 -56.5 -8.5t-59 -30.5t-58 -69t-43.5 -114z" />
    <glyph glyph-name="ecircumflex" unicode="&#xea;" horiz-adv-x="897" 
d="M444 1251l-241 -256v35l221 369h57l217 -369v-35zM831 520h-598q-8 -62 -8 -86q0 -155 93 -255.5t219 -100.5q76 0 138.5 32t121.5 101l22 -25q-73 -92 -166.5 -151.5t-197.5 -59.5q-151 0 -254 121t-103 299q0 82 27.5 160t76.5 140.5t125.5 100.5t166.5 38
q78 0 133.5 -20.5t85.5 -54.5t48.5 -68t36 -71t33.5 -53v-47zM240 573h419q-17 100 -72.5 161t-129.5 61q-29 0 -56.5 -8.5t-59 -30.5t-58 -69t-43.5 -114z" />
    <glyph glyph-name="edieresis" unicode="&#xeb;" horiz-adv-x="897" 
d="M831 520h-598q-8 -62 -8 -86q0 -155 93 -255.5t219 -100.5q76 0 138.5 32t121.5 101l22 -25q-73 -92 -166.5 -151.5t-197.5 -59.5q-151 0 -254 121t-103 299q0 82 27.5 160t76.5 140.5t125.5 100.5t166.5 38q78 0 133.5 -20.5t85.5 -54.5t48.5 -68t36 -71t33.5 -53v-47z
M240 573h419q-17 100 -72.5 161t-129.5 61q-29 0 -56.5 -8.5t-59 -30.5t-58 -69t-43.5 -114zM649 1235q37 0 63.5 -26.5t26.5 -63.5t-26.5 -63.5t-63.5 -26.5t-63.5 26.5t-26.5 63.5t26.5 63.5t63.5 26.5zM252 1235q37 0 63.5 -26.5t26.5 -63.5t-26.5 -63.5t-63.5 -26.5
t-63.5 26.5t-26.5 63.5t26.5 63.5t63.5 26.5z" />
    <glyph glyph-name="igrave" unicode="&#xec;" horiz-adv-x="532" 
d="M426 999l-217 146q-75 51 -107 83.5t-32 61.5q0 26 17.5 43t45.5 17q64 0 131 -90l189 -261h-27zM344 844v-688q0 -117 148 -117v-39h-455v39q94 0 132 33.5t38 115.5v412q0 58 -11.5 75t-52.5 25l-96 19v33l266 92h31z" />
    <glyph glyph-name="iacute" unicode="&#xed;" horiz-adv-x="532" 
d="M96 999h-26l188 261q67 90 131 90q28 0 46 -17t18 -43q0 -29 -32.5 -61.5t-107.5 -83.5zM344 844v-688q0 -117 148 -117v-39h-455v39q94 0 132 33.5t38 115.5v412q0 58 -11.5 75t-52.5 25l-96 19v33l266 92h31z" />
    <glyph glyph-name="icircumflex" unicode="&#xee;" horiz-adv-x="532" 
d="M262 1251l-242 -256v35l222 369h57l217 -369v-35zM344 844v-688q0 -117 148 -117v-39h-455v39q94 0 132 33.5t38 115.5v412q0 58 -11.5 75t-52.5 25l-96 19v33l266 92h31z" />
    <glyph glyph-name="idieresis" unicode="&#xef;" horiz-adv-x="532" 
d="M467 1235q37 0 63.5 -26.5t26.5 -63.5t-26.5 -63.5t-63.5 -26.5t-63.5 26.5t-26.5 63.5t26.5 63.5t63.5 26.5zM70 1235q37 0 63.5 -26.5t26.5 -63.5t-26.5 -63.5t-63.5 -26.5t-63.5 26.5t-26.5 63.5t26.5 63.5t63.5 26.5zM344 844v-688q0 -117 148 -117v-39h-455v39
q94 0 132 33.5t38 115.5v412q0 58 -11.5 75t-52.5 25l-96 19v33l266 92h31z" />
    <glyph glyph-name="eth" unicode="&#xf0;" 
d="M246 469q0 -122 42.5 -224t117.5 -161t165 -59q104 0 185.5 90.5t81.5 236.5q0 176 -95 304t-229 128q-108 0 -188 -92t-80 -223zM895 1268l-238 -123q83 -71 147.5 -164.5t100 -185t53 -171.5t17.5 -143q0 -120 -32.5 -213.5t-80.5 -147t-110 -88t-113 -46t-98 -11.5
q-191 0 -320 122t-129 302q0 102 39 186.5t103 137.5t142 82t159 29q35 0 61.5 -3.5t70 -20.5t85.5 -50l4 4q-66 188 -203 328l-262 -136l-19 35l252 129q-92 89 -200 140l26 45q157 -42 273 -134l256 134z" />
    <glyph glyph-name="ntilde" unicode="&#xf1;" 
d="M281 1040h-23q0 112 44 171t122 59q59 0 145 -62q4 -3 18.5 -13t19.5 -13.5t17 -11t18.5 -10.5t16 -7.5t17.5 -6t16 -1.5q85 0 94 125h23q10 -97 -39.5 -162.5t-118.5 -65.5q-25 0 -53 11t-44.5 21.5t-47.5 31.5q-29 21 -44 31t-38.5 20t-42.5 10q-85 0 -100 -127z
M328 623v-445q0 -85 27 -112t110 -27v-39h-412v39q67 0 102 34t35 95v430q0 57 -10.5 75t-50.5 25l-70 15v32l236 86h33v-159q161 101 220 128q76 34 132 34q106 0 162.5 -78t56.5 -230q0 -120 -3.5 -201.5t-7.5 -130t-5 -73.5q-2 -42 25 -62t89 -20h45v-39h-440v39
q81 3 117 39q27 27 35 129.5t8 331.5q0 114 -46 164.5t-116 50.5q-84 0 -272 -131z" />
    <glyph glyph-name="ograve" unicode="&#xf2;" 
d="M692 999l-217 146q-75 51 -107 83.5t-32 61.5q0 26 17.5 43t45.5 17q64 0 131 -90l189 -261h-27zM92 399q0 102 39 186.5t103 137.5t142 82t159 29q187 0 313.5 -124t126.5 -307q0 -181 -125.5 -304.5t-308.5 -123.5q-191 0 -320 122t-129 302zM246 469q0 -186 92.5 -315
t224.5 -129q98 0 178 91t80 236q0 115 -42.5 214.5t-115.5 158.5t-157 59q-103 0 -181.5 -92.5t-78.5 -222.5z" />
    <glyph glyph-name="oacute" unicode="&#xf3;" 
d="M362 999h-26l188 261q67 90 131 90q28 0 46 -17t18 -43q0 -29 -32 -61.5t-107 -83.5zM92 399q0 102 39 186.5t103 137.5t142 82t159 29q187 0 313.5 -124t126.5 -307q0 -181 -125.5 -304.5t-308.5 -123.5q-191 0 -320 122t-129 302zM246 469q0 -186 92.5 -315t224.5 -129
q98 0 178 91t80 236q0 115 -42.5 214.5t-115.5 158.5t-157 59q-103 0 -181.5 -92.5t-78.5 -222.5z" />
    <glyph glyph-name="ocircumflex" unicode="&#xf4;" 
d="M528 1251l-241 -256v35l221 369h57l217 -369v-35zM92 399q0 102 39 186.5t103 137.5t142 82t159 29q187 0 313.5 -124t126.5 -307q0 -181 -125.5 -304.5t-308.5 -123.5q-191 0 -320 122t-129 302zM246 469q0 -186 92.5 -315t224.5 -129q98 0 178 91t80 236
q0 115 -42.5 214.5t-115.5 158.5t-157 59q-103 0 -181.5 -92.5t-78.5 -222.5z" />
    <glyph glyph-name="otilde" unicode="&#xf5;" 
d="M281 1040h-23q0 112 44 171t122 59q59 0 145 -62q4 -3 18.5 -13t19.5 -13.5t17 -11t18.5 -10.5t16 -7.5t17.5 -6t16 -1.5q85 0 94 125h23q10 -97 -39.5 -162.5t-118.5 -65.5q-25 0 -53 11t-44.5 21.5t-47.5 31.5q-29 21 -44 31t-38.5 20t-42.5 10q-85 0 -100 -127z
M92 399q0 102 39 186.5t103 137.5t142 82t159 29q187 0 313.5 -124t126.5 -307q0 -181 -125.5 -304.5t-308.5 -123.5q-191 0 -320 122t-129 302zM246 469q0 -186 92.5 -315t224.5 -129q98 0 178 91t80 236q0 115 -42.5 214.5t-115.5 158.5t-157 59q-103 0 -181.5 -92.5
t-78.5 -222.5z" />
    <glyph glyph-name="odieresis" unicode="&#xf6;" 
d="M92 399q0 102 39 186.5t103 137.5t142 82t159 29q187 0 313.5 -124t126.5 -307q0 -181 -125.5 -304.5t-308.5 -123.5q-191 0 -320 122t-129 302zM246 469q0 -186 92.5 -315t224.5 -129q98 0 178 91t80 236q0 115 -42.5 214.5t-115.5 158.5t-157 59q-103 0 -181.5 -92.5
t-78.5 -222.5zM733 1235q37 0 63.5 -26.5t26.5 -63.5t-26.5 -63.5t-63.5 -26.5t-63.5 26.5t-26.5 63.5t26.5 63.5t63.5 26.5zM336 1235q37 0 63.5 -26.5t26.5 -63.5t-26.5 -63.5t-63.5 -26.5t-63.5 26.5t-26.5 63.5t26.5 63.5t63.5 26.5z" />
    <glyph glyph-name="divide" unicode="&#xf7;" horiz-adv-x="1366" 
d="M145 700h1076v-90h-1076v90zM684 1141q26 0 46 -21t20 -47t-20 -45.5t-46 -19.5q-27 0 -47.5 19.5t-20.5 45.5t21 47t47 21zM684 303q26 0 46 -19.5t20 -45.5t-20 -47t-46 -21t-47 21t-21 47t20.5 45.5t47.5 19.5z" />
    <glyph glyph-name="oslash" unicode="&#xf8;" 
d="M807 745l117 132l28 -25l-116 -133q139 -129 139 -316q0 -98 -38 -181t-100.5 -136t-139.5 -82t-158 -29q-154 0 -277 88l-139 -159l-29 26l139 158q-141 123 -141 313q0 98 38 181t100.5 137t141 84.5t160.5 30.5q150 0 275 -89zM317 184l412 471q-93 129 -223 129
q-109 0 -184.5 -95.5t-75.5 -225.5q0 -154 71 -279zM750 621l-410 -469q30 -46 90 -86.5t131 -40.5q24 0 54.5 9t67.5 32.5t67 58.5t50.5 94.5t20.5 132.5q0 146 -71 269z" />
    <glyph glyph-name="ugrave" unicode="&#xf9;" 
d="M692 999l-217 146q-75 51 -107 83.5t-32 61.5q0 26 17.5 43t45.5 17q64 0 131 -90l189 -261h-27zM1018 96v-37l-275 -84v164q-228 -164 -348 -164q-84 0 -150.5 55.5t-66.5 153.5v455q0 38 -11.5 56.5t-43.5 27.5l-72 20v31l264 57v-573q0 -89 54.5 -136.5t130.5 -47.5
q109 0 243 112v441q0 61 -13 80t-62 28l-103 19v28l316 49v-690q0 -42 19.5 -53t74.5 0z" />
    <glyph glyph-name="uacute" unicode="&#xfa;" 
d="M362 999h-26l188 261q67 90 131 90q28 0 46 -17t18 -43q0 -29 -32 -61.5t-107 -83.5zM1018 96v-37l-275 -84v164q-228 -164 -348 -164q-84 0 -150.5 55.5t-66.5 153.5v455q0 38 -11.5 56.5t-43.5 27.5l-72 20v31l264 57v-573q0 -89 54.5 -136.5t130.5 -47.5
q109 0 243 112v441q0 61 -13 80t-62 28l-103 19v28l316 49v-690q0 -42 19.5 -53t74.5 0z" />
    <glyph glyph-name="ucircumflex" unicode="&#xfb;" 
d="M528 1251l-241 -256v35l221 369h57l217 -369v-35zM1018 96v-37l-275 -84v164q-228 -164 -348 -164q-84 0 -150.5 55.5t-66.5 153.5v455q0 38 -11.5 56.5t-43.5 27.5l-72 20v31l264 57v-573q0 -89 54.5 -136.5t130.5 -47.5q109 0 243 112v441q0 61 -13 80t-62 28l-103 19
v28l316 49v-690q0 -42 19.5 -53t74.5 0z" />
    <glyph glyph-name="udieresis" unicode="&#xfc;" 
d="M733 1235q37 0 63.5 -26.5t26.5 -63.5t-26.5 -63.5t-63.5 -26.5t-63.5 26.5t-26.5 63.5t26.5 63.5t63.5 26.5zM336 1235q37 0 63.5 -26.5t26.5 -63.5t-26.5 -63.5t-63.5 -26.5t-63.5 26.5t-26.5 63.5t26.5 63.5t63.5 26.5zM1018 96v-37l-275 -84v164q-228 -164 -348 -164
q-84 0 -150.5 55.5t-66.5 153.5v455q0 38 -11.5 56.5t-43.5 27.5l-72 20v31l264 57v-573q0 -89 54.5 -136.5t130.5 -47.5q109 0 243 112v441q0 61 -13 80t-62 28l-103 19v28l316 49v-690q0 -42 19.5 -53t74.5 0z" />
    <glyph glyph-name="yacute" unicode="&#xfd;" horiz-adv-x="960" 
d="M309 999h-26l188 261q67 90 131 90q28 0 46 -17t18 -43q0 -29 -32.5 -61.5t-107.5 -83.5zM535 150l174 434q23 58 28 94.5t-9.5 57.5t-41.5 28.5t-76 9.5v37h340v-37q-60 -7 -99.5 -47.5t-70.5 -116.5l-348 -868q-47 -118 -87.5 -168.5t-92.5 -50.5q-37 0 -60.5 20
t-23.5 51q0 29 20 46.5t45.5 23.5t57 17.5t47.5 27.5q40 40 70 117l61 154l-317 673q-30 65 -64.5 92.5t-97.5 28.5v37h411v-37q-91 -1 -111.5 -31t13.5 -94z" />
    <glyph glyph-name="thorn" unicode="&#xfe;" horiz-adv-x="1024" 
d="M307 1376v-698q109 81 182.5 115t135.5 34q120 0 211.5 -115t91.5 -266q0 -122 -59.5 -228t-160 -169t-214.5 -63q-77 0 -187 41v-332q0 -73 34.5 -103t102.5 -30h52v-39h-484v39h21q78 0 107.5 32t29.5 119v1452q0 43 -12 60.5t-54 21.5l-90 10v35l262 84h31zM307 627
v-463q56 -53 120.5 -84t121.5 -31q104 0 173 91.5t69 226.5q0 152 -77.5 256t-191.5 104q-98 0 -215 -100z" />
    <glyph glyph-name="ydieresis" unicode="&#xff;" horiz-adv-x="960" 
d="M680 1235q37 0 63.5 -26.5t26.5 -63.5t-26.5 -63.5t-63.5 -26.5t-63.5 26.5t-26.5 63.5t26.5 63.5t63.5 26.5zM283 1235q37 0 63.5 -26.5t26.5 -63.5t-26.5 -63.5t-63.5 -26.5t-63.5 26.5t-26.5 63.5t26.5 63.5t63.5 26.5zM535 150l174 434q23 58 28 94.5t-9.5 57.5
t-41.5 28.5t-76 9.5v37h340v-37q-60 -7 -99.5 -47.5t-70.5 -116.5l-348 -868q-47 -118 -87.5 -168.5t-92.5 -50.5q-37 0 -60.5 20t-23.5 51q0 29 20 46.5t45.5 23.5t57 17.5t47.5 27.5q40 40 70 117l61 154l-317 673q-30 65 -64.5 92.5t-97.5 28.5v37h411v-37
q-91 -1 -111.5 -31t13.5 -94z" />
    <glyph glyph-name="dotlessi" unicode="&#x131;" horiz-adv-x="532" 
d="M344 844v-688q0 -117 148 -117v-39h-455v39q94 0 132 33.5t38 115.5v412q0 58 -11.5 75t-52.5 25l-96 19v33l266 92h31z" />
    <glyph glyph-name="Lslash" unicode="&#x141;" horiz-adv-x="1130" 
d="M657 940l-249 -238v-552q0 -41 18.5 -58.5t62.5 -17.5h302q37 0 65 7.5t49.5 19t51 44t52 61.5t68.5 93h37l-158 -299h-915v39h68q72 0 100.5 29t28.5 106v391l-197 -188v88l197 188v428q0 85 -34 119.5t-128 34.5h-29v39h604v-39h-76q-104 0 -135.5 -24.5t-31.5 -116.5
v-303l249 237v-88z" />
    <glyph glyph-name="lslash" unicode="&#x142;" horiz-adv-x="491" 
d="M473 823l-154 -141v-520q0 -123 119 -123h35v-39h-461v39q96 0 133 31t37 106v404l-170 -158v82l170 158v503q0 45 -11 61.5t-52 20.5l-92 10v35l262 84h30v-612l154 141v-82z" />
    <glyph glyph-name="OE" unicode="&#x152;" horiz-adv-x="2027" 
d="M1757 850v-389h-39q-11 103 -40.5 132.5t-98.5 29.5h-332v-549h410q105 0 151.5 47.5t85.5 183.5h37l-33 -305h-817q-24 0 -92.5 -2.5t-87.5 -3.5q-136 -8 -151 -8q-90 0 -180.5 27.5t-171.5 83t-144 131.5t-100 180t-37 221q0 80 21 165t73 175t129 159.5t199.5 114.5
t273.5 45q47 0 191 -8q210 -6 221 -6h610l16 -285h-36q-10 68 -25 112t-35.5 64.5t-41 27.5t-50.5 7h-416v-504h352q57 0 84.5 33.5t34.5 120.5h39zM1077 319v693q0 111 -77 168t-214 57q-126 0 -221.5 -44t-153.5 -123t-87 -181.5t-29 -226.5q0 -177 68 -321t185 -224
t257 -80q33 0 65 5.5t71 23.5t68 47t48.5 82.5t19.5 123.5z" />
    <glyph glyph-name="oe" unicode="&#x153;" horiz-adv-x="1515" 
d="M1452 520h-555q-10 -198 73.5 -327.5t203.5 -129.5q52 0 104.5 34.5t136.5 111.5l21 -23q-92 -101 -178 -156t-175 -55q-144 0 -237 150q-112 -150 -311 -150q-188 0 -314.5 124.5t-126.5 308.5q0 178 127.5 302t308.5 124q92 0 169 -40t124 -112q66 80 137 116t162 36
q73 0 125.5 -19t82.5 -52t48.5 -66t37.5 -71.5t36 -58.5v-47zM901 573h363q0 105 -48.5 163.5t-123.5 58.5q-74 0 -136 -78q-45 -59 -55 -144zM772 354q0 189 -78 309.5t-200 120.5q-37 0 -79 -22t-80 -61t-62.5 -103.5t-24.5 -140.5q0 -93 28 -175.5t72.5 -137.5t98.5 -87
t106 -32q103 0 161 86.5t58 242.5z" />
    <glyph glyph-name="Scaron" unicode="&#x160;" horiz-adv-x="1003" 
d="M508 1579l242 256v-35l-222 -368h-57l-217 368v35zM90 311h39q32 -134 127.5 -211t218.5 -77q72 0 134.5 25.5t105.5 82t43 133.5q0 60 -36.5 115t-94.5 99.5t-128 89t-140 91t-128 96.5t-94.5 115t-36.5 138q0 128 104 212.5t261 84.5q74 0 128 -13t88.5 -26t61.5 -13
q21 0 37 21h33l35 -260h-35q-43 110 -133.5 175.5t-196.5 65.5q-102 0 -165.5 -53t-63.5 -139q0 -52 28 -100t74.5 -86t105.5 -78.5t120.5 -76t120.5 -80.5t105.5 -90.5t74.5 -106.5t28 -128q0 -151 -118.5 -250.5t-298.5 -99.5q-67 0 -174 28t-111 28q-26 0 -41 -23h-35z
" />
    <glyph glyph-name="scaron" unicode="&#x161;" horiz-adv-x="618" 
d="M315 1143l242 256v-35l-221 -369h-57l-218 369v35zM66 207h32q18 -91 71.5 -142t123.5 -51q61 0 103 40t42 96q0 34 -12.5 59t-52.5 65q-38 38 -87 73t-84.5 58t-68.5 50.5t-50 64t-17 84.5q0 102 72.5 166t189.5 64q80 0 164 -33l4 -187h-35q-10 77 -56 123.5t-108 46.5
q-52 0 -88.5 -32t-36.5 -82q0 -36 21 -68.5t54.5 -58t74.5 -51t81.5 -54t74 -60t54.5 -75t21 -94.5q0 -100 -73.5 -167t-180.5 -67q-47 0 -90 15q-46 12 -55 12q-19 0 -35 -25h-31z" />
    <glyph glyph-name="Ydieresis" unicode="&#x178;" horiz-adv-x="1449" 
d="M926 1671q37 0 63.5 -26.5t26.5 -63.5t-26.5 -63.5t-63.5 -26.5t-63.5 26.5t-26.5 63.5t26.5 63.5t63.5 26.5zM528 1671q37 0 63.5 -26.5t26.5 -63.5t-26.5 -63.5t-63.5 -26.5t-63.5 26.5t-26.5 63.5t26.5 63.5t63.5 26.5zM760 596l289 491q35 56 31 88.5t-36 46
t-100 13.5v39h463v-39q-98 -7 -154 -45.5t-102 -116.5l-340 -575v-308q0 -83 36 -117t128 -34h26v-39h-563v39h39q92 0 128 34.5t36 112.5v289l-365 569q-74 117 -126.5 152.5t-153.5 38.5v39h545v-39q-116 0 -137.5 -31.5t28.5 -101.5z" />
    <glyph glyph-name="Zcaron" unicode="&#x17d;" horiz-adv-x="1386" 
d="M698 1579l242 256v-35l-221 -368h-57l-218 368v35zM82 0v47l919 1153h-608q-100 0 -138 -42.5t-50 -172.5h-37l10 289h1055v-47l-926 -1153h725q23 0 42 2t35.5 8.5t29 12t24 19.5t19 24t16.5 32.5t14 37.5t13 46.5t12.5 52.5t13.5 62h37l-24 -371h-1182z" />
    <glyph glyph-name="zcaron" unicode="&#x17e;" horiz-adv-x="831" 
d="M422 1143l242 256v-35l-222 -369h-57l-217 369v35zM63 0v39l519 698h-281h-65q-33 0 -50 -30.5t-47 -127.5q-3 -8 -4 -12.5t-3.5 -12l-4.5 -13.5h-39l64 325h34q0 -34 19 -44.5t78 -10.5h487v-37l-516 -700h375q49 0 78 33.5t63 115.5h37l-84 -223h-660z" />
    <glyph glyph-name="florin" unicode="&#x192;" horiz-adv-x="1024" 
d="M412 743h-142l6 39q74 9 150 27q57 309 207 459q53 53 116.5 81.5t124.5 28.5q60 0 103 -29t43 -69q0 -25 -16 -42t-41 -17q-35 0 -95 42t-88 42q-59 0 -105.5 -61.5t-68.5 -164.5l-55 -268h176l-20 -68h-168l-105 -598q-23 -133 -65 -240.5t-92 -177.5t-110.5 -117
t-119.5 -67t-119 -20q-64 0 -110.5 28t-46.5 66q0 25 20.5 43t46.5 18q38 0 97 -45t98 -45q65 0 125 60q21 21 40 56.5t33 79.5t25.5 88t20.5 92.5t14.5 81.5t10 67t5.5 37z" />
    <glyph glyph-name="circumflex" unicode="&#x2c6;" horiz-adv-x="681" 
d="M336 1251l-242 -256v35l221 369h58l217 -369v-35z" />
    <glyph glyph-name="caron" unicode="&#x2c7;" horiz-adv-x="681" 
d="M346 1143l242 256v-35l-221 -369h-58l-217 369v35z" />
    <glyph glyph-name="uni02C9" unicode="&#x2c9;" horiz-adv-x="681" 
d="M59 1206h564v-119h-564v119z" />
    <glyph glyph-name="breve" unicode="&#x2d8;" horiz-adv-x="681" 
d="M61 1352h33q23 -92 86.5 -140.5t161.5 -48.5q97 0 160.5 48.5t85.5 140.5h33q-5 -138 -83.5 -229t-195.5 -91t-196.5 91t-84.5 229z" />
    <glyph glyph-name="dotaccent" unicode="&#x2d9;" horiz-adv-x="681" 
d="M342 1235q37 0 63.5 -26.5t26.5 -63.5t-26.5 -63.5t-63.5 -26.5t-63.5 26.5t-26.5 63.5t26.5 63.5t63.5 26.5z" />
    <glyph glyph-name="ring" unicode="&#x2da;" horiz-adv-x="681" 
d="M342 1319q76 0 131 -54.5t55 -131.5t-55 -132t-131 -55t-131 55t-55 132t55 131.5t131 54.5zM342 1270q-57 0 -97 -40t-40 -97t40 -97.5t97 -40.5t97 40.5t40 97.5t-40 97t-97 40z" />
    <glyph glyph-name="ogonek" unicode="&#x2db;" horiz-adv-x="681" 
d="M229 16h52q-27 -55 -27 -100q0 -65 36 -111.5t82.5 -65t94.5 -18.5q50 0 121 23l20 -31q-86 -47 -129 -61t-102 -14q-101 0 -165.5 51t-64.5 133q0 115 82 194z" />
    <glyph glyph-name="tilde" unicode="&#x2dc;" horiz-adv-x="681" 
d="M88 1040h-22q0 112 43.5 171t121.5 59q60 0 146 -62q4 -3 18.5 -13t19.5 -13.5t17 -11t18.5 -10.5t16 -7.5t17.5 -6t16 -1.5q85 0 94 125h22q10 -97 -39 -162.5t-118 -65.5q-25 0 -53 11t-45.5 21.5t-47.5 31.5q-29 21 -44 31t-38.5 20t-42.5 10q-85 0 -100 -127z" />
    <glyph glyph-name="hungarumlaut" unicode="&#x2dd;" horiz-adv-x="681" 
d="M303 999h-27l189 261q67 90 131 90q28 0 45.5 -17t17.5 -43q0 -29 -32 -61.5t-107 -83.5zM14 999h-26l188 261q67 90 131 90q28 0 46 -17t18 -43q0 -29 -32.5 -61.5t-107.5 -83.5z" />
    <glyph glyph-name="uni03A9" unicode="&#x3a9;" horiz-adv-x="1312" 
d="M1249 250l-43 -250h-418l-10 33q10 19 54.5 98t68.5 128.5t57 129.5t49 159.5t15 158.5q-1 116 -22 209.5t-56 155t-82.5 102.5t-99.5 59t-109 18q-61 0 -114 -18.5t-99.5 -61t-79.5 -105.5t-52 -157t-19 -211t41 -247t76 -197.5t107 -190.5q11 -20 17 -30l-14 -33h-414
l-41 250l41 2q28 -89 55.5 -116t82.5 -27h194q-43 40 -75 73.5t-78 94.5t-75.5 120.5t-51 143t-21.5 170.5q0 266 150 430t374 164q230 0 375.5 -156.5t145.5 -423.5q0 -77 -20.5 -155t-49.5 -138.5t-74.5 -125t-81 -106t-82.5 -91.5h199q60 0 84 24t53 119z" />
    <glyph glyph-name="uni03BC" unicode="&#x3bc;" horiz-adv-x="1024" 
d="M117 811h137v-442q0 -159 35.5 -222t130.5 -63q76 0 138 33t128 110v584h137v-616q0 -53 20.5 -84t49.5 -31q62 0 80 123h43q-5 -104 -52.5 -168t-123.5 -64q-64 0 -108.5 51.5t-45.5 139.5q-96 -96 -176.5 -143.5t-163.5 -47.5q-53 0 -87 18.5t-69 67.5
q-9 -85 18.5 -215.5t27.5 -175.5q0 -44 -27.5 -76t-65.5 -32q-39 0 -63.5 29.5t-24.5 78.5q0 39 31 167t31 241v737z" />
    <glyph glyph-name="pi" unicode="&#x3c0;" horiz-adv-x="1015" 
d="M922 877l41 -17q-22 -92 -64 -149q-43 -9 -127 -9q-8 -90 -8 -456q0 -86 19 -129t63 -43q28 0 47.5 14t46.5 47l25 -35q-33 -62 -81.5 -92.5t-99.5 -30.5q-74 0 -113.5 52.5t-39.5 183.5q0 152 18 494q-218 4 -297 4v-39q0 -149 -14.5 -276.5t-36 -205t-39.5 -121.5
t-31 -59q-62 -30 -102 -33l-12 29q64 79 105 216.5t54 257t13 233.5q-46 1 -79.5 -4t-65 -21.5t-44 -24.5t-49.5 -36l-24 35q3 4 10 12q26 32 44.5 50.5t55 45t85 39.5t108.5 12q31 0 105.5 -1t117.5 -1q164 -4 258 -4q43 0 66 12t45 50z" />
    <glyph glyph-name="uni2010" unicode="&#x2010;" horiz-adv-x="811" 
d="M72 453h667v-103h-667v103z" />
    <glyph glyph-name="figuredash" unicode="&#x2012;" horiz-adv-x="1024" 
d="M168 559h690v-92h-690v92z" />
    <glyph glyph-name="endash" unicode="&#x2013;" horiz-adv-x="1024" 
d="M-12 555h1048v-90h-1048v90z" />
    <glyph glyph-name="emdash" unicode="&#x2014;" horiz-adv-x="2048" 
d="M-12 555h2072v-90h-2072v90z" />
    <glyph glyph-name="quoteleft" unicode="&#x2018;" horiz-adv-x="532" 
d="M367 1352l14 -37q-158 -91 -158 -205q0 -43 29 -43q8 0 22.5 3t26.5 3q40 0 66 -26t26 -66q0 -41 -32 -70.5t-78 -29.5q-62 0 -103 48.5t-41 121.5q0 95 63.5 179t164.5 122z" />
    <glyph glyph-name="quoteright" unicode="&#x2019;" horiz-adv-x="532" 
d="M166 881l-14 37q157 91 157 204q0 43 -28 43q-8 0 -23 -3t-27 -3q-40 0 -66 26t-26 66q0 41 32.5 71t78.5 30q62 0 102.5 -48.5t40.5 -121.5q0 -95 -63 -179t-164 -122z" />
    <glyph glyph-name="quotesinglbase" unicode="&#x201a;" horiz-adv-x="532" 
d="M166 -303l-14 37q157 91 157 205q0 43 -28 43q-4 0 -12 -1t-11 -1q-20 -5 -27 -5q-40 0 -66 26.5t-26 66.5q0 41 32.5 70.5t78.5 29.5q62 0 102.5 -48.5t40.5 -121.5q0 -95 -63 -179t-164 -122z" />
    <glyph glyph-name="quotedblleft" unicode="&#x201c;" horiz-adv-x="980" 
d="M815 1352l14 -37q-157 -91 -157 -205q0 -43 28 -43q8 0 23 3t27 3q40 0 66 -26t26 -66q0 -41 -32.5 -70.5t-78.5 -29.5q-62 0 -102.5 48.5t-40.5 121.5q0 95 63 179t164 122zM350 1352l15 -37q-158 -91 -158 -205q0 -43 29 -43q8 0 22.5 3t26.5 3q40 0 66 -26t26 -66
q0 -41 -32.5 -70.5t-78.5 -29.5q-62 0 -102.5 48.5t-40.5 121.5q0 95 63 179t164 122z" />
    <glyph glyph-name="quotedblright" unicode="&#x201d;" horiz-adv-x="980" 
d="M631 881l-15 37q158 91 158 204q0 43 -29 43q-8 0 -22.5 -3t-26.5 -3q-40 0 -66 26t-26 66q0 41 32.5 71t78.5 30q62 0 102.5 -48.5t40.5 -121.5q0 -95 -63 -179t-164 -122zM166 881l-14 37q157 91 157 204q0 43 -28 43q-8 0 -23 -3t-27 -3q-40 0 -66 26t-26 66
q0 41 32.5 71t78.5 30q62 0 102.5 -48.5t40.5 -121.5q0 -95 -63 -179t-164 -122z" />
    <glyph glyph-name="quotedblbase" unicode="&#x201e;" horiz-adv-x="980" 
d="M631 -303l-15 37q158 91 158 205q0 43 -29 43q-4 0 -11.5 -1t-10.5 -1q-20 -5 -27 -5q-40 0 -66 26.5t-26 66.5q0 41 32.5 70.5t78.5 29.5q62 0 102.5 -48.5t40.5 -121.5q0 -95 -63 -179t-164 -122zM166 -303l-14 37q157 91 157 205q0 43 -28 43q-4 0 -12 -1t-11 -1
q-20 -5 -27 -5q-40 0 -66 26.5t-26 66.5q0 41 32.5 70.5t78.5 29.5q62 0 102.5 -48.5t40.5 -121.5q0 -95 -63 -179t-164 -122z" />
    <glyph glyph-name="dagger" unicode="&#x2020;" horiz-adv-x="1024" 
d="M479 764l-385 -53q-21 -3 -30 6t-9 37v100q0 22 8 31.5t21 7.5l395 -57l-57 456q-6 39 33 39h92q40 0 49 -6.5t6 -30.5l-55 -458l385 55q24 3 31.5 -6.5t7.5 -42.5v-84q0 -28 -7.5 -38.5t-21.5 -8.5l-395 53l65 -1163q1 -25 -5 -33t-21 -8h-137q-22 0 -29 8.5t-6 34.5z
" />
    <glyph glyph-name="daggerdbl" unicode="&#x2021;" 
d="M610 449l-39 -383l369 51q29 4 40 -4.5t11 -36.5v-88q0 -33 -7.5 -42.5t-29.5 -6.5l-383 53l52 -379q3 -25 -6 -36t-33 -11h-99q-27 0 -35 10t-4 39l52 377l-381 -53q-41 -6 -41 36v101q0 28 11 36t36 5l375 -51l-39 383l39 382l-375 -51q-25 -3 -36 5t-11 36v101
q0 42 41 36l381 -53l-52 377q-4 29 4 39t35 10h99q24 0 33 -11t6 -36l-52 -379l383 53q22 3 29.5 -6.5t7.5 -42.5v-88q0 -28 -11 -36.5t-40 -4.5l-369 51z" />
    <glyph glyph-name="bullet" unicode="&#x2022;" horiz-adv-x="724" 
d="M365 889q104 0 176.5 -73t72.5 -177q0 -105 -72.5 -178.5t-176.5 -73.5t-178 74t-74 178t74 177t178 73z" />
    <glyph glyph-name="onedotenleader" unicode="&#x2024;" horiz-adv-x="1024" 
d="M406 72q0 42 30 69t76 27q44 0 74 -27.5t30 -68.5q0 -42 -29.5 -69.5t-74.5 -27.5t-75.5 27.5t-30.5 69.5z" />
    <glyph glyph-name="twodotenleader" unicode="&#x2025;" horiz-adv-x="1024" 
d="M150 72q0 42 29.5 69t74.5 27q46 0 76 -27.5t30 -68.5q0 -43 -30 -70t-76 -27q-43 0 -73.5 27.5t-30.5 69.5zM662 72q0 42 30 69t76 27q44 0 74 -27.5t30 -68.5q0 -42 -29.5 -69.5t-74.5 -27.5t-75.5 27.5t-30.5 69.5z" />
    <glyph glyph-name="ellipsis" unicode="&#x2026;" horiz-adv-x="2048" 
d="M1706 168q44 0 74 -26.5t30 -69.5q0 -44 -30 -70.5t-74 -26.5q-45 0 -74.5 27.5t-29.5 69.5t29.5 69t74.5 27zM1024 168q44 0 74 -26.5t30 -69.5q0 -44 -30 -70.5t-74 -26.5q-45 0 -74.5 27.5t-29.5 69.5t29.5 69t74.5 27zM342 168q44 0 74 -26.5t30 -69.5
q0 -44 -30 -70.5t-74 -26.5q-45 0 -74.5 27.5t-29.5 69.5t29.5 69t74.5 27z" />
    <glyph glyph-name="perthousand" unicode="&#x2030;" horiz-adv-x="2048" 
d="M33 958q0 146 76 246.5t186 100.5t187 -100.5t77 -246.5t-76.5 -246t-187.5 -100q-110 0 -186 100t-76 246zM147 958q0 -315 148 -315q149 0 149 315q0 316 -149 316q-148 0 -148 -316zM1487 332q0 146 76 246t186 100q111 0 187.5 -100t76.5 -246t-76.5 -246
t-187.5 -100q-110 0 -186 100t-76 246zM1602 332q0 -316 147 -316q149 0 149 316q0 315 -149 315q-75 0 -111 -77.5t-36 -237.5zM860 332q0 146 76 246t186 100q111 0 187.5 -100t76.5 -246t-76.5 -246t-187.5 -100q-110 0 -186 100t-76 246zM975 332q0 -316 147 -316
q150 0 150 316q0 315 -150 315q-75 0 -111 -77.5t-36 -237.5zM256 -55h-86l995 1394h84z" />
    <glyph glyph-name="guilsinglleft" unicode="&#x2039;" horiz-adv-x="468" 
d="M213 449l195 -377h-37l-301 377l301 376h37z" />
    <glyph glyph-name="guilsinglright" unicode="&#x203a;" horiz-adv-x="468" 
d="M256 449l-195 376h37l301 -376l-301 -377h-37z" />
    <glyph glyph-name="fraction" unicode="&#x2044;" horiz-adv-x="235" 
d="M-338 -55h-84l995 1394h84z" />
    <glyph glyph-name="zero.superior" unicode="&#x2070;" horiz-adv-x="618" 
d="M47 1171q0 149 78 248t186 99t185 -100.5t77 -246.5t-76.5 -246t-187.5 -100q-107 0 -184.5 99t-77.5 247zM162 1171q0 -154 34.5 -234.5t114.5 -80.5q148 0 148 315q0 316 -148 316q-80 0 -114.5 -81t-34.5 -235z" />
    <glyph glyph-name="four.superior" unicode="&#x2074;" horiz-adv-x="618" 
d="M354 1030h-309v31l361 459h53v-424h121v-66h-121v-205h-105v205zM131 1096h223v284z" />
    <glyph glyph-name="five.superior" unicode="&#x2075;" horiz-adv-x="618" 
d="M494 1518l-17 -95h-303l-8 -168q20 9 57 17q40 4 60 4q106 0 182 -66t76 -155q0 -97 -84.5 -163.5t-208.5 -66.5q-64 0 -126.5 19t-62.5 53q0 15 15.5 27t36.5 12q37 0 86 -39q39 -35 77 -35q53 0 102.5 46t49.5 124q0 44 -17.5 77t-44.5 50t-53.5 25t-50.5 8
q-70 0 -127 -41l-24 14l16 338h268q32 0 41 2.5t15 12.5h45z" />
    <glyph glyph-name="six.superior" unicode="&#x2076;" horiz-adv-x="618" 
d="M487 1520l23 -27q-52 -18 -91 -37t-88 -53.5t-83.5 -87.5t-50.5 -121q78 47 153 47q98 0 163 -60t65 -139q0 -84 -71 -150.5t-177 -66.5q-109 0 -186.5 74.5t-77.5 204.5q0 154 116 262.5t305 153.5zM184 1145q0 -2 -2 -21.5t-2 -40.5q0 -113 43.5 -170t108.5 -57
t98 50.5t33 125.5q0 79 -35.5 125.5t-93.5 46.5q-60 0 -150 -59z" />
    <glyph glyph-name="seven.superior" unicode="&#x2077;" horiz-adv-x="618" 
d="M260 825h-90l291 596h-324q-24 0 -32.5 -11t-14.5 -50h-43l8 141h504z" />
    <glyph glyph-name="eight.superior" unicode="&#x2078;" horiz-adv-x="618" 
d="M227 1174q-29 13 -47 23t-47.5 31t-45 50t-15.5 63q0 70 66.5 123.5t166.5 53.5q93 0 161.5 -46t68.5 -112q0 -96 -150 -152q28 -12 45 -20t44 -25.5t43 -35t28 -45t12 -58.5q0 -81 -70 -140t-180 -59q-99 0 -172.5 51t-73.5 128q0 106 166 170zM346 1225q24 15 39.5 27
t33 42t17.5 68q0 50 -35.5 87.5t-97.5 37.5q-55 0 -96 -31t-41 -80q0 -50 38.5 -79t141.5 -72zM274 1157q-25 -15 -38.5 -24t-34 -27.5t-30 -43.5t-9.5 -56q0 -65 41.5 -107.5t105.5 -42.5q62 0 105 39t43 98q0 47 -38 84t-145 80z" />
    <glyph glyph-name="nine.superior" unicode="&#x2079;" horiz-adv-x="618" 
d="M141 825l-22 27q59 21 105.5 44.5t78 50t53 49.5t37 53.5t23 50.5t16.5 51q-26 -15 -42 -23t-46.5 -16t-64.5 -8q-98 0 -163 60t-65 139q0 85 71.5 151t176.5 66q108 0 186 -74.5t78 -204.5q0 -155 -116.5 -263t-305.5 -153zM442 1200q7 35 7 78q0 24 -6 54t-20.5 68
t-47 63.5t-78.5 25.5q-68 0 -99.5 -51.5t-31.5 -122.5q0 -82 36 -128t93 -46q64 0 147 59z" />
    <glyph glyph-name="parenleft.superior" unicode="&#x207d;" horiz-adv-x="405" 
d="M350 1382l51 -41q-38 -38 -86 -110q-66 -106 -91 -196t-25 -201q0 -88 15 -164t60 -160q61 -116 127 -184l-51 -41q-248 251 -248 549q0 297 248 548z" />
    <glyph glyph-name="parenright.superior" unicode="&#x207e;" horiz-adv-x="405" 
d="M55 285l-51 43q38 38 86 110q68 110 92.5 200.5t24.5 195.5q0 87 -15.5 163t-60.5 160q-60 115 -127 184l51 41q77 -77 146 -186q102 -168 102 -362q0 -126 -37 -226t-112 -207q-42 -59 -99 -116z" />
    <glyph glyph-name="n.superior" unicode="&#x207f;" horiz-adv-x="661" 
d="M205 1051v-90q156 90 213 90q147 0 147 -211q0 -17 -5 -108.5t-5 -104.5q0 -29 20 -35t91 -6v-35h-304v33q53 5 71.5 11.5t25.5 29.5q14 49 14 235q0 129 -102 129q-29 0 -61 -14.5t-105 -56.5v-211q0 -83 14 -102t80 -19v-35h-283v35q68 0 82.5 22.5t14.5 98.5v157
q0 78 -4 86q-8 8 -48 17l-41 6v24l154 54h31z" />
    <glyph glyph-name="zero.inferior" unicode="&#x2080;" horiz-adv-x="618" 
d="M47 104q0 149 78 248t186 99t185 -100.5t77 -246.5t-76.5 -246t-187.5 -100q-107 0 -184.5 99t-77.5 247zM162 104q0 -154 34.5 -234.5t114.5 -80.5q148 0 148 315q0 316 -148 316q-80 0 -114.5 -81t-34.5 -235z" />
    <glyph glyph-name="one.inferior" unicode="&#x2081;" horiz-adv-x="618" 
d="M313 451h62v-605q0 -24 8 -32.5t29 -8.5h75v-32h-327v32h67q29 0 36 7.5t7 33.5v496q-81 -51 -145 -78l-16 27q48 29 109 75.5t95 84.5z" />
    <glyph glyph-name="two.inferior" unicode="&#x2082;" horiz-adv-x="618" 
d="M16 -227v24q42 46 230 209q155 134 155 240q0 60 -44 96.5t-103 36.5q-21 0 -44 -6t-50 -20t-50 -44t-36 -71h-43q9 74 53 125t96 70.5t109 19.5q95 0 164 -53.5t69 -137.5q0 -110 -125 -201q-139 -95 -209 -157l-61 -54h260q70 0 87.5 11.5t29.5 70.5h43l-25 -159h-506z
" />
    <glyph glyph-name="three.inferior" unicode="&#x2083;" horiz-adv-x="618" 
d="M205 86l-23 29q16 9 36 23.5t54 41.5t56 58t22 57q0 42 -32.5 66t-71.5 24q-11 0 -23 -2t-37 -10.5t-50.5 -32.5t-45.5 -61l-43 14q25 56 68 93t85 51t85 14q71 0 120.5 -34.5t49.5 -88.5q0 -70 -109 -142q93 -10 136.5 -62t43.5 -116q0 -96 -95 -173t-224 -77
q-69 0 -131 23t-62 57q0 18 15 30.5t34 12.5q20 0 36 -8.5t59 -38.5q46 -29 73 -34q9 -1 19 -1q61 0 111.5 53t50.5 130q0 68 -38 103.5t-81 35.5q-38 0 -88 -35z" />
    <glyph glyph-name="four.inferior" unicode="&#x2084;" horiz-adv-x="618" 
d="M354 -37h-309v31l361 459h53v-424h121v-66h-121v-205h-105v205zM131 29h223v284z" />
    <glyph glyph-name="five.inferior" unicode="&#x2085;" horiz-adv-x="618" 
d="M496 451l-17 -95h-305l-8 -168q58 21 117 21q107 0 183.5 -66t76.5 -155q0 -97 -84.5 -163.5t-210.5 -66.5q-64 0 -126.5 19t-62.5 53q0 19 15.5 29t36.5 10q34 0 86 -39q39 -35 77 -35q56 0 105 46.5t49 123.5q0 43 -17.5 76t-44.5 50.5t-54 25.5t-52 8q-61 0 -127 -41
l-24 14l16 338h303q17 0 23 15h45z" />
    <glyph glyph-name="six.inferior" unicode="&#x2086;" horiz-adv-x="618" 
d="M487 453l23 -27q-52 -18 -91 -37t-88 -53.5t-83.5 -87.5t-50.5 -121q78 47 153 47q98 0 163 -60t65 -139q0 -84 -71 -150.5t-177 -66.5q-109 0 -186.5 74.5t-77.5 204.5q0 154 116 262.5t305 153.5zM184 78q0 -2 -2 -21.5t-2 -40.5q0 -113 43.5 -170t108.5 -57t98 50.5
t33 125.5q0 79 -35.5 125.5t-93.5 46.5q-60 0 -150 -59z" />
    <glyph glyph-name="seven.inferior" unicode="&#x2087;" horiz-adv-x="618" 
d="M260 -240h-90l291 596h-289q-62 0 -68 -10q-5 -8 -14 -51h-43l8 141h504v-28z" />
    <glyph glyph-name="eight.inferior" unicode="&#x2088;" horiz-adv-x="618" 
d="M227 106l-37 19q-52 24 -85 62t-33 87q0 70 66.5 123.5t166.5 53.5q93 0 161.5 -46t68.5 -112q0 -95 -150 -152l43 -20q51 -23 90 -63.5t39 -100.5q0 -81 -70 -140t-180 -59q-99 0 -172.5 51t-73.5 128q0 35 16.5 64.5t46.5 50t51.5 31.5t51.5 23zM309 -211q62 0 105 39
t43 98q0 24 -7 41.5t-16.5 30t-37 29t-48.5 27t-72 34.5q-114 -50 -114 -149q0 -65 41.5 -107.5t105.5 -42.5zM166 309q0 -49 34 -75.5t132 -70.5q8 -3 12 -5q92 53 92 137q0 50 -35.5 87.5t-97.5 37.5q-55 0 -96 -31t-41 -80z" />
    <glyph glyph-name="nine.inferior" unicode="&#x2089;" horiz-adv-x="618" 
d="M141 -242l-22 27q59 21 105.5 44.5t78 50t53 49.5t37 53.5t23 50.5t16.5 51q-26 -15 -42 -23t-46.5 -16t-64.5 -8q-98 0 -163 60t-65 139q0 85 71.5 151t176.5 66q108 0 186 -74.5t78 -204.5q0 -155 -116.5 -263t-305.5 -153zM442 133q7 35 7 78q0 24 -6 54t-20.5 68
t-47 63.5t-78.5 25.5q-68 0 -99.5 -51.5t-31.5 -122.5q0 -82 36 -128t93 -46q64 0 147 59z" />
    <glyph glyph-name="parenleft.inferior" unicode="&#x208d;" horiz-adv-x="405" 
d="M350 809l51 -41q-67 -67 -127 -180q-73 -143 -73 -320q0 -86 15 -160t60 -157q58 -115 125 -180l-51 -41q-76 73 -145 188q-101 162 -101 350q0 80 20 158.5t47.5 135.5t65 111.5t63 83t50.5 52.5z" />
    <glyph glyph-name="parenright.inferior" unicode="&#x208e;" horiz-adv-x="405" 
d="M55 -270l-51 41q70 70 125 180q76 139 76 317q0 85 -15.5 160.5t-60.5 159.5q-55 110 -125 180l51 41q78 -75 146 -188q100 -163 100 -353q0 -191 -102 -354q-18 -31 -57.5 -85.5t-86.5 -98.5z" />
    <glyph glyph-name="colonmonetary" unicode="&#x20a1;" horiz-adv-x="1492" 
d="M463 45l-78 -254h-47l84 277q-37 21 -71.5 47t-81.5 75.5t-81 106.5t-58 142t-24 179q0 132 47.5 252.5t134.5 215t219.5 153t291.5 64.5l71 239h50l-74 -237q132 0 250 -33l82 270h49l-86 -282q7 -2 38.5 -13t41.5 -14q36 -12 55 -12q18 0 33 12h32l19 -295h-39
q-56 155 -203 246l-350 -1151q50 -10 109 -10q68 0 129.5 13t106.5 32t86.5 49.5t66.5 54.5t51 57.5t36 49.5t23 40h39q-20 -70 -58.5 -155.5t-72.5 -143.5q-30 5 -41 5q-32 0 -57.5 -4.5t-120.5 -26.5q-165 -36 -317 -25l-54 -178h-49l55 184q-105 11 -237 70zM831 1255
l-329 -1083q108 -96 221 -127l352 1161q-107 53 -244 49zM465 209l317 1042q-106 -15 -190 -56.5t-138 -99t-89.5 -131t-50.5 -148t-15 -154.5q0 -146 43.5 -254t122.5 -199z" />
    <glyph glyph-name="Euro" unicode="&#x20ac;" horiz-adv-x="1024" 
d="M1042 244l31 -27q-55 -79 -111.5 -131.5t-108.5 -75.5t-89.5 -31t-79.5 -8q-66 0 -130 19t-127 63t-112.5 108t-84 162t-44.5 218h-114l10 53h100q0 55 4 98h-114l10 53h108q20 155 85 280.5t175 202.5t246 77q53 0 103.5 -13t75 -24t77.5 -37q21 -8 33 -8l27 12h20
l12 -291h-38q-7 25 -13 43t-20.5 52.5t-29.5 59.5t-40.5 55.5t-54 50t-69 33t-85.5 13.5q-143 0 -239.5 -129.5t-116.5 -376.5h625l-11 -53h-618q0 -69 2 -98h596l-10 -53h-582q22 -216 127 -352t254 -136q154 0 321 191z" />
    <glyph glyph-name="afii61289" unicode="&#x2113;" horiz-adv-x="729" 
d="M662 199l32 -29q-101 -195 -288 -195q-119 0 -179 72q-31 42 -45 101t-14 167v162l-109 -84l-22 39l131 109v235q0 241 17.5 339.5t76.5 166.5q64 82 146 82q74 0 114.5 -70t40.5 -174q0 -154 -71 -288.5t-195 -266.5v-182q0 -177 41.5 -246t124.5 -69q112 0 199 131z
M297 889v-244q82 99 132 227t50 248q0 85 -22.5 137t-65.5 52q-52 0 -73 -95t-21 -325z" />
    <glyph glyph-name="trademark" unicode="&#x2122;" horiz-adv-x="2004" 
d="M51 1356h729l23 -201h-35q-12 78 -55 109.5t-138 31.5h-71v-581q0 -82 17.5 -104.5t84.5 -26.5v-35h-375v35q48 5 67.5 15t27.5 34.5t8 81.5v581h-80q-92 0 -132.5 -30.5t-55.5 -110.5h-35zM1159 1356l273 -574l264 574h278v-37q-72 -1 -90 -24.5t-18 -112.5v-467
q0 -85 17 -105.5t91 -25.5v-35h-399v35q77 2 99 25t22 106v491h-4l-303 -657h-33l-305 649h-4v-483q0 -82 18 -106.5t78 -24.5h37v-35h-310v35q74 0 94.5 23.5t20.5 107.5v467q0 91 -19.5 114t-95.5 23v37h289z" />
    <glyph glyph-name="Omega" unicode="&#x2126;" horiz-adv-x="1312" 
d="M1249 250l-43 -250h-418l-10 33q10 19 54.5 98t68.5 128.5t57 129.5t49 159.5t15 158.5q-1 116 -22 209.5t-56 155t-82.5 102.5t-99.5 59t-109 18q-61 0 -114 -18.5t-99.5 -61t-79.5 -105.5t-52 -157t-19 -211t41 -247t76 -197.5t107 -190.5q11 -20 17 -30l-14 -33h-414
l-41 250l41 2q28 -89 55.5 -116t82.5 -27h194q-43 40 -75 73.5t-78 94.5t-75.5 120.5t-51 143t-21.5 170.5q0 266 150 430t374 164q230 0 375.5 -156.5t145.5 -423.5q0 -77 -20.5 -155t-49.5 -138.5t-74.5 -125t-81 -106t-82.5 -91.5h199q60 0 84 24t53 119z" />
    <glyph glyph-name="estimated" unicode="&#x212e;" horiz-adv-x="1605" 
d="M1540 618h-1196q-10 0 -10 -8v-362q0 -22 16 -41q88 -93 205 -145t248 -52q139 0 263 58.5t214 160.5h104q-100 -119 -253.5 -187.5t-329.5 -68.5q-201 0 -371.5 89t-269.5 242t-99 333q0 135 58.5 258.5t158 212.5t236.5 142t287 53q202 0 372 -89.5t268.5 -242.5
t98.5 -334v-19zM1270 666v364q0 24 -19 43q-90 89 -205.5 139t-242.5 50q-129 0 -246 -52t-205 -143q-18 -18 -18 -45v-356q0 -4 3 -8.5t7 -4.5h918q8 0 8 13z" />
    <glyph glyph-name="onethird" unicode="&#x2153;" horiz-adv-x="1472" 
d="M283 -53h-86l995 1390h86zM1059 313l-25 29q168 105 168 180q0 42 -32.5 66t-71.5 24q-11 0 -22.5 -2t-36.5 -10.5t-51 -32.5t-46 -61l-43 14q38 82 104.5 120t133.5 38q71 0 120.5 -34.5t49.5 -88.5q0 -73 -107 -141q85 -7 132.5 -58t47.5 -120q0 -96 -95 -173t-224 -77
q-70 0 -131.5 22.5t-61.5 57.5q0 19 16.5 31t33.5 12q19 0 34 -8t60 -40q53 -34 92 -34q61 0 111.5 53t50.5 129q0 68 -38 103.5t-81 35.5q-44 0 -88 -35zM313 1305h62v-605q0 -24 8 -32.5t29 -8.5h75v-32h-327v32h67q29 0 36 7.5t7 33.5v496q-81 -51 -145 -78l-16 27
q48 29 109 75.5t95 84.5z" />
    <glyph glyph-name="twothirds" unicode="&#x2154;" horiz-adv-x="1472" 
d="M281 -53h-84l993 1392h86zM18 627v24q42 46 228 209q155 134 155 240q0 60 -44 96.5t-103 36.5q-30 0 -61 -10t-66.5 -44t-52.5 -87h-41q11 105 86 160t170 55t164 -53.5t69 -137.5q0 -33 -9.5 -61t-22.5 -48.5t-42.5 -47t-52 -43.5t-69.5 -50q-106 -76 -199 -161h260
q71 0 88 11t29 70h43l-25 -159h-504zM1057 313l-23 29q168 105 168 180q0 42 -32.5 66t-71.5 24q-11 0 -23 -2t-37 -10.5t-50.5 -32.5t-45.5 -61l-43 14q38 82 104.5 120t133.5 38q71 0 120.5 -34.5t49.5 -88.5q0 -74 -109 -141q85 -7 132.5 -58t47.5 -120q0 -96 -95 -173
t-224 -77q-69 0 -131 23t-62 57q0 19 16.5 31t35.5 12q18 0 32.5 -8t59.5 -40q53 -34 92 -34q61 0 111.5 53t50.5 129q0 68 -38 103.5t-81 35.5q-44 0 -88 -35z" />
    <glyph glyph-name="oneeighth" unicode="&#x215b;" horiz-adv-x="1472" 
d="M1081 334q-29 13 -47.5 23.5t-47.5 31.5t-44.5 50t-15.5 63q0 70 66.5 123t166.5 53q93 0 161.5 -46t68.5 -112q0 -95 -150 -151q35 -15 57.5 -27t52.5 -34.5t46 -54t16 -69.5q0 -81 -70 -139.5t-180 -58.5q-99 0 -172.5 50.5t-73.5 127.5q0 106 166 170zM1200 385
q24 15 39.5 27t33 42t17.5 68q0 50 -35.5 87.5t-97.5 37.5q-55 0 -96 -31t-41 -81q0 -49 40 -79t140 -71zM1128 317q-25 -15 -38.5 -24t-34 -27.5t-30 -43.5t-9.5 -56q0 -65 41.5 -107.5t105.5 -42.5q61 0 104.5 39t43.5 99q0 47 -37.5 83.5t-145.5 79.5zM283 -55h-86
l995 1392h84zM313 1305h62v-605q0 -24 8 -32.5t29 -8.5h75v-32h-327v32h67q29 0 36 7.5t7 33.5v496q-81 -51 -145 -78l-16 27q48 29 109 75.5t95 84.5z" />
    <glyph glyph-name="threeeighths" unicode="&#x215c;" horiz-adv-x="1472" 
d="M1079 334q-29 13 -47.5 23.5t-47.5 31.5t-44.5 50t-15.5 63q0 70 66.5 123t166.5 53q92 0 160.5 -46t68.5 -112q0 -96 -149 -151q35 -15 57.5 -27t52.5 -34.5t46 -54t16 -69.5q0 -81 -70 -139.5t-180 -58.5q-99 0 -172.5 50.5t-73.5 127.5q0 106 166 170zM1198 385
q24 15 39.5 27t33 42t17.5 68q0 50 -35.5 87.5t-97.5 37.5q-55 0 -96 -30.5t-41 -79.5q0 -50 38.5 -79.5t141.5 -72.5zM1126 317q-25 -15 -38.5 -24t-34 -27.5t-30 -43.5t-9.5 -56q0 -65 41.5 -107.5t105.5 -42.5q62 0 105 39.5t43 98.5q0 46 -38 83t-145 80zM281 -55h-86
l995 1392h84zM205 940l-23 29q168 105 168 180q0 42 -32.5 66t-71.5 24q-11 0 -22.5 -2t-36.5 -10.5t-51 -32.5t-46 -61l-43 14q38 82 104.5 120t133.5 38q71 0 120.5 -34.5t49.5 -88.5q0 -76 -111 -142q87 -7 134.5 -58t47.5 -120q0 -96 -95 -173t-224 -77q-69 0 -131 23
t-62 57q0 19 16 31t36 12q18 0 33 -8t59 -39q46 -29 73 -34q9 -1 19 -1q61 0 111.5 53t50.5 130q0 68 -38 103.5t-81 35.5q-44 0 -88 -35z" />
    <glyph glyph-name="fiveeighths" unicode="&#x215d;" horiz-adv-x="1472" 
d="M1079 334q-29 13 -47.5 23.5t-47.5 31.5t-44.5 50t-15.5 63q0 70 66.5 123t166.5 53q92 0 160.5 -46t68.5 -112q0 -96 -149 -151q35 -15 57.5 -27t52.5 -34.5t46 -54t16 -69.5q0 -81 -70 -139.5t-180 -58.5q-99 0 -172.5 50.5t-73.5 127.5q0 106 166 170zM1126 317
q-24 -13 -38.5 -22.5t-34 -28t-29.5 -43.5t-10 -57q0 -65 41.5 -107.5t105.5 -42.5q62 0 105 39.5t43 98.5q0 46 -38 83t-145 80zM1198 385q24 15 39.5 27t33 42t17.5 68q0 50 -35.5 87.5t-97.5 37.5q-55 0 -96 -30.5t-41 -79.5q0 -50 38.5 -79.5t141.5 -72.5zM281 -55h-86
l995 1392h84zM496 1305l-17 -95h-305l-8 -168q20 9 57 17q40 4 60 4q107 0 183.5 -66t76.5 -155q0 -97 -84.5 -163.5t-210.5 -66.5q-64 0 -126.5 19t-62.5 53q0 15 15.5 27t36.5 12q37 0 86 -39q39 -35 77 -35q55 0 104.5 46t49.5 124q0 44 -17.5 77t-45 50t-54 25t-51.5 8
q-70 0 -127 -41l-24 14l16 338h270q32 0 41 2.5t15 12.5h45z" />
    <glyph glyph-name="seveneighths" unicode="&#x215e;" horiz-adv-x="1472" 
d="M1081 334q-29 13 -47.5 23.5t-47.5 31.5t-44.5 50t-15.5 63q0 70 66.5 123t166.5 53q93 0 161.5 -46t68.5 -112q0 -95 -150 -151q35 -15 57.5 -27t52.5 -34.5t46 -54t16 -69.5q0 -81 -70 -139.5t-180 -58.5q-99 0 -172.5 50.5t-73.5 127.5q0 106 166 170zM1200 385
q24 15 39.5 27t33 42t17.5 68q0 50 -35.5 87.5t-97.5 37.5q-55 0 -96 -31t-41 -81q0 -49 40 -79t140 -71zM1128 317q-25 -15 -38.5 -24t-34 -27.5t-30 -43.5t-9.5 -56q0 -65 41.5 -107.5t105.5 -42.5q61 0 104.5 39t43.5 99q0 47 -37.5 83.5t-145.5 79.5zM233 -55h-83
l993 1392h84zM287 612h-92l292 596h-325q-24 0 -32.5 -11t-14.5 -50h-43l8 141h504z" />
    <glyph glyph-name="partialdiff" unicode="&#x2202;" horiz-adv-x="948" 
d="M473 795h2q68 0 137.5 -34.5t112.5 -101.5q12 121 14 197q3 158 -49 297q-31 77 -99 136t-151 59q-117 0 -243 -101q-21 -3 -40.5 35t-9.5 68q112 75 252 75q234 0 365 -262q88 -172 88 -430q0 -287 -86 -473q-126 -285 -360 -285q-148 0 -237 100t-89 273q0 176 104 307
q52 62 129 101t160 39zM506 725h-2q-125 0 -205 -109q-82 -131 -82 -335q-2 -105 49.5 -178.5t136.5 -73.5q72 0 127.5 55.5t92.5 140.5q36 80 55 158.5t35 200.5q-23 49 -80.5 95t-126.5 46z" />
    <glyph glyph-name="Delta" unicode="&#x2206;" horiz-adv-x="1136" 
d="M1071 0h-1008v39l467 1245l62 19l479 -1264v-39zM903 78l-379 1012l-370 -1012h749z" />
    <glyph glyph-name="product" unicode="&#x220f;" horiz-adv-x="1222" 
d="M1169 1286v-45q-62 -4 -92 -8.5t-47.5 -19t-20.5 -32t-3 -57.5v-1106q0 -46 3.5 -67.5t21.5 -37.5t46.5 -21.5t87.5 -10.5v-43h-446v43q40 3 61.5 5t41.5 8.5t27.5 13.5t14 24t7.5 35t1 51v1153q0 38 -11.5 48t-51.5 10h-401q-39 0 -49.5 -9t-10.5 -42v-1160v-37t2 -28
t5 -23t10 -15.5t16.5 -13t25.5 -8t35 -7.5t47 -5v-43h-434v43q108 9 133 30t25 107v1106q0 40 -3 58t-21 32t-47.5 18.5t-92.5 8.5v45h1120z" />
    <glyph glyph-name="summation" unicode="&#x2211;" horiz-adv-x="993" 
d="M950 162l-78 -328h-819v39l410 659l-402 713v41h813q0 -15 3.5 -60t9 -114.5t8.5 -114.5l-45 -8q-20 125 -57 185q-18 34 -54 45.5t-135 11.5h-368l348 -610l-408 -666h477q44 0 67.5 1.5t49.5 9.5t39 20t30.5 39.5t30.5 60.5t33 90z" />
    <glyph glyph-name="minus" unicode="&#x2212;" horiz-adv-x="1366" 
d="M145 700h1076v-90h-1076v90z" />
    <glyph glyph-name="uni2215" unicode="&#x2215;" horiz-adv-x="235" 
d="M-338 -55h-84l995 1394h84z" />
    <glyph glyph-name="uni2219" unicode="&#x2219;" horiz-adv-x="532" 
d="M266 758q44 0 74.5 -26.5t30.5 -69.5q0 -44 -30.5 -70.5t-74.5 -26.5q-45 0 -74.5 27.5t-29.5 69.5t29.5 69t74.5 27z" />
    <glyph glyph-name="radical" unicode="&#x221a;" horiz-adv-x="993" 
d="M956 1655l-297 -1921l-32 -19l-396 1024l-157 -77l-19 57l267 127l315 -840h4l250 1667z" />
    <glyph glyph-name="infinity" unicode="&#x221e;" horiz-adv-x="1370" 
d="M1282 535v-3q0 -126 -81 -205t-191 -79q-80 0 -153.5 49t-168.5 160q-44 -50 -73.5 -79t-73 -63.5t-90 -50.5t-97.5 -16q-110 0 -188 79.5t-78 198.5q0 123 79 203t200 80q91 0 166.5 -54.5t160.5 -154.5q84 94 120 125q99 84 208 84q115 0 187.5 -76t72.5 -198zM365 336
h4q23 0 45 5t45 19t38 23.5t40 33.5t33.5 32.5t35.5 38.5t31 34q-79 97 -114 129q-80 72 -167 72q-81 0 -128.5 -57.5t-47.5 -141.5q0 -79 52 -133.5t133 -54.5zM1014 723h-2q-34 0 -67 -12.5t-64.5 -38.5t-52 -45.5t-50.5 -53.5t-39 -43q97 -108 154 -151t123 -43
q79 0 126.5 58t47.5 132q0 90 -49.5 143.5t-126.5 53.5z" />
    <glyph glyph-name="integral" unicode="&#x222b;" horiz-adv-x="665" 
d="M293 37l-35 772q-5 157 -1 274.5t23 202.5t42.5 140t58 87t68.5 45t75 13q37 0 69 -21.5t32 -58.5q0 -34 -20.5 -52t-51.5 -18q-18 0 -31.5 11.5t-19.5 25.5t-16.5 25.5t-24.5 11.5q-13 0 -25.5 -8t-25 -30t-21 -56t-12 -91.5t-0.5 -131.5l33 -719q5 -170 1.5 -296.5
t-23 -217t-42.5 -149t-58.5 -92.5t-69.5 -47t-75 -13q-45 0 -73.5 23.5t-28.5 56.5q-1 32 23.5 54.5t60.5 22.5q16 0 28 -12.5t18.5 -27.5t17 -27.5t24.5 -12.5q43 0 65 87t15 229z" />
    <glyph glyph-name="approxequal" unicode="&#x2248;" horiz-adv-x="980" 
d="M842 786l59 -51q-85 -170 -227 -170q-49 0 -91 16t-112 56q-98 61 -162 61q-55 0 -94.5 -35t-77.5 -98l-61 49q39 79 103.5 125.5t139.5 46.5q25 0 47.5 -4t46.5 -14t35.5 -15.5t38 -20.5t29.5 -17q4 -3 21.5 -12.5t21.5 -12t18.5 -10t20 -10t18 -7t20.5 -6t19.5 -3
t22.5 -1.5q50 0 87.5 32t76.5 101zM842 483l59 -51q-85 -170 -227 -170q-50 0 -92 17t-111 57q-36 20 -55.5 30t-49.5 19.5t-57 9.5q-56 0 -94.5 -34.5t-77.5 -98.5l-61 51q39 79 103 124.5t140 45.5q25 0 48.5 -4t46 -13.5t36 -16t35.5 -19.5t29 -16q6 -3 23 -13.5t24 -14
t21.5 -11t23 -11t21.5 -7.5t25.5 -5.5t25.5 -1.5q50 0 87.5 32t76.5 101z" />
    <glyph glyph-name="notequal" unicode="&#x2260;" horiz-adv-x="980" 
d="M698 911l-75 -172h268v-90h-305l-117 -256h422v-90h-459l-92 -205l-72 31l78 174h-258v90h295l115 256h-410v90h447l92 203z" />
    <glyph glyph-name="lessequal" unicode="&#x2264;" horiz-adv-x="980" 
d="M887 186l-789 402v96l789 401v-110l-690 -336v-4l690 -338v-111zM891 20h-801v95h801v-95z" />
    <glyph glyph-name="greaterequal" unicode="&#x2265;" horiz-adv-x="980" 
d="M100 1085l787 -401v-96l-787 -402v111l688 338v4l-688 336v110zM889 20h-799v95h799v-95z" />
    <glyph glyph-name="lozenge" unicode="&#x25ca;" horiz-adv-x="1003" 
d="M913 623l-358 -748h-106l-359 748l361 751h104zM811 623l-305 649h-6l-305 -647l307 -652h4z" />
    <glyph glyph-name="A.sc" unicode="&#xe000;" 
d="M444 920h148l280 -762q16 -43 23.5 -60.5t24 -33.5t38 -20.5t62.5 -6.5v-37h-428v37q35 1 52.5 2.5t41.5 7t34.5 18.5t10.5 33q0 32 -29 113l-63 172h-295l-47 -119q-39 -103 -39 -149q0 -18 8.5 -31.5t19 -21t33 -13t36.5 -7.5t44 -5v-37h-352v37q39 8 62 17.5t42 34
t28.5 45.5t31.5 75l254 651zM496 776l-129 -334h251z" />
    <glyph glyph-name="AE.sc" unicode="&#xe001;" horiz-adv-x="1386" 
d="M487 891h766l17 -199h-41q-10 55 -21 86t-30.5 45.5t-37.5 17.5t-55 3h-229v-367h199q41 0 57 1.5t33 12.5t23.5 33t11.5 64h37v-275h-37q-4 46 -8 66t-17 34.5t-31.5 16.5t-58.5 2h-209v-254q0 -78 5 -96t30 -27q20 -6 113 -6h61q51 0 81.5 5t59 22t45.5 51t29 90h33
l-19 -217h-753v35q52 5 84 13t50.5 15.5t26.5 25t9.5 31t1.5 44.5v231h-269l-96 -172q-51 -89 -51 -129q0 -51 123 -57v-37h-373v35q90 15 130 48t102 142l292 527q21 36 25 45.5t4 21.5q0 17 -24.5 23.5t-88.5 11.5v37zM700 854l-229 -408h242v408h-13z" />
    <glyph glyph-name="Aacute.sc" unicode="&#xe002;" 
d="M444 920h148l280 -762q16 -43 23.5 -60.5t24 -33.5t38 -20.5t62.5 -6.5v-37h-428v37q35 1 52.5 2.5t41.5 7t34.5 18.5t10.5 33q0 32 -29 113l-63 172h-295l-47 -119q-39 -103 -39 -149q0 -18 8.5 -31.5t19 -21t33 -13t36.5 -7.5t44 -5v-37h-352v37q39 8 62 17.5t42 34
t28.5 45.5t31.5 75l254 651zM496 776l-129 -334h251zM412 999h-27l127 172q75 108 103 136q43 43 87 43q29 0 46.5 -17.5t17.5 -40.5q0 -19 -7 -34t-38.5 -44t-91.5 -69z" />
    <glyph glyph-name="Acircumflex.sc" unicode="&#xe003;" 
d="M444 920h148l280 -762q16 -43 23.5 -60.5t24 -33.5t38 -20.5t62.5 -6.5v-37h-428v37q35 1 52.5 2.5t41.5 7t34.5 18.5t10.5 33q0 32 -29 113l-63 172h-295l-47 -119q-39 -103 -39 -149q0 -18 8.5 -31.5t19 -21t33 -13t36.5 -7.5t44 -5v-37h-352v37q39 8 62 17.5t42 34
t28.5 45.5t31.5 75l254 651zM496 776l-129 -334h251zM528 1253l-241 -258v37l221 367h57l217 -367v-37z" />
    <glyph glyph-name="Adieresis.sc" unicode="&#xe004;" 
d="M442 920h152l278 -762q16 -43 23.5 -60.5t24 -33.5t38 -20.5t62.5 -6.5v-37h-426v37l42 1.5t35.5 4t32 9.5t19 18t8.5 28q0 32 -29 113l-63 172h-295l-47 -119q-39 -103 -39 -149q0 -18 8.5 -31.5t19 -21t33 -13t36.5 -7.5t44 -5v-37h-352v37q39 8 62 17.5t42 34
t28.5 45.5t31.5 75l254 651zM498 776l-131 -334h251zM244 1147q0 37 26 63.5t64 26.5q37 0 63.5 -26.5t26.5 -63.5q0 -38 -26.5 -64t-63.5 -26t-63.5 26.5t-26.5 63.5zM643 1147q0 38 26.5 64t63.5 26q38 0 64 -26.5t26 -63.5t-26.5 -63.5t-63.5 -26.5q-36 0 -63 26t-27 64z
" />
    <glyph glyph-name="Agrave.sc" unicode="&#xe005;" 
d="M444 920h148l280 -762q16 -43 23.5 -60.5t24 -33.5t38 -20.5t62.5 -6.5v-37h-428v37q35 1 52.5 2.5t41.5 7t34.5 18.5t10.5 33q0 32 -29 113l-63 172h-295l-47 -119q-39 -103 -39 -149q0 -18 8.5 -31.5t19 -21t33 -13t36.5 -7.5t44 -5v-37h-352v37q39 8 62 17.5t42 34
t28.5 45.5t31.5 75l254 651zM496 776l-129 -334h251zM588 999l-217 146q-61 41 -93.5 71.5t-38.5 44t-6 29.5q0 28 18.5 44t43.5 16q26 0 48.5 -11t49 -41t42.5 -52t52 -75l127 -172h-26z" />
    <glyph glyph-name="Aring.sc" unicode="&#xe006;" 
d="M444 920h148l280 -762q16 -43 23.5 -60.5t24 -33.5t38 -20.5t62.5 -6.5v-37h-428v37q35 1 52.5 2.5t41.5 7t34.5 18.5t10.5 33q0 32 -29 113l-63 172h-295l-47 -119q-39 -103 -39 -149q0 -18 8.5 -31.5t19 -21t33 -13t36.5 -7.5t44 -5v-37h-352v37q39 8 62 17.5t42 34
t28.5 45.5t31.5 75l254 651zM496 776l-129 -334h251zM348 1133q0 76 55 131t132 55t131.5 -54.5t54.5 -131.5t-55 -132t-131 -55q-75 0 -131 55.5t-56 131.5zM397 1133q0 -58 40.5 -98t97.5 -40t97 40.5t40 97.5t-40 97t-97 40t-97.5 -40t-40.5 -97z" />
    <glyph glyph-name="Atilde.sc" unicode="&#xe007;" 
d="M444 920h148l280 -762q16 -43 23.5 -60.5t24 -33.5t38 -20.5t62.5 -6.5v-37h-428v37q35 1 52.5 2.5t41.5 7t34.5 18.5t10.5 33q0 32 -29 113l-63 172h-295l-47 -119q-39 -103 -39 -149q0 -18 8.5 -31.5t19 -21t33 -13t36.5 -7.5t44 -5v-37h-352v37q39 8 62 17.5t42 34
t28.5 45.5t31.5 75l254 651zM496 776l-129 -334h251zM281 1057h-23q7 108 31 151q51 82 135 82q37 0 66.5 -14.5t87.5 -54.5q52 -37 74 -47.5t44 -10.5q83 0 90 125h23q4 -112 -44.5 -170.5t-113.5 -58.5q-35 0 -62.5 13t-90.5 56q-76 50 -93 55q-11 3 -24 3
q-83 0 -100 -129z" />
    <glyph glyph-name="B.sc" unicode="&#xe008;" horiz-adv-x="960" 
d="M82 840v37q245 24 369 24q20 0 39.5 -0.5t58.5 -5t71.5 -11.5t70.5 -22t64.5 -35t44 -52.5t17.5 -72.5q0 -39 -17 -71.5t-38 -51.5t-54.5 -35.5t-52 -22.5t-45.5 -13q56 -14 99 -31.5t84.5 -46t64.5 -72t23 -98.5q0 -56 -23 -102t-58 -74.5t-79 -48t-84 -27.5t-74 -8
h-514v37q62 8 92 15.5t49 28.5t23 48t4 84v518q0 37 -2 52.5t-15.5 31t-40 19.5t-77.5 6zM367 860v-338h75q115 0 168.5 43t53.5 135q0 154 -211 162q-63 0 -86 -2zM367 479v-315q0 -33 2.5 -49t13 -36t36 -28t68.5 -8q104 0 171 49t67 160q0 227 -266 227h-92z" />
    <glyph glyph-name="C.sc" unicode="&#xe009;" 
d="M967 870l8 -213h-31q-16 32 -29 53.5t-42 57t-60.5 57.5t-81.5 39t-108 17q-101 0 -180.5 -62.5t-120.5 -165t-41 -225.5q0 -98 29 -179.5t76.5 -131t103 -76.5t112.5 -27q203 0 365 205h34q-24 -66 -45 -108t-69 -119q-56 5 -117 0q-143 -12 -176 -12q-220 0 -347.5 127
t-127.5 329q0 110 44 204t114.5 155t157.5 95t175 34q68 0 127.5 -18t98 -36t55.5 -18q25 0 43 18h33z" />
    <glyph glyph-name="Ccedilla.sc" unicode="&#xe00a;" 
d="M598 -20l-47 -78q52 4 90 -20.5t54 -59.5t16 -74q0 -64 -47 -120t-129 -56q-50 0 -86 18l12 29q20 -10 53 -10q42 0 75.5 29t33.5 77q0 8 -1.5 16.5t-7 23.5t-20.5 24.5t-39 9.5q-45 0 -127 -41l139 232q-121 7 -198 43q-117 55 -183.5 167t-66.5 246q0 130 65 242.5
t178 179t246 66.5q62 0 96.5 -9.5t153.5 -56.5q18 -6 33 -6q25 0 43 18h33l8 -213h-31q-15 28 -25 44t-31.5 47t-45 50.5t-56 40.5t-74.5 31.5t-91 10.5q-101 0 -179.5 -62.5t-119.5 -165t-41 -225.5q0 -98 29 -179.5t75.5 -131t102 -76.5t112.5 -27q205 0 367 205h34
q-24 -66 -45 -108t-69 -119q-77 5 -197 -8q-76 -5 -92 -4z" />
    <glyph glyph-name="D.sc" unicode="&#xe00b;" horiz-adv-x="1173" 
d="M57 0v37q56 2 83.5 6.5t47 19.5t24.5 38.5t5 68.5v543q0 44 -4 65t-21.5 37t-47 20t-87.5 5v37q228 24 447 24q34 0 69 -2t94 -12t110 -27t107 -51t95.5 -78.5t65.5 -115t26 -156.5q0 -94 -34.5 -173.5t-88 -130.5t-109 -82.5t-108.5 -43.5q-131 -29 -315 -29h-359z
M365 854v-715q0 -55 6 -69q15 -27 121 -27q104 0 183 30.5t122.5 74.5t70.5 103.5t35 108.5t8 99q0 42 -7 84t-25.5 96t-61 100.5t-104.5 73.5q-47 21 -110 31t-119.5 10h-118.5z" />
    <glyph glyph-name="E.sc" unicode="&#xe00c;" horiz-adv-x="854" 
d="M342 846v-369h221q23 0 33.5 0.5t25 3.5t20 9.5t13 19t10.5 31.5t5 47h41v-277h-41q-3 83 -23.5 102t-97.5 19h-207v-293q0 -65 12.5 -76.5t79.5 -11.5h156q39 0 62 4.5t46 20.5t39.5 50t30.5 91h39l-19 -217h-739v35q64 -2 96 11.5t41 37t9 70.5v581q0 76 -29 98.5
t-117 20.5v37h701l8 -195h-37q-9 51 -19.5 80.5t-30 45t-42.5 20t-64 4.5h-223z" />
    <glyph glyph-name="Eacute.sc" unicode="&#xe00d;" horiz-adv-x="854" 
d="M342 846v-369h221q23 0 33.5 0.5t25 3.5t20 9.5t13 19t10.5 31.5t5 47h41v-277h-41q-3 83 -23.5 102t-97.5 19h-207v-293q0 -65 12.5 -76.5t79.5 -11.5h156q39 0 62 4.5t46 20.5t39.5 50t30.5 91h39l-19 -217h-739v35q64 -2 96 11.5t41 37t9 70.5v581q0 76 -29 98.5
t-117 20.5v37h701l8 -195h-37q-9 51 -19.5 80.5t-30 45t-42.5 20t-64 4.5h-223zM362 999h-26l127 172q75 108 103 136q43 43 87 43q29 0 46.5 -17.5t17.5 -40.5q0 -19 -7 -34t-38.5 -44t-91.5 -69z" />
    <glyph glyph-name="Ecircumflex.sc" unicode="&#xe00e;" horiz-adv-x="854" 
d="M342 846v-369h221q23 0 33.5 0.5t25 3.5t20 9.5t13 19t10.5 31.5t5 47h41v-277h-41q-3 83 -23.5 102t-97.5 19h-207v-293q0 -65 12.5 -76.5t79.5 -11.5h156q39 0 62 4.5t46 20.5t39.5 50t30.5 91h39l-19 -217h-739v35q64 -2 96 11.5t41 37t9 70.5v581q0 76 -29 98.5
t-117 20.5v37h701l8 -195h-37q-9 51 -19.5 80.5t-30 45t-42.5 20t-64 4.5h-223zM418 1253l-242 -258v37l221 367h58l217 -367v-37z" />
    <glyph glyph-name="Edieresis.sc" unicode="&#xe00f;" horiz-adv-x="854" 
d="M342 846v-369h221q23 0 33.5 0.5t25 3.5t20 9.5t13 19t10.5 31.5t5 47h41v-277h-41q-3 83 -23.5 102t-97.5 19h-207v-293q0 -65 12.5 -76.5t79.5 -11.5h156q39 0 62 4.5t46 20.5t39.5 50t30.5 91h39l-19 -217h-739v35q64 -2 96 11.5t41 37t9 70.5v581q0 76 -29 98.5
t-117 20.5v37h701l8 -195h-37q-9 51 -19.5 80.5t-30 45t-42.5 20t-64 4.5h-223zM135 1147q0 37 26.5 63.5t63.5 26.5t63.5 -26.5t26.5 -63.5q0 -38 -26.5 -64t-63.5 -26t-63.5 26.5t-26.5 63.5zM532 1147q0 38 27 64t64 26q38 0 64 -26.5t26 -63.5t-26.5 -63.5t-63.5 -26.5
q-36 0 -63.5 26.5t-27.5 63.5z" />
    <glyph glyph-name="Egrave.sc" unicode="&#xe010;" horiz-adv-x="854" 
d="M342 846v-369h221q23 0 33.5 0.5t25 3.5t20 9.5t13 19t10.5 31.5t5 47h41v-277h-41q-3 83 -23.5 102t-97.5 19h-207v-293q0 -65 12.5 -76.5t79.5 -11.5h156q39 0 62 4.5t46 20.5t39.5 50t30.5 91h39l-19 -217h-739v35q64 -2 96 11.5t41 37t9 70.5v581q0 76 -29 98.5
t-117 20.5v37h701l8 -195h-37q-9 51 -19.5 80.5t-30 45t-42.5 20t-64 4.5h-223zM506 999l-217 146q-61 41 -93 71.5t-38 44t-6 29.5q0 28 18 44t43 16q21 0 41.5 -9.5t36 -21.5t38 -40.5t36 -47t41.5 -60.5l126 -172h-26z" />
    <glyph glyph-name="Eth.sc" unicode="&#xe011;" horiz-adv-x="1087" 
d="M203 422h-140v47h140v236q0 38 -0.5 57.5t-4 38t-7.5 25t-16 12t-24 6t-36 0.5h-35v43q324 14 418 14q111 0 199 -27.5t141 -71t88 -101.5t48 -114t13 -114q0 -79 -22.5 -149.5t-59 -120t-72.5 -82.5t-73 -55q-49 -31 -113.5 -46.5t-108.5 -17.5t-124 -2h-334v45h47
q52 0 64 23.5t12 117.5v236zM573 422h-219v-289q0 -64 2 -70q3 -20 54 -20q89 0 137.5 7t93.5 34q26 14 53.5 41.5t57 71.5t48.5 110t19 142q0 51 -10 104.5t-34 115t-75.5 108t-124.5 63.5q-96 20 -221 14v-385h219v-47z" />
    <glyph glyph-name="F.sc" unicode="&#xe012;" horiz-adv-x="747" 
d="M57 891h637v-180h-37q-7 45 -13 70t-9.5 31.5t-9.5 12.5q-19 19 -99 19h-204v-348h225q58 0 83.5 20t26.5 76h37v-250h-37q-4 68 -24 88.5t-78 20.5h-233v-316q0 -28 1.5 -39.5t7 -25t21.5 -18t39 -8.5t66 -7v-37h-400v37q78 7 97.5 26t19.5 80v586q0 77 -18 96.5
t-99 28.5v37z" />
    <glyph glyph-name="G.sc" unicode="&#xe013;" 
d="M903 877v-234h-35q-10 34 -17.5 54.5t-24.5 49.5t-40 52q-39 37 -94.5 59.5t-111.5 22.5q-141 0 -227.5 -120.5t-86.5 -311.5q0 -102 24 -181.5t59.5 -124.5t82.5 -74.5t86.5 -39t77.5 -9.5q75 0 160 46v139v41t-6.5 27t-13.5 19t-29 9t-45 6t-70 2v37h434v-37
q-29 -2 -39 -2.5t-28.5 -3.5t-22.5 -5.5t-14 -9t-11 -13t-4.5 -19.5t-3.5 -26.5v-36.5v-113q-68 -33 -108 -49.5t-108.5 -33.5t-135.5 -17q-61 0 -122 15.5t-119.5 50.5t-103.5 86t-72.5 128.5t-27.5 171.5q0 115 40.5 210t107 155.5t148 93.5t167.5 33q66 0 126 -17
t96.5 -34t46.5 -17q14 0 30 21h35z" />
    <glyph glyph-name="H.sc" unicode="&#xe014;" horiz-adv-x="1173" 
d="M352 475h469v240q0 58 -8.5 82.5t-41 38.5t-105.5 18v37h458v-37q-102 -6 -128.5 -31.5t-26.5 -107.5v-539q0 -84 28.5 -108.5t126.5 -30.5v-37h-458v37q97 6 126 30.5t29 108.5v248h-469v-248q0 -84 29 -108.5t127 -30.5v-37h-459v37q97 6 126.5 30.5t29.5 108.5v539
q0 84 -29 108.5t-127 30.5v37h459v-37q-98 -6 -127 -30t-29 -109v-240z" />
    <glyph glyph-name="I.sc" unicode="&#xe015;" horiz-adv-x="555" 
d="M498 891v-37q-38 -2 -62 -4.5t-41.5 -11t-25.5 -16t-13 -29t-5.5 -38.5t-0.5 -55v-507q0 -96 29 -123t127 -33v-37h-451v37q97 3 123.5 30t26.5 130v501q0 96 -29 123t-127 33v37h449z" />
    <glyph glyph-name="Iacute.sc" unicode="&#xe016;" horiz-adv-x="555" 
d="M498 891v-37q-38 -2 -62 -4.5t-41.5 -11t-25.5 -16t-13 -29t-5.5 -38.5t-0.5 -55v-507q0 -96 29 -123t127 -33v-37h-451v37q97 3 123.5 30t26.5 130v501q0 96 -29 123t-127 33v37h449zM178 999h-26l127 172q75 108 103 136q43 43 87 43q29 0 46 -17.5t17 -40.5
q0 -19 -7 -34t-38.5 -44t-91.5 -69z" />
    <glyph glyph-name="Icircumflex.sc" unicode="&#xe017;" horiz-adv-x="555" 
d="M498 891v-37q-38 -2 -62 -4.5t-41.5 -11t-25.5 -16t-13 -29t-5.5 -38.5t-0.5 -55v-507q0 -96 29 -123t127 -33v-37h-451v37q97 3 123.5 30t26.5 130v501q0 96 -29 123t-127 33v37h449zM274 1253l-241 -258v37l221 367h57l217 -367v-37z" />
    <glyph glyph-name="Idieresis.sc" unicode="&#xe018;" horiz-adv-x="555" 
d="M498 891v-37q-38 -2 -62 -4.5t-41.5 -11t-25.5 -16t-13 -29t-5.5 -38.5t-0.5 -55v-507q0 -96 29 -123t127 -33v-37h-451v37q97 3 123.5 30t26.5 130v501q0 96 -29 123t-127 33v37h449zM-10 1147q0 37 26.5 63.5t63.5 26.5t63.5 -26.5t26.5 -63.5q0 -38 -26.5 -64
t-63.5 -26t-63.5 26.5t-26.5 63.5zM387 1147q0 38 26.5 64t63.5 26q38 0 64 -26.5t26 -63.5t-26.5 -63.5t-63.5 -26.5q-36 0 -63 26t-27 64z" />
    <glyph glyph-name="Igrave.sc" unicode="&#xe019;" horiz-adv-x="555" 
d="M498 891v-37q-38 -2 -62 -4.5t-41.5 -11t-25.5 -16t-13 -29t-5.5 -38.5t-0.5 -55v-507q0 -96 29 -123t127 -33v-37h-451v37q97 3 123.5 30t26.5 130v501q0 96 -29 123t-127 33v37h449zM383 999l-217 146q-61 41 -93 71.5t-38 44t-6 29.5q0 28 18 44t43 16q21 0 41.5 -9.5
t36 -21.5t38 -40.5t36 -47t41.5 -60.5l127 -172h-27z" />
    <glyph glyph-name="J.sc" unicode="&#xe01a;" horiz-adv-x="641" 
d="M131 854v37h453v-37q-31 -3 -46 -4.5t-35.5 -6t-29.5 -11t-20 -17t-15 -26.5t-7 -38t-3 -53v-612q0 -53 -2 -89.5t-19 -100.5t-49 -111q-46 -67 -114 -116.5t-148 -49.5q-51 0 -98 26t-47 46q0 18 26 55t52 37q35 0 80 -45q50 -43 86 -43q48 0 71 53q17 55 17 283v663
q0 46 -5.5 75.5t-15.5 47.5t-30 26.5t-42 10t-59 0.5z" />
    <glyph glyph-name="K.sc" unicode="&#xe01b;" 
d="M592 891h391v-37q-43 -1 -66.5 -1.5t-48 -7t-35.5 -11.5t-30 -23.5t-30.5 -33t-37.5 -50.5q-8 -11 -30 -41t-33 -47q-35 -49 -65 -82.5t-45 -46t-44 -35.5q31 -24 43 -34t39.5 -37.5t73.5 -79.5q2 -3 92 -105.5t108 -122.5q25 -27 58 -41t51.5 -16t48.5 -2v-37h-430v37
q57 -2 86 3t29 26q0 36 -187 231q-74 77 -107.5 101.5t-76.5 27.5v-293q0 -27 1.5 -39.5t9 -28t25.5 -22t48 -6.5h55v-37h-434v37q93 -3 119.5 23t26.5 96v600q0 31 -1.5 43.5t-8 27t-23.5 18.5t-44.5 7t-74.5 2v37h447v-37q-65 2 -97 -11.5t-40.5 -37t-8.5 -70.5v-274
q26 3 43 7t43 16t55.5 37t63.5 65q50 57 97.5 131.5t47.5 99.5q0 22 -19 28t-76 9h-9v37z" />
    <glyph glyph-name="L.sc" unicode="&#xe01c;" horiz-adv-x="854" 
d="M41 891h475v-37q-46 -1 -66.5 -1.5t-44.5 -5t-31.5 -10.5t-15.5 -21t-9 -32.5t-1 -48.5v-612q0 -37 2 -46.5t12 -13.5q31 -14 127 -14q119 0 169 27t108 133h37l-88 -209h-660v37q66 0 96.5 11t40 34t9.5 74v561q0 33 -1 50.5t-6.5 36t-14.5 26t-28 14.5t-44.5 9t-65.5 1
v37z" />
    <glyph glyph-name="Lslash.sc" unicode="&#xe01d;" horiz-adv-x="854" 
d="M61 319l140 134v247q0 38 -1 57.5t-6.5 40.5t-14.5 29.5t-28 16t-44.5 9.5t-65.5 1v37h475v-37q-46 -1 -67 -1.5t-44.5 -4.5t-31 -9t-15.5 -17.5t-9 -27.5t-1 -42v-177l133 127v-75l-133 -127v-377q0 -37 2 -46.5t12 -13.5q31 -14 127 -14q119 0 169 27t108 133h37
l-88 -209h-660v37q49 -2 78 3.5t44 22t19.5 37t4.5 56.5v219l-140 -133v77z" />
    <glyph glyph-name="M.sc" unicode="&#xe01e;" horiz-adv-x="1386" 
d="M1004 891h288v-37q-78 0 -104 -11t-25 -48q0 -27 4 -117l31 -485q2 -27 3 -38.5t3 -31t5 -27l8 -20t12.5 -17t17.5 -11t24 -8t31.5 -3t40.5 -0.5v-37h-425v37q78 5 111.5 19t33.5 57q0 42 -4 92l-37 569l-338 -774h-39l-328 774l-51 -612q-4 -40 -4 -62q0 -63 125 -63
v-37h-344v37q116 5 137 33q17 22 27 143l45 543q4 63 -15.5 77.5t-109.5 20.5v37h293l289 -678z" />
    <glyph glyph-name="N.sc" unicode="&#xe01f;" horiz-adv-x="1173" 
d="M57 891h252l602 -668v512q0 23 -0.5 33.5t-3.5 28.5t-10 26.5t-20 16.5t-33 10q-28 4 -88 4v37h366v-37q-49 1 -78.5 -4.5t-44 -22.5t-18.5 -36.5t-4 -55.5v-741h-49l-662 735v-547q0 -36 2 -58.5t10.5 -39.5t17.5 -25.5t32 -13.5t44.5 -6t63.5 -2v-37h-381v37
q93 -3 119.5 23t26.5 96v573q0 34 -7.5 57.5t-17.5 36t-32 19.5t-38 8.5t-49 3.5v37z" />
    <glyph glyph-name="Ntilde.sc" unicode="&#xe020;" horiz-adv-x="1173" 
d="M57 891h252l602 -668v512q0 23 -0.5 33.5t-3.5 28.5t-10 26.5t-20 16.5t-33 10q-28 4 -88 4v37h366v-37q-49 1 -78.5 -4.5t-44 -22.5t-18.5 -36.5t-4 -55.5v-741h-49l-662 735v-547q0 -36 2 -58.5t10.5 -39.5t17.5 -25.5t32 -13.5t44.5 -6t63.5 -2v-37h-381v37
q93 -3 119.5 23t26.5 96v573q0 34 -7.5 57.5t-17.5 36t-32 19.5t-38 8.5t-49 3.5v37zM334 1057h-23q7 108 31 151q51 82 135 82q37 0 66.5 -14.5t87.5 -54.5q52 -36 74.5 -47t44.5 -11q83 0 90 125h22q4 -112 -44 -170.5t-113 -58.5q-35 0 -63.5 13.5t-90.5 55.5
q-76 50 -93 55q-11 3 -24 3q-83 0 -100 -129z" />
    <glyph glyph-name="O.sc" unicode="&#xe021;" horiz-adv-x="1173" 
d="M98 457q0 91 29.5 169t78.5 132.5t113 93t133 56.5t138 18q91 0 176 -29.5t155.5 -86t113 -148t42.5 -205.5q0 -100 -29.5 -182t-78 -136.5t-112.5 -92.5t-131.5 -54.5t-137.5 -16.5q-69 0 -136.5 16.5t-132 54.5t-113.5 92.5t-78.5 137t-29.5 181.5zM918 455
q0 114 -27 200.5t-74.5 136.5t-106 74.5t-126.5 24.5q-101 0 -177 -60.5t-112.5 -154t-36.5 -203.5q0 -153 30.5 -237t82.5 -136q90 -90 215 -90q62 0 118.5 24.5t105.5 74.5t78.5 139t29.5 207z" />
    <glyph glyph-name="OE.sc" unicode="&#xe022;" horiz-adv-x="1386" 
d="M1266 891l12 -195h-39q-13 98 -53 127q-24 19 -82 19h-234v-363h222q31 0 45 2t27.5 12.5t19 32.5t8.5 62h37v-273h-37q-3 47 -6 65.5t-17.5 33t-35.5 16.5t-68 2h-195v-295q0 -58 16.5 -71t90.5 -13h131q80 0 119.5 31.5t62.5 134.5h35l-16 -219h-541q-23 0 -61.5 -1
t-53.5 -1q-70 -4 -94 -4q-97 0 -178.5 28.5t-135 75t-91 106.5t-54 121t-16.5 121q0 120 57 222t164.5 164.5t243.5 62.5q37 0 127 -2t127 -2h463zM723 289v407q0 26 -1 41t-9.5 40t-25 39t-49.5 25t-81 11q-72 0 -129 -26t-90.5 -66.5t-55.5 -95.5t-30 -106t-8 -105
q0 -184 88.5 -300t222.5 -116q31 0 55.5 4.5t41.5 15.5t29.5 22t20.5 32t12.5 36t6 44t2 46t0.5 52z" />
    <glyph glyph-name="Oacute.sc" unicode="&#xe023;" horiz-adv-x="1173" 
d="M98 457q0 91 29.5 169t78.5 132.5t113 93t133 56.5t138 18q91 0 176 -29.5t155.5 -86t113 -148t42.5 -205.5q0 -100 -29.5 -182t-78 -136.5t-112.5 -92.5t-131.5 -54.5t-137.5 -16.5q-69 0 -136.5 16.5t-132 54.5t-113.5 92.5t-78.5 137t-29.5 181.5zM918 455
q0 114 -27 200.5t-74.5 136.5t-106 74.5t-126.5 24.5q-101 0 -177 -60.5t-112.5 -154t-36.5 -203.5q0 -153 30.5 -237t82.5 -136q90 -90 215 -90q62 0 118.5 24.5t105.5 74.5t78.5 139t29.5 207zM506 999h-27l127 172q76 109 106 138q43 41 85 41q29 0 46 -17.5t17 -40.5
q0 -19 -7 -34t-38.5 -44t-91.5 -69z" />
    <glyph glyph-name="Ocircumflex.sc" unicode="&#xe024;" horiz-adv-x="1173" 
d="M98 457q0 91 29.5 169t78.5 132.5t113 93t133 56.5t138 18q91 0 176 -29.5t155.5 -86t113 -148t42.5 -205.5q0 -100 -29.5 -182t-78 -136.5t-112.5 -92.5t-131.5 -54.5t-137.5 -16.5q-69 0 -136.5 16.5t-132 54.5t-113.5 92.5t-78.5 137t-29.5 181.5zM918 455
q0 114 -27 200.5t-74.5 136.5t-106 74.5t-126.5 24.5q-101 0 -177 -60.5t-112.5 -154t-36.5 -203.5q0 -153 30.5 -237t82.5 -136q90 -90 215 -90q62 0 118.5 24.5t105.5 74.5t78.5 139t29.5 207zM582 1253l-242 -258v37l221 367h57l218 -367v-37z" />
    <glyph glyph-name="Odieresis.sc" unicode="&#xe025;" horiz-adv-x="1173" 
d="M98 457q0 62 18 126t57.5 126t95.5 110t139 77.5t182 29.5q115 0 209 -39.5t154 -106t92 -150.5t32 -175q0 -93 -31.5 -178t-91 -153t-154.5 -108.5t-212 -40.5q-97 0 -184.5 32t-156 91.5t-109 152.5t-40.5 206zM256 469q0 -153 31.5 -237t83.5 -136q90 -90 215 -90
q49 0 95 14.5t90 48t76.5 83.5t52.5 127t20 172q0 114 -27.5 199.5t-65.5 130.5t-88.5 72.5t-86 34.5t-68.5 7q-101 0 -177.5 -61.5t-113.5 -157t-37 -207.5zM297 1147q0 37 26 63.5t64 26.5q37 0 63.5 -26.5t26.5 -63.5q0 -38 -26.5 -64t-63.5 -26t-63.5 26.5t-26.5 63.5z
M696 1147q0 38 26.5 64t63.5 26q38 0 64.5 -26.5t26.5 -63.5t-27 -63.5t-64 -26.5q-36 0 -63 26t-27 64z" />
    <glyph glyph-name="Ograve.sc" unicode="&#xe026;" horiz-adv-x="1173" 
d="M98 457q0 91 29.5 169t78.5 132.5t113 93t133 56.5t138 18q91 0 176 -29.5t155.5 -86t113 -148t42.5 -205.5q0 -100 -29.5 -182t-78 -136.5t-112.5 -92.5t-131.5 -54.5t-137.5 -16.5q-69 0 -136.5 16.5t-132 54.5t-113.5 92.5t-78.5 137t-29.5 181.5zM918 455
q0 114 -27 200.5t-74.5 136.5t-106 74.5t-126.5 24.5q-101 0 -177 -60.5t-112.5 -154t-36.5 -203.5q0 -153 30.5 -237t82.5 -136q90 -90 215 -90q62 0 118.5 24.5t105.5 74.5t78.5 139t29.5 207zM588 999l-217 146q-61 41 -93.5 71.5t-38.5 44t-6 29.5q0 28 18.5 44t43.5 16
q26 0 48.5 -11t49 -41t42.5 -52t52 -75l127 -172h-26z" />
    <glyph glyph-name="Oslash.sc" unicode="&#xe027;" horiz-adv-x="1173" 
d="M883 840l102 125l31 -23l-103 -125q78 -67 121 -162.5t43 -199.5q0 -93 -31.5 -178t-91 -153t-154.5 -108.5t-212 -40.5q-166 0 -291 84l-127 -155l-31 24l127 156q-170 142 -170 360q0 93 33 179t94 154t156 108.5t209 40.5q174 0 295 -86zM324 154l505 622
q-89 115 -245 115q-142 0 -235 -117t-93 -317q0 -197 68 -303zM852 743l-506 -620q91 -113 240 -113q64 0 121.5 25t105.5 75.5t76.5 138t28.5 200.5q0 181 -66 294z" />
    <glyph glyph-name="Otilde.sc" unicode="&#xe028;" horiz-adv-x="1173" 
d="M98 457q0 91 29.5 169t78.5 132.5t113 93t133 56.5t138 18q91 0 176 -29.5t155.5 -86t113 -148t42.5 -205.5q0 -100 -29.5 -182t-78 -136.5t-112.5 -92.5t-131.5 -54.5t-137.5 -16.5q-69 0 -136.5 16.5t-132 54.5t-113.5 92.5t-78.5 137t-29.5 181.5zM918 455
q0 114 -27 200.5t-74.5 136.5t-106 74.5t-126.5 24.5q-101 0 -177 -60.5t-112.5 -154t-36.5 -203.5q0 -153 30.5 -237t82.5 -136q90 -90 215 -90q62 0 118.5 24.5t105.5 74.5t78.5 139t29.5 207zM334 1057h-23q7 108 31 151q51 82 135 82q37 0 66.5 -14.5t87.5 -54.5
q52 -36 74.5 -47t44.5 -11q83 0 90 125h22q4 -112 -44 -170.5t-113 -58.5q-35 0 -63.5 13.5t-90.5 55.5q-76 50 -93 55q-11 3 -24 3q-83 0 -100 -129z" />
    <glyph glyph-name="P.sc" unicode="&#xe029;" horiz-adv-x="854" 
d="M522 37v-37h-469v37q93 -3 119.5 23t26.5 96v587q0 18 -0.5 28t-5 26.5t-13.5 24.5t-27 15t-44 7q-40 0 -64 -4v37q228 24 375 24q377 0 377 -260q0 -122 -89.5 -198t-215.5 -76q-55 0 -144 24v-239q0 -28 1 -43t8 -30t16.5 -21t31 -11.5t47.5 -7t70 -2.5zM348 858v-432
q62 -16 107 -16q52 0 90.5 22t56.5 49.5t28 65t11.5 55.5t1.5 35q0 25 -4 50.5t-17.5 58.5t-35 57.5t-62.5 41.5t-94 17q-46 0 -82 -4z" />
    <glyph glyph-name="Q.sc" unicode="&#xe02a;" horiz-adv-x="1173" 
d="M1118 -262v-37q-30 -6 -74 -6q-60 0 -130 25.5t-108.5 48.5t-64.5 43q-126 94 -229 168q-182 30 -299 155.5t-117 306.5q0 65 18.5 131t58 129t96 112t140 78.5t181.5 29.5q97 0 179.5 -27.5t139 -74t96 -108t58 -128t18.5 -135.5q0 -169 -98 -294t-260 -165
q49 -31 135 -107q71 -63 124 -96t75.5 -39t60.5 -10zM258 465q0 -240 107 -359q85 -96 221 -96q38 0 76 8.5t86.5 38t85 75.5t61.5 130.5t25 194.5q0 106 -28 190t-75 135.5t-105 78t-122 26.5q-141 0 -236.5 -110t-95.5 -312z" />
    <glyph glyph-name="R.alt" unicode="&#xe02b;" horiz-adv-x="1323" 
d="M1309 10v-37q-66 0 -113 9t-106 39t-119.5 94t-126.5 166q-4 6 -46 72t-76.5 117.5t-47.5 66.5h-273v-275q0 -50 2 -79t9.5 -58t21.5 -43t39 -25.5t60.5 -15.5t87.5 -4v-37h-586v37q50 0 83 3.5t55 17.5t33.5 26t17 44.5t6.5 56.5t1 78v3v824q0 54 -14.5 82.5t-57.5 43.5
t-126 15v37q270 22 520 22q120 0 197.5 -14t144.5 -47q28 -14 54 -31t54.5 -44.5t49 -59t34 -75.5t13.5 -93q0 -23 -3.5 -48t-19.5 -67.5t-43 -79t-79.5 -75t-123.5 -62.5l250 -379q68 -104 121.5 -150.5t106.5 -54.5zM401 1249v-676h82q145 0 228 23q66 19 112 74.5
t64 118.5t18 129q0 35 -7 71.5t-23.5 78.5t-51 79.5t-82.5 60.5q-45 22 -106.5 32t-117 9.5t-116.5 -0.5z" />
    <glyph glyph-name="R.sc" unicode="&#xe02c;" horiz-adv-x="960" 
d="M346 387v-205q0 -92 17.5 -118.5t82.5 -26.5h60v-37h-453v37h33q70 0 91.5 27t21.5 92v579q0 55 -17 76q-11 16 -30.5 20t-100.5 9v37q258 24 361 24q397 0 397 -256q0 -48 -15 -87t-33.5 -61.5t-50.5 -42.5t-49.5 -27t-46.5 -17q32 -29 52.5 -61t72.5 -144
q48 -102 84.5 -137.5t96.5 -44.5v-37q-112 5 -182 41t-132 133q-10 15 -38 64t-56.5 101t-34.5 62h-131zM346 856v-432h92q44 0 80.5 10.5t68.5 34.5t50 68t18 104q0 61 -21 106t-55.5 68.5t-70 34t-72.5 10.5q-50 0 -90 -4z" />
    <glyph glyph-name="S.sc" unicode="&#xe02d;" horiz-adv-x="747" 
d="M588 895l20 -205h-39q-30 80 -69 119q-32 33 -71.5 50.5t-74.5 17.5q-61 0 -101 -39.5t-40 -92.5q0 -26 9 -47.5t22 -39t51 -46.5t71.5 -51.5t108.5 -71.5q25 -16 40 -27t44.5 -38t47 -53t32 -65.5t14.5 -82.5q0 -106 -75.5 -180t-198.5 -74q-36 0 -64 6t-112 29
q-16 4 -25 4q-22 0 -28 -18h-33l-25 221h41q21 -61 54.5 -104.5t68.5 -62.5t60.5 -26.5t45.5 -7.5q24 0 51.5 8t56 25t47 49.5t18.5 75.5q0 72 -50.5 123t-177.5 129q-125 78 -169 140.5t-44 129.5q0 97 72.5 163.5t167.5 66.5q67 0 131 -23q1 0 28 -10t33 -10q12 0 25 18
h37z" />
    <glyph glyph-name="Scaron.sc" unicode="&#xe02e;" horiz-adv-x="747" 
d="M588 895l20 -205h-39q-30 80 -69 119q-32 33 -71.5 50.5t-74.5 17.5q-61 0 -101 -39.5t-40 -92.5q0 -26 9 -47.5t22 -39t51 -46.5t71.5 -51.5t108.5 -71.5q25 -16 40 -27t44.5 -38t47 -53t32 -65.5t14.5 -82.5q0 -106 -75.5 -180t-198.5 -74q-36 0 -64 6t-112 29
q-16 4 -25 4q-22 0 -28 -18h-33l-25 221h41q21 -61 54.5 -104.5t68.5 -62.5t60.5 -26.5t45.5 -7.5q24 0 51.5 8t56 25t47 49.5t18.5 75.5q0 72 -50.5 123t-177.5 129q-125 78 -169 140.5t-44 129.5q0 97 72.5 163.5t167.5 66.5q67 0 131 -23q1 0 28 -10t33 -10q12 0 25 18
h37zM340 1143l250 256v-35l-215 -369h-64l-217 369v35z" />
    <glyph glyph-name="T.sc" unicode="&#xe02f;" horiz-adv-x="960" 
d="M59 692l19 230h28q16 -22 31 -27q12 -4 41 -4h598q40 0 54 6t22 25h29l16 -230h-33q-22 97 -46.5 122.5t-94.5 25.5h-170v-674q0 -32 1 -50t9 -33.5t15.5 -22t31 -12t45 -7.5t66.5 -4v-37h-483v37q44 2 66.5 3.5t45 6.5t31 11.5t16 21.5t8.5 31.5t1 46.5v682h-185
q-23 0 -34.5 -0.5t-24.5 -6.5t-19 -13t-15.5 -26.5t-15.5 -40.5t-18 -61h-35z" />
    <glyph glyph-name="Thorn.sc" unicode="&#xe030;" horiz-adv-x="768" 
d="M309 190v-51q0 -63 12 -79.5t62 -16.5h68v-43h-398v41h43q42 0 50 19t8 116v563q0 26 -0.5 40.5t-1 28.5t-4.5 20t-7 11.5t-12 6.5t-16 1.5t-23 0.5h-55v43h375v-41h-43q-40 0 -49 -14t-9 -64v-55q128 3 215 -17q16 -5 33.5 -11.5t47 -25.5t51.5 -43.5t38.5 -66.5
t16.5 -92q0 -55 -19 -103.5t-57 -88t-102 -62.5t-146 -23q-43 0 -78 6zM309 674v-441q24 -4 45 -4q51 0 90.5 22t62 58t33.5 75.5t11 80.5q0 60 -15.5 102.5t-34.5 63t-51.5 31.5t-50 12.5t-45.5 1.5q-11 0 -25.5 -1t-19.5 -1z" />
    <glyph glyph-name="U.sc" unicode="&#xe031;" horiz-adv-x="1173" 
d="M66 891h452v-37q-99 -4 -127.5 -31.5t-28.5 -107.5v-373q0 -45 1 -69.5t8 -60t20 -60.5q23 -43 78 -77t149 -34q36 0 70.5 5.5t73 20t69.5 44t48 71.5q22 51 22 203v303q0 43 -0.5 61t-5.5 42t-13.5 31.5t-27.5 17t-44.5 11.5t-66.5 3v37h367v-37q-50 1 -80 -4.5
t-44.5 -22.5t-18.5 -36.5t-4 -55.5v-368q0 -164 -37 -238q-22 -46 -63 -79t-89.5 -49.5t-93 -24t-88.5 -7.5q-39 0 -77 5t-91.5 19.5t-100 49t-75.5 86.5q-31 55 -31 188v402q0 33 -0.5 47.5t-5.5 33.5t-13 25t-26 14t-42.5 10.5t-63.5 4.5v37z" />
    <glyph glyph-name="Uacute.sc" unicode="&#xe032;" horiz-adv-x="1173" 
d="M66 891h452v-37q-99 -4 -127.5 -31.5t-28.5 -107.5v-373q0 -45 1 -69.5t8 -60t20 -60.5q23 -43 78 -77t149 -34q36 0 70.5 5.5t73 20t69.5 44t48 71.5q22 51 22 203v303q0 43 -0.5 61t-5.5 42t-13.5 31.5t-27.5 17t-44.5 11.5t-66.5 3v37h367v-37q-50 1 -80 -4.5
t-44.5 -22.5t-18.5 -36.5t-4 -55.5v-368q0 -164 -37 -238q-22 -46 -63 -79t-89.5 -49.5t-93 -24t-88.5 -7.5q-39 0 -77 5t-91.5 19.5t-100 49t-75.5 86.5q-31 55 -31 188v402q0 33 -0.5 47.5t-5.5 33.5t-13 25t-26 14t-42.5 10.5t-63.5 4.5v37zM588 999h-27l127 172
q76 109 106 138q43 41 85 41q29 0 46 -17.5t17 -40.5q0 -19 -7 -34t-38.5 -44t-91.5 -69z" />
    <glyph glyph-name="Ucircumflex.sc" unicode="&#xe033;" horiz-adv-x="1173" 
d="M66 891h452v-37q-99 -4 -127.5 -31.5t-28.5 -107.5v-373q0 -45 1 -69.5t8 -60t20 -60.5q23 -43 78 -77t149 -34q36 0 70.5 5.5t73 20t69.5 44t48 71.5q22 51 22 203v303q0 43 -0.5 61t-5.5 42t-13.5 31.5t-27.5 17t-44.5 11.5t-66.5 3v37h367v-37q-50 1 -80 -4.5
t-44.5 -22.5t-18.5 -36.5t-4 -55.5v-368q0 -164 -37 -238q-22 -46 -63 -79t-89.5 -49.5t-93 -24t-88.5 -7.5q-39 0 -77 5t-91.5 19.5t-100 49t-75.5 86.5q-31 55 -31 188v402q0 33 -0.5 47.5t-5.5 33.5t-13 25t-26 14t-42.5 10.5t-63.5 4.5v37zM623 1253l-242 -258v37
l221 367h57l218 -367v-37z" />
    <glyph glyph-name="Udieresis.sc" unicode="&#xe034;" horiz-adv-x="1173" 
d="M66 891h452v-37q-99 -4 -127.5 -31.5t-28.5 -107.5v-373q0 -45 1 -69.5t8 -60t20 -60.5q23 -43 78 -77t149 -34q36 0 70.5 5.5t73 20t69.5 44t48 71.5q22 51 22 203v303q0 43 -0.5 61t-5.5 42t-13.5 31.5t-27.5 17t-44.5 11.5t-66.5 3v37h367v-37q-50 1 -80 -4.5
t-44.5 -22.5t-18.5 -36.5t-4 -55.5v-368q0 -164 -37 -238q-22 -46 -63 -79t-89.5 -49.5t-93 -24t-88.5 -7.5q-39 0 -77 5t-91.5 19.5t-100 49t-75.5 86.5q-31 55 -31 188v402q0 33 -0.5 47.5t-5.5 33.5t-13 25t-26 14t-42.5 10.5t-63.5 4.5v37zM340 1147q0 37 26.5 63.5
t63.5 26.5t63.5 -26.5t26.5 -63.5q0 -38 -26.5 -64t-63.5 -26t-63.5 26.5t-26.5 63.5zM737 1147q0 38 26.5 64t63.5 26q38 0 64.5 -26.5t26.5 -63.5t-27 -63.5t-64 -26.5q-36 0 -63 26t-27 64z" />
    <glyph glyph-name="Ugrave.sc" unicode="&#xe035;" horiz-adv-x="1173" 
d="M66 891h452v-37q-99 -4 -127.5 -31.5t-28.5 -107.5v-373q0 -45 1 -69.5t8 -60t20 -60.5q23 -43 78 -77t149 -34q36 0 70.5 5.5t73 20t69.5 44t48 71.5q22 51 22 203v303q0 43 -0.5 61t-5.5 42t-13.5 31.5t-27.5 17t-44.5 11.5t-66.5 3v37h367v-37q-50 1 -80 -4.5
t-44.5 -22.5t-18.5 -36.5t-4 -55.5v-368q0 -164 -37 -238q-22 -46 -63 -79t-89.5 -49.5t-93 -24t-88.5 -7.5q-39 0 -77 5t-91.5 19.5t-100 49t-75.5 86.5q-31 55 -31 188v402q0 33 -0.5 47.5t-5.5 33.5t-13 25t-26 14t-42.5 10.5t-63.5 4.5v37zM629 999l-217 146
q-61 41 -93.5 71.5t-38.5 44t-6 29.5q0 28 18.5 44t43.5 16q26 0 48.5 -11t49 -41t42.5 -52t52 -75l127 -172h-26z" />
    <glyph glyph-name="V.sc" unicode="&#xe036;" 
d="M49 891h432v-37q-24 2 -49.5 0.5t-46.5 -5.5t-35 -15.5t-14 -30.5q0 -15 24 -80l224 -569l200 563q27 71 27 86q0 18 -10.5 29.5t-34 15.5t-41.5 5t-53 1h-8v37h354v-37q-70 0 -99.5 -27t-68.5 -131l-266 -716h-86l-295 765q-16 39 -31 61.5t-35.5 33t-37.5 12.5t-50 2
v37z" />
    <glyph glyph-name="W.sc" unicode="&#xe037;" horiz-adv-x="1599" 
d="M49 891h389v-37q-27 0 -40.5 -1t-31 -4.5t-25 -12t-7.5 -23.5q0 -33 26 -100l228 -586l194 362l-129 279q-26 56 -46.5 71t-80.5 15v37h623v-37q-68 2 -95.5 -17t-66.5 -96l-92 -172l205 -434l239 563q35 88 35 113q0 15 -9.5 24.5t-30 13t-34.5 4.5t-40 1v37h290v-37
q-52 1 -72.5 -20t-50.5 -95l-325 -766h-78l-209 445l-235 -445h-78l-289 742q-14 36 -20 51t-17.5 34.5t-19.5 25.5t-24.5 14t-34.5 10t-48 4v37zM911 854h-90q-39 0 -39 -25q0 -10 15 -45l67 -141l62 119q24 47 24 65q0 27 -39 27z" />
    <glyph glyph-name="X.sc" unicode="&#xe038;" horiz-adv-x="1173" 
d="M55 891h459v-37q-58 0 -89.5 -6.5t-31.5 -28.5q0 -13 24 -47.5t42 -54.5l143 -178l158 190q28 33 38.5 50t10.5 34q0 10 -4.5 17.5t-14.5 11.5t-19 6.5t-25.5 4t-26 1.5h-27.5v37h400v-37q-71 -4 -114 -19.5t-71 -40.5t-78 -85l-184 -224l250 -313q66 -83 105.5 -106.5
t117.5 -28.5v-37h-479v37q92 4 109 13q16 9 16 30q0 20 -10 37t-39 51l-166 207l-170 -207q-28 -33 -37.5 -48.5t-9.5 -31.5q0 -15 9 -25t29 -15t32.5 -7t39.5 -4v-37h-389v37q82 1 138.5 37.5t132.5 130.5l184 221l-272 336q-49 62 -76 74.5t-105 17.5v37z" />
    <glyph glyph-name="Y.sc" unicode="&#xe039;" 
d="M39 891h434v-37q-64 -3 -77.5 -4.5t-20.5 -7.5q-13 -10 -13 -25q0 -11 48 -94l192 -291l160 277q47 80 47 108q0 13 -7.5 20.5t-24.5 11t-33.5 4.5t-43.5 1v37h326v-37q-29 -1 -47 -2t-35 -7.5t-25 -10.5t-22 -21.5t-21 -28.5t-26 -43l-219 -379v-180q0 -92 17 -118.5
t83 -26.5h57v-37h-460v37h45q30 0 47 1t31 8t20 13t9.5 26t4 36.5t0.5 54.5v186l-264 400q-24 37 -34.5 50.5t-31.5 26t-44 14t-72 1.5v37z" />
    <glyph glyph-name="Yacute.sc" unicode="&#xe03a;" 
d="M39 891h434v-37q-64 -3 -77.5 -4.5t-20.5 -7.5q-13 -10 -13 -25q0 -11 48 -94l192 -291l160 277q47 80 47 108q0 13 -7.5 20.5t-24.5 11t-33.5 4.5t-43.5 1v37h326v-37q-29 -1 -47 -2t-35 -7.5t-25 -10.5t-22 -21.5t-21 -28.5t-26 -43l-219 -379v-180q0 -92 17 -118.5
t83 -26.5h57v-37h-460v37h45q30 0 47 1t31 8t20 13t9.5 26t4 36.5t0.5 54.5v186l-264 400q-24 37 -34.5 50.5t-31.5 26t-44 14t-72 1.5v37zM535 999h-27l127 172q75 108 103 136q43 43 87 43q29 0 46.5 -17.5t17.5 -40.5q0 -19 -7 -34t-38.5 -44t-91.5 -69z" />
    <glyph glyph-name="Ydieresis.sc" unicode="&#xe03b;" 
d="M39 891h434v-37q-64 -3 -77.5 -4.5t-20.5 -7.5q-13 -10 -13 -25q0 -11 48 -94l192 -291l160 277q47 80 47 108q0 13 -7.5 20.5t-24.5 11t-33.5 4.5t-43.5 1v37h326v-37q-29 -1 -47 -2t-35 -7.5t-25 -10.5t-22 -21.5t-21 -28.5t-26 -43l-219 -379v-180q0 -92 17 -118.5
t83 -26.5h57v-37h-460v37h45q30 0 47 1t31 8t20 13t9.5 26t4 36.5t0.5 54.5v186l-264 400q-24 37 -34.5 50.5t-31.5 26t-44 14t-72 1.5v37zM287 1147q0 37 26.5 63.5t63.5 26.5t63.5 -26.5t26.5 -63.5q0 -38 -26.5 -64t-63.5 -26t-63.5 26.5t-26.5 63.5zM684 1147
q0 38 26.5 64t63.5 26q38 0 64 -26.5t26 -63.5t-26.5 -63.5t-63.5 -26.5q-36 0 -63 26t-27 64z" />
    <glyph glyph-name="Z.sc" unicode="&#xe03c;" horiz-adv-x="960" 
d="M129 891h743v-35l-632 -803h397q63 0 89 6t40 21q40 55 70 190h36l-16 -270h-793v53l625 793h-354q-35 0 -52.5 -1t-38.5 -6t-31 -15t-21.5 -28.5t-18.5 -45.5t-14 -68h-37z" />
    <glyph glyph-name="Zcaron.sc" unicode="&#xe03d;" horiz-adv-x="960" 
d="M129 891h743v-35l-632 -803h397q63 0 89 6t40 21q40 55 70 190h36l-16 -270h-793v53l625 793h-354q-35 0 -52.5 -1t-38.5 -6t-31 -15t-21.5 -28.5t-18.5 -45.5t-14 -68h-37zM467 1141l250 258v-37l-215 -367h-66l-215 367v37z" />
    <glyph glyph-name="germandbls.sc" unicode="&#xe040;" horiz-adv-x="1413" 
d="M588 895l20 -205h-39q-30 80 -69 119q-32 33 -71.5 50.5t-74.5 17.5q-61 0 -101 -39.5t-40 -92.5q0 -26 9 -47.5t22 -39t51 -46.5t71.5 -51.5t108.5 -71.5q25 -16 40 -27t44.5 -38t47 -53t32 -65.5t14.5 -82.5q0 -106 -75.5 -180t-198.5 -74q-36 0 -64 6t-112 29
q-16 4 -25 4q-22 0 -28 -18h-33l-25 221h41q21 -61 54.5 -104.5t68.5 -62.5t60.5 -26.5t45.5 -7.5q24 0 51.5 8t56 25t47 49.5t18.5 75.5q0 72 -50.5 123t-177.5 129q-125 78 -169 140.5t-44 129.5q0 97 72.5 163.5t167.5 66.5q67 0 131 -23q1 0 28 -10t33 -10q12 0 25 18
h37zM1253 895l21 -205h-39q-30 79 -70 119q-65 68 -145 68q-61 0 -101 -39.5t-40 -92.5q0 -26 9 -47.5t22 -39t51 -46.5t71.5 -51.5t108.5 -71.5q25 -16 40 -27t44.5 -38t47 -53t32 -65.5t14.5 -82.5q0 -106 -76 -180t-199 -74q-36 0 -64 6t-112 29q-16 4 -24 4
q-23 0 -29 -18h-33l-24 221h41q21 -61 54.5 -104.5t68.5 -62.5t60.5 -26.5t45.5 -7.5q34 0 70.5 13t69 51t32.5 94q0 72 -50.5 123.5t-176.5 128.5q-125 78 -169 140.5t-44 129.5q0 97 72 163.5t167 66.5q67 0 131 -23q1 0 28.5 -10t33.5 -10q12 0 25 18h36z" />
    <glyph glyph-name="zero.taboldstyle" unicode="&#xf643;" horiz-adv-x="960" 
d="M477 -20q-62 0 -120 16.5t-112 54t-94 91.5t-64 135t-24 180q0 55 14 113.5t47 118.5t79.5 106.5t119 76t158.5 29.5q85 0 160 -31.5t131.5 -89.5t89.5 -147t33 -197q0 -125 -48.5 -228t-145 -165.5t-224.5 -62.5zM475 55q137 0 217 101.5t80 283.5q0 170 -65 269
q-33 48 -93.5 82t-138.5 34q-135 0 -212 -105.5t-77 -266.5q0 -198 80 -298t209 -100z" />
    <glyph glyph-name="one.taboldstyle" unicode="&#xf644;" horiz-adv-x="960" 
d="M221 872h518v-36q-49 0 -78 -1t-52 -6t-33 -10t-16.5 -19.5t-7.5 -27.5t-1 -41v-588q0 -27 1 -41t8.5 -28t16.5 -19t33.5 -10t51.5 -6t77 -2v-37h-518v37q53 2 77 3.5t51 6.5t35 9.5t16.5 18t9 27.5t0.5 41v588q0 48 -9.5 67t-48.5 28.5t-131 9.5v36z" />
    <glyph glyph-name="two.taboldstyle" unicode="&#xf645;" horiz-adv-x="960" 
d="M868 309l-73 -309h-725v37q223 152 372 280q101 89 137.5 153.5t36.5 129.5q0 90 -58 147.5t-150 57.5q-54 0 -105.5 -22t-77 -42t-57.5 -51l-29 25q24 27 42 46t53 48t69 47t82.5 31.5t99.5 13.5q115 0 192 -65.5t77 -159.5q0 -39 -9.5 -75t-25.5 -68.5t-49 -70
t-66.5 -70t-92 -79t-113 -86.5t-140.5 -102h418q27 0 39.5 3t32.5 19.5t40 55t46 106.5h34z" />
    <glyph glyph-name="three.taboldstyle" unicode="&#xf646;" horiz-adv-x="960" 
d="M229 678l-28 24q30 58 69.5 99.5t79 62t72 29t63.5 8.5q55 0 99 -22.5t69.5 -57.5t38.5 -74.5t13 -78.5q0 -43 -14 -83t-31 -66.5t-50.5 -58.5t-53 -46.5t-58.5 -42.5q82 -4 127 -41q106 -85 106 -258q0 -178 -108 -299t-267 -121q-82 0 -151.5 35t-69.5 86q0 29 19.5 46
t42.5 17q37 0 116 -55q88 -64 138 -64q65 0 106 69t41 179q0 104 -20.5 159.5t-65.5 94.5q-51 41 -102 41q-14 0 -31 -2.5t-33.5 -6t-19.5 -3.5l-13 33q260 159 260 340q0 25 -6 51t-21 54.5t-46 46.5t-74 18q-44 0 -86 -21t-63 -41t-48 -51z" />
    <glyph glyph-name="four.taboldstyle" unicode="&#xf647;" horiz-adv-x="960" 
d="M668 901v-792h239v-99h-239v-354h-144v354h-465v39l570 852h39zM524 109v542l-362 -542h362z" />
    <glyph glyph-name="five.taboldstyle" unicode="&#xf648;" horiz-adv-x="960" 
d="M799 868l-78 -123l-227 27l-134 -160q34 -21 56 -35t69.5 -49t80.5 -64.5t75 -76t68 -91.5t44.5 -102t18.5 -114q0 -97 -51 -180t-129 -134.5t-165.5 -80.5t-166.5 -29q-44 0 -71 20t-27 54q0 33 23 49t42 16q21 0 90 -24q16 -7 52.5 -17t58.5 -10q86 0 155.5 78.5
t69.5 197.5q0 56 -19 110t-56 102.5t-75.5 88t-94 80.5t-93 65.5t-90.5 57.5l310 377z" />
    <glyph glyph-name="six.taboldstyle" unicode="&#xf649;" horiz-adv-x="960" 
d="M823 1214l39 -32q-73 -32 -126 -58.5t-115 -65.5t-109 -81t-95 -100.5t-87 -128.5q90 28 164 28q178 0 283.5 -110t105.5 -275q0 -175 -111 -293t-278 -118q-75 0 -147 29.5t-131.5 85t-95.5 144t-36 197.5q0 132 54 252.5t152 219t233.5 176.5t299.5 130zM309 702
q-39 -94 -54 -156.5t-15 -154.5q0 -188 71 -282.5t176 -94.5q90 0 154 64q88 85 88 280q0 78 -14.5 145.5t-44.5 122t-82 86t-121 31.5q-65 0 -158 -41z" />
    <glyph glyph-name="seven.taboldstyle" unicode="&#xf64a;" horiz-adv-x="960" 
d="M137 872h756v-38l-502 -1178h-102l489 1087h-493q-27 0 -37.5 -0.5t-26.5 -3.5t-21.5 -9t-15 -19t-15 -30t-13.5 -46l-27 -100h-39z" />
    <glyph glyph-name="eight.taboldstyle" unicode="&#xf64b;" horiz-adv-x="960" 
d="M571 657q45 -35 73 -59t63 -61.5t54.5 -71t33.5 -80t14 -96.5q0 -81 -38 -150t-116 -114t-180 -45q-84 0 -149.5 27.5t-102 72.5t-55 95t-18.5 101q0 49 15.5 93t37 75t57 61.5t63.5 49t68 41.5q-31 23 -50.5 38.5t-53.5 50t-54.5 67t-36.5 81t-16 99.5q0 118 81 200
t226 82q79 0 139 -26t93 -67.5t49 -86t16 -88.5q0 -46 -15 -87t-34.5 -68.5t-52.5 -56t-54.5 -42.5t-56.5 -35zM539 678q20 12 32.5 20.5t35.5 31t37 47t25 65t11 88.5q0 108 -53 179t-150 71q-80 0 -136 -47.5t-56 -131.5q0 -42 20 -85.5t45 -75.5t66 -67.5t64.5 -53
t58.5 -41.5zM420 573q-28 -18 -43.5 -29t-41 -37t-38.5 -53.5t-24 -73t-11 -101.5q0 -127 63.5 -194t163.5 -67q84 0 144.5 53.5t60.5 143.5q0 56 -19.5 105t-59.5 93t-84 79.5t-111 80.5z" />
    <glyph glyph-name="nine.taboldstyle" unicode="&#xf64c;" horiz-adv-x="960" 
d="M117 -346l-25 45q208 74 330 164q55 41 96 81t66.5 78t37.5 60.5t27 56.5q-115 -39 -190 -39q-55 0 -109 15t-104 46.5t-88.5 76t-61 107.5t-22.5 136q0 181 114 299.5t279 118.5q71 0 141 -27.5t131.5 -81t99.5 -146.5t38 -210q0 -103 -26 -199.5t-95 -199t-176 -182.5
q-57 -43 -119 -76.5t-127.5 -57t-109 -36.5t-107.5 -29zM670 186q51 155 51 306q0 88 -17 156.5t-43.5 108.5t-61 65.5t-65 34.5t-61.5 9q-44 0 -95.5 -22t-86.5 -68q-30 -40 -46 -112.5t-16 -147.5q0 -30 3 -62t11 -79t27 -86.5t46 -75.5t72.5 -57t103.5 -21q78 0 178 51z
" />
    <glyph glyph-name="dollar.taboldstyle" unicode="&#xf653;" horiz-adv-x="960" 
d="M352 53v404q-93 57 -131 94q-64 65 -65 133q0 69 52 124t144 79v104h66v-92q56 3 106 0v92h66v-104q103 -23 154 -61.5t51 -73.5q0 -22 -20.5 -39t-47.5 -17q-38 0 -63 27q-6 6 -37.5 41.5t-36.5 40.5v-311q145 -81 195.5 -137.5t50.5 -127.5q0 -87 -65.5 -149
t-180.5 -90v-146h-66v136q-37 -3 -106 0v-136h-66v146q-61 15 -106.5 37t-67.5 42t-35 41t-15.5 31.5t-2.5 16.5q0 24 21.5 42.5t54.5 18.5q54 0 80 -61q12 -30 18 -43t20 -31t33 -31zM352 629v205q-67 -32 -67 -97q0 -34 15 -56.5t52 -51.5zM524 524v320q-38 16 -106 12
v-270q39 -24 106 -62zM524 27v340q-65 40 -106 55v-393q41 -10 106 -2zM590 332v-287q106 49 106 145q0 50 -26 80t-80 62z" />
    <glyph glyph-name="cent.taboldstyle" unicode="&#xf654;" horiz-adv-x="960" 
d="M621 621l88 190h69l-92 -203q30 -5 66 -26.5t36 -55.5q0 -19 -19 -35t-52 -16q-6 0 -11.5 0.5t-11 2t-9 2t-9 3t-7.5 3.5t-8 5t-7 4.5t-7.5 5t-7.5 5.5l-199 -424q38 -23 99 -23q38 0 68.5 8.5t57.5 28t41 33t42 43.5l49 -25q-116 -167 -320 -167q-55 0 -82 8l-110 -242
h-72l121 260q-56 28 -94 70t-52.5 85t-19 68t-4.5 45q0 71 34.5 137t93.5 115t145.5 75.5t183.5 19.5zM387 121l199 426q-25 18 -64 18q-85 0 -147 -75.5t-62 -178.5q0 -112 74 -190z" />
    <glyph glyph-name="zero.denominator" unicode="&#xf655;" horiz-adv-x="618" 
d="M47 332q0 149 78 247.5t186 98.5t185 -100t77 -246t-76.5 -246t-187.5 -100q-107 0 -184.5 99t-77.5 247zM162 332q0 -154 34.5 -235t114.5 -81q148 0 148 316q0 315 -148 315q-80 0 -114.5 -80.5t-34.5 -234.5z" />
    <glyph glyph-name="one.denominator" unicode="&#xf656;" horiz-adv-x="618" 
d="M313 678h62v-604q0 -24 8 -32.5t29 -8.5h75v-33h-327v33h67q29 0 36 7.5t7 33.5v495q-76 -48 -145 -77l-16 26q48 29 109 75.5t95 84.5z" />
    <glyph glyph-name="two.denominator" unicode="&#xf657;" horiz-adv-x="618" 
d="M16 0v25q38 42 230 208q155 134 155 240q0 60 -44 96.5t-103 36.5q-21 0 -44 -6t-50 -20t-50 -44t-36 -71h-43q9 74 53 125t96 70.5t109 19.5q95 0 164 -53.5t69 -137.5q0 -109 -125 -200q-133 -92 -209 -158l-61 -53h260q70 0 87.5 11.5t29.5 70.5h43l-25 -160h-506z
" />
    <glyph glyph-name="three.denominator" unicode="&#xf658;" horiz-adv-x="618" 
d="M205 313l-23 29q16 9 36 23.5t54 41.5t56 58t22 57q0 42 -32.5 66t-71.5 24q-11 0 -23 -2t-37 -10.5t-50.5 -32.5t-45.5 -61l-43 14q25 56 68 93t85 51t85 14q71 0 120.5 -34.5t49.5 -88.5q0 -69 -109 -141q93 -10 136.5 -62t43.5 -116q0 -96 -95 -173t-224 -77
q-69 0 -131 23t-62 57q0 18 15 30.5t34 12.5t35 -8.5t60 -39.5q53 -34 92 -34q61 0 111.5 53t50.5 129q0 68 -38 103.5t-81 35.5q-38 0 -88 -35z" />
    <glyph glyph-name="four.denominator" unicode="&#xf659;" horiz-adv-x="618" 
d="M354 190h-309v31l361 459h53v-424h121v-66h-121v-204h-105v204zM131 256h223v285z" />
    <glyph glyph-name="five.denominator" unicode="&#xf65a;" horiz-adv-x="618" 
d="M496 678l-17 -94h-305l-8 -168q55 20 117 20q107 0 183.5 -66t76.5 -155q0 -97 -84.5 -163t-210.5 -66q-64 0 -126.5 18.5t-62.5 52.5q0 19 15.5 29t36.5 10q34 0 86 -39q38 -34 77 -34q56 0 105 46.5t49 123.5q0 43 -17 76t-44.5 50t-54.5 25t-52 8q-61 0 -127 -41
l-24 15l16 338h303q17 0 23 14h45z" />
    <glyph glyph-name="six.denominator" unicode="&#xf65b;" horiz-adv-x="618" 
d="M487 680l23 -27q-52 -18 -91 -37t-88 -53.5t-83.5 -87.5t-50.5 -121q78 47 153 47q98 0 163 -59.5t65 -138.5q0 -84 -71 -150.5t-177 -66.5q-109 0 -186.5 74t-77.5 204q0 154 116 262.5t305 153.5zM184 305q0 -2 -2 -21t-2 -40q0 -113 43.5 -170.5t108.5 -57.5t98 51
t33 126q0 79 -35.5 125.5t-93.5 46.5q-59 0 -150 -60z" />
    <glyph glyph-name="seven.denominator" unicode="&#xf65c;" horiz-adv-x="618" 
d="M260 -12h-90l291 596h-289q-61 0 -68 -11q-5 -8 -14 -51h-43l8 142h504v-29z" />
    <glyph glyph-name="eight.denominator" unicode="&#xf65d;" horiz-adv-x="618" 
d="M227 334l-37 18q-52 24 -85 62.5t-33 87.5q0 70 66.5 123t166.5 53q93 0 161.5 -46t68.5 -112q0 -32 -15.5 -59t-43.5 -45.5t-46.5 -27.5t-44.5 -19l43 -21q51 -23 90 -63.5t39 -100.5q0 -81 -70 -139.5t-180 -58.5q-99 0 -172.5 50.5t-73.5 127.5q0 35 16.5 64.5
t46.5 50.5t51.5 32t51.5 23zM309 16q62 0 105 39.5t43 98.5q0 54 -33.5 81t-147.5 80q-114 -50 -114 -149q0 -65 41.5 -107.5t105.5 -42.5zM166 537q0 -50 35.5 -77.5t134.5 -71.5q5 -2 8 -3q92 53 92 137q0 50 -35.5 87.5t-97.5 37.5q-55 0 -96 -30.5t-41 -79.5z" />
    <glyph glyph-name="nine.denominator" unicode="&#xf65e;" horiz-adv-x="618" 
d="M141 -14l-22 26q59 21 105.5 44.5t78 50t53 49.5t37 53.5t23 50.5t16.5 51q-26 -15 -42 -23t-46.5 -16t-64.5 -8q-98 0 -163 60t-65 139q0 85 71.5 151t176.5 66q108 0 186 -74.5t78 -204.5q0 -155 -116.5 -262.5t-305.5 -152.5zM442 360q7 35 7 78q0 24 -6 54t-20.5 68
t-47 63.5t-78.5 25.5q-68 0 -99.5 -51.5t-31.5 -122.5q0 -82 36 -128t93 -46q64 0 147 59z" />
    <glyph glyph-name="zero.numerator" unicode="&#xf661;" horiz-adv-x="618" 
d="M47 958q0 149 78 248t186 99t185 -100.5t77 -246.5t-76.5 -246t-187.5 -100q-107 0 -184.5 99t-77.5 247zM162 958q0 -154 34.5 -234.5t114.5 -80.5q148 0 148 315q0 316 -148 316q-80 0 -114.5 -81t-34.5 -235z" />
    <glyph glyph-name="one.numerator" unicode="&#xf662;" horiz-adv-x="618" 
d="M313 1305h62v-605q0 -24 8 -32.5t29 -8.5h75v-32h-327v32h67q29 0 36 7.5t7 33.5v496q-81 -51 -145 -78l-16 27q48 29 109 75.5t95 84.5z" />
    <glyph glyph-name="two.numerator" unicode="&#xf663;" horiz-adv-x="618" 
d="M16 627v24q45 50 230 209q155 134 155 240q0 60 -44.5 96.5t-102.5 36.5q-31 0 -62.5 -10t-67 -44t-52.5 -87h-41q11 105 86 160t170 55q97 0 166 -53.5t69 -137.5q0 -33 -9.5 -61t-22.5 -48.5t-42.5 -47t-52 -43.5t-69.5 -50q-94 -68 -201 -161h262q71 0 88 11t29 70h43
l-25 -159h-506z" />
    <glyph glyph-name="three.numerator" unicode="&#xf664;" horiz-adv-x="618" 
d="M205 940l-23 29q168 105 168 180q0 42 -32.5 66t-71.5 24q-11 0 -22.5 -2t-36.5 -10.5t-51 -32.5t-46 -61l-43 14q38 82 104.5 120t133.5 38q71 0 120.5 -34.5t49.5 -88.5q0 -76 -111 -142q87 -7 134.5 -58t47.5 -120q0 -96 -95 -173t-224 -77q-69 0 -131 23t-62 57
q0 19 16 31t36 12q18 0 33 -8t59 -39q46 -29 73 -34q9 -1 19 -1q61 0 111.5 53t50.5 130q0 68 -38 103.5t-81 35.5q-44 0 -88 -35z" />
    <glyph glyph-name="four.numerator" unicode="&#xf665;" horiz-adv-x="618" 
d="M354 817h-309v31l361 459h53v-424h121v-66h-121v-205h-105v205zM131 883h223v284z" />
    <glyph glyph-name="five.numerator" unicode="&#xf666;" horiz-adv-x="618" 
d="M494 1305l-17 -95h-303l-8 -168q20 9 57 17q40 4 60 4q106 0 182 -66t76 -155q0 -97 -84.5 -163.5t-208.5 -66.5q-64 0 -126.5 19t-62.5 53q0 15 15.5 27t36.5 12q37 0 86 -39q39 -35 77 -35q53 0 102.5 46t49.5 124q0 44 -17.5 77t-44.5 50t-53.5 25t-50.5 8
q-70 0 -127 -41l-24 14l16 338h268q32 0 41 2.5t15 12.5h45z" />
    <glyph glyph-name="six.numerator" unicode="&#xf667;" horiz-adv-x="618" 
d="M487 1307l23 -27q-52 -18 -91 -37t-88 -53.5t-83.5 -87.5t-50.5 -121q78 47 153 47q98 0 163 -60t65 -139q0 -84 -71 -150.5t-177 -66.5q-109 0 -186.5 74.5t-77.5 204.5q0 154 116 262.5t305 153.5zM184 932q0 -2 -2 -21.5t-2 -40.5q0 -113 43.5 -170t108.5 -57t98 50.5
t33 125.5q0 79 -35.5 125.5t-93.5 46.5q-60 0 -150 -59z" />
    <glyph glyph-name="seven.numerator" unicode="&#xf668;" horiz-adv-x="618" 
d="M260 612h-90l291 596h-324q-24 0 -32.5 -11t-14.5 -50h-43l8 141h504z" />
    <glyph glyph-name="eight.numerator" unicode="&#xf669;" horiz-adv-x="618" 
d="M227 961q-29 13 -47 23t-47.5 31t-45 50t-15.5 63q0 70 66.5 123.5t166.5 53.5q93 0 161.5 -46t68.5 -112q0 -96 -150 -152q28 -12 45 -20t44 -25.5t43 -35t28 -45t12 -58.5q0 -81 -70 -140t-180 -59q-99 0 -172.5 51t-73.5 128q0 106 166 170zM346 1012q24 15 39.5 27
t33 42t17.5 68q0 50 -35.5 87.5t-97.5 37.5q-55 0 -96 -31t-41 -80q0 -50 38.5 -79t141.5 -72zM274 944q-25 -15 -38.5 -24t-34 -27.5t-30 -43.5t-9.5 -56q0 -65 41.5 -107.5t105.5 -42.5q62 0 105 39t43 98q0 47 -38 84t-145 80z" />
    <glyph glyph-name="nine.numerator" unicode="&#xf66a;" horiz-adv-x="618" 
d="M141 612l-22 27q59 21 105.5 44.5t78 50t53 49.5t37 53.5t23 50.5t16.5 51q-26 -15 -42 -23t-46.5 -16t-64.5 -8q-98 0 -163 60t-65 139q0 85 71.5 151t176.5 66q108 0 186 -74.5t78 -204.5q0 -155 -116.5 -263t-305.5 -153zM442 987q7 35 7 78q0 24 -6 54t-20.5 68
t-47 63.5t-78.5 25.5q-68 0 -99.5 -51.5t-31.5 -122.5q0 -82 36 -128t93 -46q64 0 147 59z" />
    <glyph glyph-name="one.fitted" unicode="&#xf6dc;" horiz-adv-x="747" 
d="M369 1305h71v-1188q0 -47 14.5 -62.5t61.5 -15.5h115v-39h-516v39h110q48 0 63 16.5t15 63.5v1022q-51 -44 -125.5 -93t-130.5 -75l-16 28q88 59 194.5 155t143.5 149z" />
    <glyph glyph-name="R_p" unicode="&#xf6dd;" horiz-adv-x="2177" 
d="M1315 10v-37q-106 -2 -185.5 32t-140 96.5t-139.5 179.5q-4 6 -46 72t-76.5 117.5t-47.5 66.5h-272v-277q1 -115 13 -148q17 -47 79 -63q42 -11 127 -14v-35h-588v35q129 0 172 47q19 21 23 50t4 132v760q0 89 -4 116t-25 48q-24 23 -61 33.5t-109 11.5v37q80 8 246 15
t262 7q209 0 356 -61q84 -37 143.5 -121.5t59.5 -185.5q0 -25 -4 -52t-20.5 -68t-43.5 -77t-78.5 -72.5t-119.5 -60.5l247 -379q40 -61 73.5 -100.5t62.5 -60t46 -28t46 -16.5zM408 1249v-676q131 -2 192 2t117 23q97 30 145.5 118t48.5 199q0 32 -5 64t-19.5 78t-50 86
t-88.5 65q-46 23 -107 33.5t-116.5 9.5t-116.5 -2zM1481 874v-196q117 83 186 115q65 32 129 32q120 0 212.5 -114.5t92.5 -266.5q0 -122 -61 -228t-161 -167t-212 -61q-80 0 -186 39v-244q0 -37 0.5 -54t2 -44t5 -39t10 -30t16 -25t24 -15.5t34 -11t45.5 -2.5h51v-39h-483
v39q111 0 134 39.5t23 178.5v3v774q-2 69 -4.5 85t-15.5 26q-11 9 -102 32v39l219 135h41zM1481 627v-463q61 -58 126 -85.5t115 -27.5q96 0 169 85t73 231q0 158 -80 259t-188 101q-58 0 -116 -31.5t-99 -68.5z" />
    <glyph glyph-name="cent.inferior" unicode="&#xf6df;" horiz-adv-x="575" 
d="M385 434l61 133h50l-66 -141q72 -18 72 -57q0 -14 -13 -25.5t-36 -11.5q-27 0 -56 22l-139 -297q28 -16 70 -16q35 0 63.5 13.5t42.5 26t39 40.5l35 -19q-81 -116 -223 -116q-37 0 -58 6l-77 -170h-50l84 182q-39 20 -65.5 49t-36.5 59.5t-13 48t-3 32.5q0 104 92 177.5
t227 63.5zM221 84l139 299q-20 12 -45 12q-59 0 -102 -53t-43 -125q0 -78 51 -133z" />
    <glyph glyph-name="cent.superior" unicode="&#xf6e0;" horiz-adv-x="532" 
d="M373 1063l61 133h49l-65 -141q71 -18 71 -58q0 -14 -13 -25t-36 -11q-26 0 -55 22l-139 -297q28 -16 69 -16q35 0 64 13t43 26.5t39 40.5l35 -19q-82 -117 -224 -117q-33 0 -57 7l-78 -170h-49l84 182q-39 20 -65.5 49t-37 59t-13.5 47.5t-3 32.5q0 104 92.5 178
t227.5 64zM209 713l139 299q-20 12 -45 12q-59 0 -102 -53t-43 -125q0 -78 51 -133z" />
    <glyph glyph-name="comma.inferior" unicode="&#xf6e1;" horiz-adv-x="342" 
d="M113 -182l-15 35q37 17 70 47.5t33 68.5q0 19 -15 19q-2 0 -11.5 -2t-10.5 -2q-39 0 -55.5 20.5t-16.5 40.5q0 30 24.5 49t57.5 19q39 0 72 -27.5t33 -81.5q0 -56 -41.5 -107t-124.5 -79z" />
    <glyph glyph-name="comma.superior" unicode="&#xf6e2;" horiz-adv-x="342" 
d="M111 367l-13 34q103 57 103 123q0 17 -11 17q-1 0 -4 -1t-9.5 -2t-16.5 -1q-34 0 -52 19.5t-18 43.5q0 30 25 49t59 19q38 0 71.5 -27t33.5 -84q0 -53 -40 -106t-128 -84z" />
    <glyph glyph-name="dollar.inferior" unicode="&#xf6e3;" horiz-adv-x="575" 
d="M199 39v280q-22 14 -32 20.5t-34 25t-36.5 33.5t-24 37t-11.5 44q0 47 36.5 85.5t101.5 56.5v71h45v-63q39 3 75 0v63h46v-71q72 -17 107.5 -44t35.5 -51q0 -15 -13.5 -27t-33.5 -12q-28 0 -45 19q-4 4 -25.5 28.5t-25.5 28.5v-219q101 -54 136.5 -93.5t35.5 -88.5
q0 -61 -46 -104t-126 -64v-100h-46v94q-25 -3 -75 0v-94h-45v100q-43 10 -75 26t-47.5 29.5t-24.5 29t-11 22.5t-2 12q0 16 15.5 29.5t37.5 13.5q38 0 55 -43q9 -22 13.5 -31t14.5 -22t24 -21zM319 369v221q-29 12 -75 8v-188q32 -19 75 -41zM199 440v144q-47 -23 -47 -68
q0 -24 10.5 -40t36.5 -36zM319 20v238q-8 4 -38.5 20t-36.5 19v-274q34 -8 75 -3zM365 233v-200q75 33 75 102q0 24 -11.5 43t-24.5 29t-39 26z" />
    <glyph glyph-name="dollar.superior" unicode="&#xf6e4;" horiz-adv-x="575" 
d="M190 666v282q-21 12 -32 19t-34 24.5t-36 32.5t-24 38t-11 46q0 47 36 85t101 56v72h46v-64q39 3 75 0v64h45v-72q72 -17 108 -44t36 -50q0 -16 -13.5 -28.5t-33.5 -12.5q-26 0 -45 21q-4 4 -26 28.5t-26 28.5v-219q101 -55 136.5 -94.5t35.5 -90.5q0 -61 -45.5 -103.5
t-126.5 -63.5v-101h-45v94q-25 -3 -75 0v-94h-46v101q-43 10 -74.5 25.5t-47 29.5t-25 29t-11 22t-1.5 12q0 16 15.5 29.5t37.5 13.5q38 0 55 -43q10 -23 13.5 -31t13.5 -21t24 -21zM190 1067v145q-47 -23 -47 -67q0 -24 10.5 -40.5t36.5 -37.5zM311 995v224q-29 12 -75 8
v-189q57 -34 75 -43zM311 647v238q-48 30 -75 39v-275q31 -7 75 -2zM356 860v-201q76 35 76 103q0 24 -12 43t-25 29t-39 26z" />
    <glyph glyph-name="hyphen.inferior" unicode="&#xf6e5;" horiz-adv-x="512" 
d="M27 289h452v-94h-452v94z" />
    <glyph glyph-name="hyphen.superior" unicode="&#xf6e6;" horiz-adv-x="532" 
d="M35 846h459v-96h-459v96z" />
    <glyph glyph-name="period.inferior" unicode="&#xf6e7;" horiz-adv-x="342" 
d="M90 49q0 28 23.5 46t56.5 18q34 0 57 -18t23 -46t-23.5 -45.5t-56.5 -17.5t-56.5 17t-23.5 46z" />
    <glyph glyph-name="period.superior" unicode="&#xf6e8;" horiz-adv-x="342" 
d="M90 602q0 27 23.5 45.5t56.5 18.5q35 0 58.5 -17.5t23.5 -46.5q0 -31 -23.5 -48t-56.5 -17t-57.5 17.5t-24.5 47.5z" />
    <glyph glyph-name="b.superior" unicode="&#xf6ea;" horiz-adv-x="641" 
d="M-6 1323l160 51h30v-399q75 43 115.5 59.5t77.5 16.5q80 0 148.5 -67t68.5 -171q0 -113 -86.5 -194.5t-216.5 -81.5q-48 0 -114.5 9.5t-84.5 14.5v666q0 45 -2 51q-1 2 -4 4t-8 3t-9.5 2t-10 2t-7.5 1l-57 8v25zM184 934v-168q0 -94 17 -127q33 -57 135 -57q72 0 119 56
t47 142t-49.5 144.5t-122.5 58.5q-58 0 -146 -49z" />
    <glyph glyph-name="d.superior" unicode="&#xf6eb;" horiz-adv-x="641" 
d="M485 537h-26v75q-22 -10 -57 -28t-50 -25q-49 -22 -94 -22q-84 0 -148.5 66.5t-64.5 172.5q0 85 44.5 149.5t108.5 95t134 30.5q17 0 38.5 -3t50 -8.5t38.5 -7.5v195q0 45 -2 51q-3 5 -37 12l-66 4v29l166 57h31v-692q0 -46 4 -55.5t27 -9.5q7 0 51 10q12 4 20 4v-37z
M459 655v265q-73 86 -162 86q-74 0 -117 -58t-43 -137q0 -98 52.5 -153.5t115.5 -55.5q19 0 42 6.5t38 13t41 18.5t33 15z" />
    <glyph glyph-name="e.superior" unicode="&#xf6ec;" horiz-adv-x="575" 
d="M537 866h-387q-5 -25 -5 -53q0 -88 56 -151.5t143 -63.5q43 0 82.5 17t51 27.5t30.5 29.5l14 -15q-20 -23 -46.5 -46t-81 -48.5t-109.5 -25.5q-101 0 -166.5 74.5t-65.5 174.5q0 101 70 183t184 82q141 0 193 -103q19 -39 37 -57v-25zM152 895h272q-7 49 -41.5 90
t-91.5 41q-45 0 -82.5 -32.5t-56.5 -98.5z" />
    <glyph glyph-name="i.superior" unicode="&#xf6ed;" horiz-adv-x="342" 
d="M168 1337q29 0 43 -15t14 -32q0 -20 -15 -33.5t-42 -13.5t-42 15t-15 32q0 18 14.5 32.5t42.5 14.5zM219 1051v-357q0 -29 0.5 -41t3 -29t8 -23t17 -13.5t27 -10t40.5 -4.5v-22h-295v22q72 3 89.5 24t17.5 97v199q0 36 -1.5 44.5t-10.5 14.5q-13 11 -58 19l-28 6v18
l159 56h31z" />
    <glyph glyph-name="l.superior" unicode="&#xf6ee;" horiz-adv-x="319" 
d="M207 1376v-659q0 -83 3 -100.5t23 -30.5q17 -13 74 -13v-22h-299v22q27 0 45 2.5t30 10.5t18.5 15.5t9.5 26.5t3.5 33.5t0.5 45.5v497q0 70 -4 78q-6 11 -52 18l-41 7v20l158 49h31z" />
    <glyph glyph-name="m.superior" unicode="&#xf6ef;" horiz-adv-x="1044" 
d="M207 1051v-97q162 97 237 97q13 0 25.5 -2.5t34 -10.5t39 -30.5t26.5 -55.5q159 99 242 99q27 0 48 -8t34 -19.5t22.5 -31.5t14 -36t7 -42t3 -40.5t0.5 -39.5q0 -17 -3 -103.5t-3 -101.5q0 -16 6 -27t13.5 -16.5t24.5 -8.5t30.5 -3.5t38.5 -0.5v-22h-299v22h31t23 4
t18.5 8.5t11.5 18t8.5 28t4.5 43t3 59v79.5q0 36 -0.5 54.5t-5.5 48.5t-14.5 45.5t-28.5 27.5t-47 12q-46 0 -111 -32q-16 -8 -29.5 -15.5t-24 -14.5t-14.5 -9v-228q0 -87 11.5 -108t70.5 -21v-22h-270v22q35 0 55 6.5t29 26.5t10.5 37.5t1.5 58.5v144q0 31 -0.5 47
t-5.5 40.5t-14.5 36.5t-28 21.5t-45.5 9.5q-62 0 -180 -69v-230q0 -36 0.5 -50.5t3.5 -33.5t7.5 -24.5t16.5 -12t26.5 -7.5t39.5 -1v-22h-276v22q27 0 44 6t26.5 14t14 27.5t5 34t0.5 47.5v170q0 56 -2 69.5t-11 19.5q-19 12 -73 18v20l147 52h31z" />
    <glyph glyph-name="r.superior" unicode="&#xf6f1;" horiz-adv-x="448" 
d="M39 999l145 52h31v-123q57 81 72 96q24 27 57 27q4 0 16 -3t24.5 -7t14.5 -5q46 -12 60 -14l-33 -74q-29 4 -72 19q-28 12 -45 12q-19 0 -43 -24t-35.5 -41.5t-15.5 -26.5v-185q0 -87 12 -108t74 -21h51v-22h-313v22q25 0 41 6.5t24.5 15t13 28.5t5 34t0.5 45v246l-84 31
v20z" />
    <glyph glyph-name="s.superior" unicode="&#xf6f2;" horiz-adv-x="405" 
d="M45 684h18q28 -123 127 -123q36 0 63.5 22.5t27.5 57.5q0 59 -117 131q-51 31 -71 45.5t-35 38.5t-15 57q0 64 50 101t122 37q52 0 104 -19l5 -112h-25q-3 15 -8.5 29.5t-17 32.5t-31.5 29t-47 11q-31 0 -54.5 -19.5t-23.5 -50.5q0 -17 7.5 -31.5t24.5 -29t30 -23.5
t38 -24q36 -21 55 -33.5t43 -34t34.5 -46t10.5 -54.5q0 -56 -45 -97.5t-118 -41.5q-32 0 -64 8q-24 8 -33 8q-10 0 -20 -14h-23z" />
    <glyph glyph-name="t.superior" unicode="&#xf6f3;" horiz-adv-x="385" 
d="M190 1036h187l-23 -53h-164v-276q0 -53 21 -80q11 -14 30.5 -23.5t32.5 -9.5q49 0 82 61l21 -18q-16 -35 -39.5 -57.5t-47.5 -30.5t-36 -10t-23 -2q-33 0 -62.5 16t-47.5 43q-16 23 -19.5 46.5t-3.5 72.5v268h-61v21q37 14 71.5 54.5t55.5 98.5h26v-121z" />
    <glyph glyph-name="breve.sc" unicode="&#xf6f4;" horiz-adv-x="681" 
d="M61 1352h33q4 -18 9.5 -34t23.5 -47t42.5 -52.5t69.5 -38.5t101 -17q57 0 102 17t70 38.5t43 52.5t23.5 47t9.5 34h33q-3 -130 -79.5 -225t-201.5 -95q-123 0 -199.5 95t-79.5 225z" />
    <glyph glyph-name="caron.sc" unicode="&#xf6f5;" horiz-adv-x="681" 
d="M340 1143l250 256v-35l-215 -369h-64l-217 369v35z" />
    <glyph glyph-name="circumflex.sc" unicode="&#xf6f6;" horiz-adv-x="681" 
d="M336 1253l-242 -258v37l221 367h58l217 -367v-37z" />
    <glyph glyph-name="dotaccent.sc" unicode="&#xf6f7;" horiz-adv-x="681" 
d="M252 1147q0 37 26.5 63.5t63.5 26.5t63.5 -26.5t26.5 -63.5q0 -38 -26.5 -64t-63.5 -26t-63.5 26.5t-26.5 63.5z" />
    <glyph glyph-name="hungarumlaut.sc" unicode="&#xf6f8;" horiz-adv-x="681" 
d="M33 999h-27l127 172q36 51 52.5 73.5t43 52.5t49.5 41.5t48 11.5q28 0 45.5 -17.5t17.5 -40.5q0 -28 -26 -59t-113 -88zM324 999h-27l127 172q34 51 51 74t43 52.5t48.5 41t47.5 11.5q29 0 46.5 -17.5t17.5 -40.5q0 -19 -7 -34t-38.5 -44t-91.5 -69z" />
    <glyph glyph-name="lslash.sc" unicode="&#xf6f9;" horiz-adv-x="854" 
d="M61 319l140 134v247q0 38 -1 57.5t-6.5 40.5t-14.5 29.5t-28 16t-44.5 9.5t-65.5 1v37h475v-37q-46 -1 -67 -1.5t-44.5 -4.5t-31 -9t-15.5 -17.5t-9 -27.5t-1 -42v-177l133 127v-75l-133 -127v-377q0 -37 2 -46.5t12 -13.5q31 -14 127 -14q119 0 169 27t108 133h37
l-88 -209h-660v37q49 -2 78 3.5t44 22t19.5 37t4.5 56.5v219l-140 -133v77z" />
    <glyph glyph-name="oe.sc" unicode="&#xf6fa;" horiz-adv-x="1386" 
d="M1266 891l12 -195h-39q-13 98 -53 127q-24 19 -82 19h-234v-363h222q31 0 45 2t27.5 12.5t19 32.5t8.5 62h37v-273h-37q-3 47 -6 65.5t-17.5 33t-35.5 16.5t-68 2h-195v-295q0 -58 16.5 -71t90.5 -13h131q80 0 119.5 31.5t62.5 134.5h35l-16 -219h-541q-23 0 -61.5 -1
t-53.5 -1q-70 -4 -94 -4q-97 0 -178.5 28.5t-135 75t-91 106.5t-54 121t-16.5 121q0 120 57 222t164.5 164.5t243.5 62.5q37 0 127 -2t127 -2h463zM723 289v407q0 26 -1 41t-9.5 40t-25 39t-49.5 25t-81 11q-72 0 -129 -26t-90.5 -66.5t-55.5 -95.5t-30 -106t-8 -105
q0 -184 88.5 -300t222.5 -116q31 0 55.5 4.5t41.5 15.5t29.5 22t20.5 32t12.5 36t6 44t2 46t0.5 52z" />
    <glyph glyph-name="ogonek.sc" unicode="&#xf6fb;" horiz-adv-x="681" 
d="M190 12h54q-27 -56 -27 -98q0 -45 16.5 -80.5t40.5 -56.5t54 -34.5t55.5 -18.5t46.5 -5q56 0 119 23l22 -33q-83 -45 -127.5 -60.5t-103.5 -15.5q-114 0 -171.5 56.5t-57.5 128.5q0 23 4.5 50.5t23.5 70.5t51 73z" />
    <glyph glyph-name="ring.sc" unicode="&#xf6fc;" horiz-adv-x="681" 
d="M156 1133q0 77 55 131.5t131 54.5t131 -54.5t55 -131.5t-55 -132t-131 -55q-75 0 -130.5 55.5t-55.5 131.5zM205 1133q0 -58 40 -98t97 -40t97 40.5t40 97.5t-40 97t-97 40t-97 -40t-40 -97z" />
    <glyph glyph-name="scaron.sc" unicode="&#xf6fd;" horiz-adv-x="747" 
d="M588 895l20 -205h-39q-30 80 -69 119q-32 33 -71.5 50.5t-74.5 17.5q-61 0 -101 -39.5t-40 -92.5q0 -26 9 -47.5t22 -39t51 -46.5t71.5 -51.5t108.5 -71.5q25 -16 40 -27t44.5 -38t47 -53t32 -65.5t14.5 -82.5q0 -106 -75.5 -180t-198.5 -74q-36 0 -64 6t-112 29
q-16 4 -25 4q-22 0 -28 -18h-33l-25 221h41q21 -61 54.5 -104.5t68.5 -62.5t60.5 -26.5t45.5 -7.5q24 0 51.5 8t56 25t47 49.5t18.5 75.5q0 72 -50.5 123t-177.5 129q-125 78 -169 140.5t-44 129.5q0 97 72.5 163.5t167.5 66.5q67 0 131 -23q1 0 28 -10t33 -10q12 0 25 18
h37zM340 1143l250 256v-35l-215 -369h-64l-217 369v35z" />
    <glyph glyph-name="tilde.sc" unicode="&#xf6fe;" horiz-adv-x="681" 
d="M88 1057h-22q0 1 1 15.5t1.5 21t2 21.5t3.5 25t5 23t7 24t10 21q51 82 135 82q37 0 66.5 -14.5t87.5 -54.5q52 -36 74.5 -47t44.5 -11q83 0 90 125h22q4 -112 -44 -170.5t-113 -58.5q-35 0 -63.5 13.5t-90.5 55.5q-76 50 -93 55q-11 3 -24 3q-83 0 -100 -129z" />
    <glyph glyph-name="zcaron.sc" unicode="&#xf6ff;" horiz-adv-x="960" 
d="M129 891h743v-35l-632 -803h397q63 0 89 6t40 21q40 55 70 190h36l-16 -270h-793v53l625 793h-354q-35 0 -52.5 -1t-38.5 -6t-31 -15t-21.5 -28.5t-18.5 -45.5t-14 -68h-37zM467 1141l250 258v-37l-215 -367h-66l-215 367v37z" />
    <glyph glyph-name="exclam.sc" unicode="&#xf721;" horiz-adv-x="362" 
d="M92 59q0 36 25.5 59t64.5 23q38 0 63 -23.5t25 -58.5q0 -37 -25.5 -60.5t-64.5 -23.5q-38 0 -63 23.5t-25 60.5zM209 219h-55l-56 635q-2 22 -1 37t12.5 22t37.5 7h66q35 0 43.5 -13.5t5.5 -52.5z" />
    <glyph glyph-name="ampersand.sc" unicode="&#xf726;" horiz-adv-x="1173" 
d="M815 596h248v-37q-49 1 -73.5 -3.5t-37 -14.5t-24.5 -33q-60 -116 -183 -275q34 -56 57.5 -91t56.5 -67t59 -32q30 0 90 35l20 -33q-112 -76 -188 -76q-36 0 -67.5 15t-57.5 44t-39 47.5t-31 49.5q-39 -33 -61 -49.5t-67 -47t-87 -45t-82 -14.5q-26 0 -54 6t-60 22.5
t-57 41t-41.5 66t-16.5 94.5q0 38 8.5 71t21 56.5t34.5 45t39 34.5t46 26.5t44 20t44 16.5q-49 53 -73.5 94t-24.5 94q0 86 58 132.5t147 46.5q81 0 138.5 -40.5t57.5 -105.5q0 -34 -12.5 -62t-38 -51t-43 -35t-49.5 -30q64 -60 109.5 -112t99.5 -132q73 95 120.5 172.5
t47.5 94.5q0 14 -11 19t-36 5h-31v37zM481 543q20 21 29.5 33.5t20 41.5t10.5 64q0 66 -27 95.5t-59 29.5q-34 0 -56 -29.5t-22 -70.5q0 -49 21.5 -80.5t82.5 -83.5zM385 438q-23 -17 -37.5 -30t-38.5 -40t-36.5 -62.5t-12.5 -76.5q0 -76 47 -125t119 -49q39 0 80 19.5
t62.5 36.5t54.5 47q-34 62 -68 101t-170 179z" />
    <glyph glyph-name="question.sc" unicode="&#xf73f;" horiz-adv-x="491" 
d="M270 236h-77q-76 93 -76 161q0 32 11 57t31.5 40.5t35.5 23t36 14.5q39 15 58 23.5t46 26.5t38.5 41.5t11.5 54.5q0 108 -129 108q-9 0 -56 -5t-55 -5q-94 0 -94 68q0 29 17.5 48t45.5 26t43.5 8.5t30.5 1.5q47 0 92.5 -16t85 -47.5t63.5 -85.5t24 -122q0 -181 -185 -249
q-42 -15 -56.5 -25.5t-14.5 -30.5q0 -26 14.5 -47t58.5 -69zM125 59q0 36 25.5 59t64.5 23q37 0 62.5 -24t25.5 -60t-25.5 -59t-64.5 -23q-38 0 -63 23.5t-25 60.5z" />
    <glyph glyph-name="grave.sc" unicode="&#xf760;" horiz-adv-x="681" 
d="M506 999l-217 146q-61 41 -93 71.5t-38 44t-6 29.5q0 28 18 44t43 16q21 0 41.5 -9.5t36 -21.5t38 -40.5t36 -47t41.5 -60.5l126 -172h-26z" />
    <glyph glyph-name="a.sc" unicode="&#xf761;" 
d="M444 920h148l280 -762q16 -43 23.5 -60.5t24 -33.5t38 -20.5t62.5 -6.5v-37h-428v37q35 1 52.5 2.5t41.5 7t34.5 18.5t10.5 33q0 32 -29 113l-63 172h-295l-47 -119q-39 -103 -39 -149q0 -18 8.5 -31.5t19 -21t33 -13t36.5 -7.5t44 -5v-37h-352v37q39 8 62 17.5t42 34
t28.5 45.5t31.5 75l254 651zM496 776l-129 -334h251z" />
    <glyph glyph-name="b.sc" unicode="&#xf762;" horiz-adv-x="960" 
d="M82 840v37q245 24 369 24q20 0 39.5 -0.5t58.5 -5t71.5 -11.5t70.5 -22t64.5 -35t44 -52.5t17.5 -72.5q0 -39 -17 -71.5t-38 -51.5t-54.5 -35.5t-52 -22.5t-45.5 -13q56 -14 99 -31.5t84.5 -46t64.5 -72t23 -98.5q0 -56 -23 -102t-58 -74.5t-79 -48t-84 -27.5t-74 -8
h-514v37q62 8 92 15.5t49 28.5t23 48t4 84v518q0 37 -2 52.5t-15.5 31t-40 19.5t-77.5 6zM367 860v-338h75q115 0 168.5 43t53.5 135q0 154 -211 162q-63 0 -86 -2zM367 479v-315q0 -33 2.5 -49t13 -36t36 -28t68.5 -8q104 0 171 49t67 160q0 227 -266 227h-92z" />
    <glyph glyph-name="c.sc" unicode="&#xf763;" 
d="M967 870l8 -213h-31q-16 32 -29 53.5t-42 57t-60.5 57.5t-81.5 39t-108 17q-101 0 -180.5 -62.5t-120.5 -165t-41 -225.5q0 -98 29 -179.5t76.5 -131t103 -76.5t112.5 -27q203 0 365 205h34q-24 -66 -45 -108t-69 -119q-56 5 -117 0q-143 -12 -176 -12q-220 0 -347.5 127
t-127.5 329q0 110 44 204t114.5 155t157.5 95t175 34q68 0 127.5 -18t98 -36t55.5 -18q25 0 43 18h33z" />
    <glyph glyph-name="d.sc" unicode="&#xf764;" horiz-adv-x="1173" 
d="M57 0v37q56 2 83.5 6.5t47 19.5t24.5 38.5t5 68.5v543q0 44 -4 65t-21.5 37t-47 20t-87.5 5v37q228 24 447 24q34 0 69 -2t94 -12t110 -27t107 -51t95.5 -78.5t65.5 -115t26 -156.5q0 -94 -34.5 -173.5t-88 -130.5t-109 -82.5t-108.5 -43.5q-131 -29 -315 -29h-359z
M365 854v-715q0 -55 6 -69q15 -27 121 -27q104 0 183 30.5t122.5 74.5t70.5 103.5t35 108.5t8 99q0 42 -7 84t-25.5 96t-61 100.5t-104.5 73.5q-47 21 -110 31t-119.5 10h-118.5z" />
    <glyph glyph-name="e.sc" unicode="&#xf765;" horiz-adv-x="854" 
d="M342 846v-369h221q23 0 33.5 0.5t25 3.5t20 9.5t13 19t10.5 31.5t5 47h41v-277h-41q-3 83 -23.5 102t-97.5 19h-207v-293q0 -65 12.5 -76.5t79.5 -11.5h156q39 0 62 4.5t46 20.5t39.5 50t30.5 91h39l-19 -217h-739v35q64 -2 96 11.5t41 37t9 70.5v581q0 76 -29 98.5
t-117 20.5v37h701l8 -195h-37q-9 51 -19.5 80.5t-30 45t-42.5 20t-64 4.5h-223z" />
    <glyph glyph-name="f.sc" unicode="&#xf766;" horiz-adv-x="747" 
d="M57 891h637v-180h-37q-7 45 -13 70t-9.5 31.5t-9.5 12.5q-19 19 -99 19h-204v-348h225q58 0 83.5 20t26.5 76h37v-250h-37q-4 68 -24 88.5t-78 20.5h-233v-316q0 -28 1.5 -39.5t7 -25t21.5 -18t39 -8.5t66 -7v-37h-400v37q78 7 97.5 26t19.5 80v586q0 77 -18 96.5
t-99 28.5v37z" />
    <glyph glyph-name="g.sc" unicode="&#xf767;" 
d="M903 877v-234h-35q-10 34 -17.5 54.5t-24.5 49.5t-40 52q-39 37 -94.5 59.5t-111.5 22.5q-141 0 -227.5 -120.5t-86.5 -311.5q0 -102 24 -181.5t59.5 -124.5t82.5 -74.5t86.5 -39t77.5 -9.5q75 0 160 46v139v41t-6.5 27t-13.5 19t-29 9t-45 6t-70 2v37h434v-37
q-29 -2 -39 -2.5t-28.5 -3.5t-22.5 -5.5t-14 -9t-11 -13t-4.5 -19.5t-3.5 -26.5v-36.5v-113q-68 -33 -108 -49.5t-108.5 -33.5t-135.5 -17q-61 0 -122 15.5t-119.5 50.5t-103.5 86t-72.5 128.5t-27.5 171.5q0 115 40.5 210t107 155.5t148 93.5t167.5 33q66 0 126 -17
t96.5 -34t46.5 -17q14 0 30 21h35z" />
    <glyph glyph-name="h.sc" unicode="&#xf768;" horiz-adv-x="1173" 
d="M352 475h469v240q0 58 -8.5 82.5t-41 38.5t-105.5 18v37h458v-37q-102 -6 -128.5 -31.5t-26.5 -107.5v-539q0 -84 28.5 -108.5t126.5 -30.5v-37h-458v37q97 6 126 30.5t29 108.5v248h-469v-248q0 -84 29 -108.5t127 -30.5v-37h-459v37q97 6 126.5 30.5t29.5 108.5v539
q0 84 -29 108.5t-127 30.5v37h459v-37q-98 -6 -127 -30t-29 -109v-240z" />
    <glyph glyph-name="i.sc" unicode="&#xf769;" horiz-adv-x="555" 
d="M498 891v-37q-38 -2 -62 -4.5t-41.5 -11t-25.5 -16t-13 -29t-5.5 -38.5t-0.5 -55v-507q0 -96 29 -123t127 -33v-37h-451v37q97 3 123.5 30t26.5 130v501q0 96 -29 123t-127 33v37h449z" />
    <glyph glyph-name="j.sc" unicode="&#xf76a;" horiz-adv-x="641" 
d="M131 854v37h453v-37q-31 -3 -46 -4.5t-35.5 -6t-29.5 -11t-20 -17t-15 -26.5t-7 -38t-3 -53v-612q0 -53 -2 -89.5t-19 -100.5t-49 -111q-46 -67 -114 -116.5t-148 -49.5q-51 0 -98 26t-47 46q0 18 26 55t52 37q35 0 80 -45q50 -43 86 -43q48 0 71 53q17 55 17 283v663
q0 46 -5.5 75.5t-15.5 47.5t-30 26.5t-42 10t-59 0.5z" />
    <glyph glyph-name="k.sc" unicode="&#xf76b;" 
d="M592 891h391v-37q-43 -1 -66.5 -1.5t-48 -7t-35.5 -11.5t-30 -23.5t-30.5 -33t-37.5 -50.5q-8 -11 -30 -41t-33 -47q-35 -49 -65 -82.5t-45 -46t-44 -35.5q31 -24 43 -34t39.5 -37.5t73.5 -79.5q2 -3 92 -105.5t108 -122.5q25 -27 58 -41t51.5 -16t48.5 -2v-37h-430v37
q57 -2 86 3t29 26q0 36 -187 231q-74 77 -107.5 101.5t-76.5 27.5v-293q0 -27 1.5 -39.5t9 -28t25.5 -22t48 -6.5h55v-37h-434v37q93 -3 119.5 23t26.5 96v600q0 31 -1.5 43.5t-8 27t-23.5 18.5t-44.5 7t-74.5 2v37h447v-37q-65 2 -97 -11.5t-40.5 -37t-8.5 -70.5v-274
q26 3 43 7t43 16t55.5 37t63.5 65q50 57 97.5 131.5t47.5 99.5q0 22 -19 28t-76 9h-9v37z" />
    <glyph glyph-name="l.sc" unicode="&#xf76c;" horiz-adv-x="854" 
d="M41 891h475v-37q-46 -1 -66.5 -1.5t-44.5 -5t-31.5 -10.5t-15.5 -21t-9 -32.5t-1 -48.5v-612q0 -37 2 -46.5t12 -13.5q31 -14 127 -14q119 0 169 27t108 133h37l-88 -209h-660v37q66 0 96.5 11t40 34t9.5 74v561q0 33 -1 50.5t-6.5 36t-14.5 26t-28 14.5t-44.5 9t-65.5 1
v37z" />
    <glyph glyph-name="m.sc" unicode="&#xf76d;" horiz-adv-x="1386" 
d="M1004 891h288v-37q-78 0 -104 -11t-25 -48q0 -27 4 -117l31 -485q2 -27 3 -38.5t3 -31t5 -27l8 -20t12.5 -17t17.5 -11t24 -8t31.5 -3t40.5 -0.5v-37h-425v37q78 5 111.5 19t33.5 57q0 42 -4 92l-37 569l-338 -774h-39l-328 774l-51 -612q-4 -40 -4 -62q0 -63 125 -63
v-37h-344v37q116 5 137 33q17 22 27 143l45 543q4 63 -15.5 77.5t-109.5 20.5v37h293l289 -678z" />
    <glyph glyph-name="n.sc" unicode="&#xf76e;" horiz-adv-x="1173" 
d="M57 891h252l602 -668v512q0 23 -0.5 33.5t-3.5 28.5t-10 26.5t-20 16.5t-33 10q-28 4 -88 4v37h366v-37q-49 1 -78.5 -4.5t-44 -22.5t-18.5 -36.5t-4 -55.5v-741h-49l-662 735v-547q0 -36 2 -58.5t10.5 -39.5t17.5 -25.5t32 -13.5t44.5 -6t63.5 -2v-37h-381v37
q93 -3 119.5 23t26.5 96v573q0 34 -7.5 57.5t-17.5 36t-32 19.5t-38 8.5t-49 3.5v37z" />
    <glyph glyph-name="o.sc" unicode="&#xf76f;" horiz-adv-x="1173" 
d="M98 457q0 91 29.5 169t78.5 132.5t113 93t133 56.5t138 18q91 0 176 -29.5t155.5 -86t113 -148t42.5 -205.5q0 -100 -29.5 -182t-78 -136.5t-112.5 -92.5t-131.5 -54.5t-137.5 -16.5q-69 0 -136.5 16.5t-132 54.5t-113.5 92.5t-78.5 137t-29.5 181.5zM918 455
q0 114 -27 200.5t-74.5 136.5t-106 74.5t-126.5 24.5q-101 0 -177 -60.5t-112.5 -154t-36.5 -203.5q0 -153 30.5 -237t82.5 -136q90 -90 215 -90q62 0 118.5 24.5t105.5 74.5t78.5 139t29.5 207z" />
    <glyph glyph-name="p.sc" unicode="&#xf770;" horiz-adv-x="854" 
d="M522 37v-37h-469v37q93 -3 119.5 23t26.5 96v587q0 18 -0.5 28t-5 26.5t-13.5 24.5t-27 15t-44 7q-40 0 -64 -4v37q228 24 375 24q377 0 377 -260q0 -122 -89.5 -198t-215.5 -76q-55 0 -144 24v-239q0 -28 1 -43t8 -30t16.5 -21t31 -11.5t47.5 -7t70 -2.5zM348 858v-432
q62 -16 107 -16q52 0 90.5 22t56.5 49.5t28 65t11.5 55.5t1.5 35q0 25 -4 50.5t-17.5 58.5t-35 57.5t-62.5 41.5t-94 17q-46 0 -82 -4z" />
    <glyph glyph-name="q.sc" unicode="&#xf771;" horiz-adv-x="1173" 
d="M1118 -262v-37q-30 -6 -74 -6q-60 0 -130 25.5t-108.5 48.5t-64.5 43q-126 94 -229 168q-182 30 -299 155.5t-117 306.5q0 65 18.5 131t58 129t96 112t140 78.5t181.5 29.5q97 0 179.5 -27.5t139 -74t96 -108t58 -128t18.5 -135.5q0 -169 -98 -294t-260 -165
q49 -31 135 -107q71 -63 124 -96t75.5 -39t60.5 -10zM258 465q0 -240 107 -359q85 -96 221 -96q38 0 76 8.5t86.5 38t85 75.5t61.5 130.5t25 194.5q0 106 -28 190t-75 135.5t-105 78t-122 26.5q-141 0 -236.5 -110t-95.5 -312z" />
    <glyph glyph-name="r.sc" unicode="&#xf772;" horiz-adv-x="960" 
d="M346 387v-205q0 -92 17.5 -118.5t82.5 -26.5h60v-37h-453v37h33q70 0 91.5 27t21.5 92v579q0 55 -17 76q-11 16 -30.5 20t-100.5 9v37q258 24 361 24q397 0 397 -256q0 -48 -15 -87t-33.5 -61.5t-50.5 -42.5t-49.5 -27t-46.5 -17q32 -29 52.5 -61t72.5 -144
q48 -102 84.5 -137.5t96.5 -44.5v-37q-112 5 -182 41t-132 133q-10 15 -38 64t-56.5 101t-34.5 62h-131zM346 856v-432h92q44 0 80.5 10.5t68.5 34.5t50 68t18 104q0 61 -21 106t-55.5 68.5t-70 34t-72.5 10.5q-50 0 -90 -4z" />
    <glyph glyph-name="s.sc" unicode="&#xf773;" horiz-adv-x="747" 
d="M588 895l20 -205h-39q-30 80 -69 119q-32 33 -71.5 50.5t-74.5 17.5q-61 0 -101 -39.5t-40 -92.5q0 -26 9 -47.5t22 -39t51 -46.5t71.5 -51.5t108.5 -71.5q25 -16 40 -27t44.5 -38t47 -53t32 -65.5t14.5 -82.5q0 -106 -75.5 -180t-198.5 -74q-36 0 -64 6t-112 29
q-16 4 -25 4q-22 0 -28 -18h-33l-25 221h41q21 -61 54.5 -104.5t68.5 -62.5t60.5 -26.5t45.5 -7.5q24 0 51.5 8t56 25t47 49.5t18.5 75.5q0 72 -50.5 123t-177.5 129q-125 78 -169 140.5t-44 129.5q0 97 72.5 163.5t167.5 66.5q67 0 131 -23q1 0 28 -10t33 -10q12 0 25 18
h37z" />
    <glyph glyph-name="t.sc" unicode="&#xf774;" horiz-adv-x="960" 
d="M59 692l19 230h28q16 -22 31 -27q12 -4 41 -4h598q40 0 54 6t22 25h29l16 -230h-33q-22 97 -46.5 122.5t-94.5 25.5h-170v-674q0 -32 1 -50t9 -33.5t15.5 -22t31 -12t45 -7.5t66.5 -4v-37h-483v37q44 2 66.5 3.5t45 6.5t31 11.5t16 21.5t8.5 31.5t1 46.5v682h-185
q-23 0 -34.5 -0.5t-24.5 -6.5t-19 -13t-15.5 -26.5t-15.5 -40.5t-18 -61h-35z" />
    <glyph glyph-name="u.sc" unicode="&#xf775;" horiz-adv-x="1173" 
d="M66 891h452v-37q-99 -4 -127.5 -31.5t-28.5 -107.5v-373q0 -45 1 -69.5t8 -60t20 -60.5q23 -43 78 -77t149 -34q36 0 70.5 5.5t73 20t69.5 44t48 71.5q22 51 22 203v303q0 43 -0.5 61t-5.5 42t-13.5 31.5t-27.5 17t-44.5 11.5t-66.5 3v37h367v-37q-50 1 -80 -4.5
t-44.5 -22.5t-18.5 -36.5t-4 -55.5v-368q0 -164 -37 -238q-22 -46 -63 -79t-89.5 -49.5t-93 -24t-88.5 -7.5q-39 0 -77 5t-91.5 19.5t-100 49t-75.5 86.5q-31 55 -31 188v402q0 33 -0.5 47.5t-5.5 33.5t-13 25t-26 14t-42.5 10.5t-63.5 4.5v37z" />
    <glyph glyph-name="v.sc" unicode="&#xf776;" 
d="M49 891h432v-37q-24 2 -49.5 0.5t-46.5 -5.5t-35 -15.5t-14 -30.5q0 -15 24 -80l224 -569l200 563q27 71 27 86q0 18 -10.5 29.5t-34 15.5t-41.5 5t-53 1h-8v37h354v-37q-70 0 -99.5 -27t-68.5 -131l-266 -716h-86l-295 765q-16 39 -31 61.5t-35.5 33t-37.5 12.5t-50 2
v37z" />
    <glyph glyph-name="w.sc" unicode="&#xf777;" horiz-adv-x="1599" 
d="M49 891h389v-37q-27 0 -40.5 -1t-31 -4.5t-25 -12t-7.5 -23.5q0 -33 26 -100l228 -586l194 362l-129 279q-26 56 -46.5 71t-80.5 15v37h623v-37q-68 2 -95.5 -17t-66.5 -96l-92 -172l205 -434l239 563q35 88 35 113q0 15 -9.5 24.5t-30 13t-34.5 4.5t-40 1v37h290v-37
q-52 1 -72.5 -20t-50.5 -95l-325 -766h-78l-209 445l-235 -445h-78l-289 742q-14 36 -20 51t-17.5 34.5t-19.5 25.5t-24.5 14t-34.5 10t-48 4v37zM911 854h-90q-39 0 -39 -25q0 -10 15 -45l67 -141l62 119q24 47 24 65q0 27 -39 27z" />
    <glyph glyph-name="x.sc" unicode="&#xf778;" horiz-adv-x="1173" 
d="M55 891h459v-37q-58 0 -89.5 -6.5t-31.5 -28.5q0 -13 24 -47.5t42 -54.5l143 -178l158 190q28 33 38.5 50t10.5 34q0 10 -4.5 17.5t-14.5 11.5t-19 6.5t-25.5 4t-26 1.5h-27.5v37h400v-37q-71 -4 -114 -19.5t-71 -40.5t-78 -85l-184 -224l250 -313q66 -83 105.5 -106.5
t117.5 -28.5v-37h-479v37q92 4 109 13q16 9 16 30q0 20 -10 37t-39 51l-166 207l-170 -207q-28 -33 -37.5 -48.5t-9.5 -31.5q0 -15 9 -25t29 -15t32.5 -7t39.5 -4v-37h-389v37q82 1 138.5 37.5t132.5 130.5l184 221l-272 336q-49 62 -76 74.5t-105 17.5v37z" />
    <glyph glyph-name="y.sc" unicode="&#xf779;" 
d="M39 891h434v-37q-64 -3 -77.5 -4.5t-20.5 -7.5q-13 -10 -13 -25q0 -11 48 -94l192 -291l160 277q47 80 47 108q0 13 -7.5 20.5t-24.5 11t-33.5 4.5t-43.5 1v37h326v-37q-29 -1 -47 -2t-35 -7.5t-25 -10.5t-22 -21.5t-21 -28.5t-26 -43l-219 -379v-180q0 -92 17 -118.5
t83 -26.5h57v-37h-460v37h45q30 0 47 1t31 8t20 13t9.5 26t4 36.5t0.5 54.5v186l-264 400q-24 37 -34.5 50.5t-31.5 26t-44 14t-72 1.5v37z" />
    <glyph glyph-name="z.sc" unicode="&#xf77a;" horiz-adv-x="960" 
d="M129 891h743v-35l-632 -803h397q63 0 89 6t40 21q40 55 70 190h36l-16 -270h-793v53l625 793h-354q-35 0 -52.5 -1t-38.5 -6t-31 -15t-21.5 -28.5t-18.5 -45.5t-14 -68h-37z" />
    <glyph glyph-name="exclamdown.sc" unicode="&#xf7a1;" horiz-adv-x="362" 
d="M270 524q0 -34 -25 -58t-63 -24q-40 0 -65 23.5t-25 60.5q0 35 26 58.5t64 23.5q37 0 62.5 -24t25.5 -60zM154 377h55l55 -633q2 -22 1 -37t-12.5 -22t-37.5 -7h-65q-35 0 -44 13t-6 53z" />
    <glyph glyph-name="dieresis.sc" unicode="&#xf7a8;" horiz-adv-x="681" 
d="M53 1147q0 37 26.5 63.5t63.5 26.5t63.5 -26.5t26.5 -63.5q0 -38 -26.5 -64t-63.5 -26t-63.5 26.5t-26.5 63.5zM451 1147q0 38 26.5 64t63.5 26q38 0 64 -26.5t26 -63.5t-26.5 -63.5t-63.5 -26.5q-36 0 -63 26t-27 64z" />
    <glyph glyph-name="macron.sc" unicode="&#xf7af;" horiz-adv-x="681" 
d="M59 1204h564v-117h-564v117z" />
    <glyph glyph-name="acute.sc" unicode="&#xf7b4;" horiz-adv-x="681" 
d="M178 999h-26l127 172q75 108 103 136q43 43 87 43q29 0 46 -17.5t17 -40.5q0 -19 -7 -34t-38.5 -44t-91.5 -69z" />
    <glyph glyph-name="cedilla.sc" unicode="&#xf7b8;" horiz-adv-x="681" 
d="M219 -410l14 29q20 -10 54 -10q40 0 74 29t34 77q0 74 -67 74q-45 0 -127 -41l157 264h31l-65 -110q52 4 89.5 -20.5t53.5 -59.5t16 -74q0 -64 -47 -120t-129 -56q-52 0 -88 18z" />
    <glyph glyph-name="questiondown.sc" unicode="&#xf7bf;" horiz-adv-x="491" 
d="M362 524q0 -34 -25 -58t-63 -24q-40 0 -65 23.5t-25 60.5q0 35 26 58.5t64 23.5q37 0 62.5 -24t25.5 -60zM217 360h78q76 -89 76 -161q0 -32 -11 -57t-31.5 -40.5t-35 -23t-37.5 -15.5q-38 -14 -57 -22.5t-46 -25.5t-39 -40.5t-12 -54.5q0 -33 12.5 -55.5t33 -33
t40.5 -15t41 -4.5q9 0 57 5t56 5q10 0 20.5 -1.5t30 -7t31.5 -20.5t12 -39q0 -29 -17.5 -48t-45.5 -26t-43.5 -8.5t-30.5 -1.5q-49 0 -94.5 16.5t-84 48t-62 85t-23.5 121.5q0 57 16.5 101t46.5 72t58.5 44.5t64.5 29.5q28 11 40 16.5t21 15.5t9 24q0 17 -9.5 35t-20.5 31
t-44 50z" />
    <glyph glyph-name="agrave.sc" unicode="&#xf7e0;" 
d="M444 920h148l280 -762q16 -43 23.5 -60.5t24 -33.5t38 -20.5t62.5 -6.5v-37h-428v37q35 1 52.5 2.5t41.5 7t34.5 18.5t10.5 33q0 32 -29 113l-63 172h-295l-47 -119q-39 -103 -39 -149q0 -18 8.5 -31.5t19 -21t33 -13t36.5 -7.5t44 -5v-37h-352v37q39 8 62 17.5t42 34
t28.5 45.5t31.5 75l254 651zM496 776l-129 -334h251zM588 999l-217 146q-61 41 -93.5 71.5t-38.5 44t-6 29.5q0 28 18.5 44t43.5 16q26 0 48.5 -11t49 -41t42.5 -52t52 -75l127 -172h-26z" />
    <glyph glyph-name="aacute.sc" unicode="&#xf7e1;" 
d="M444 920h148l280 -762q16 -43 23.5 -60.5t24 -33.5t38 -20.5t62.5 -6.5v-37h-428v37q35 1 52.5 2.5t41.5 7t34.5 18.5t10.5 33q0 32 -29 113l-63 172h-295l-47 -119q-39 -103 -39 -149q0 -18 8.5 -31.5t19 -21t33 -13t36.5 -7.5t44 -5v-37h-352v37q39 8 62 17.5t42 34
t28.5 45.5t31.5 75l254 651zM496 776l-129 -334h251zM412 999h-27l127 172q75 108 103 136q43 43 87 43q29 0 46.5 -17.5t17.5 -40.5q0 -19 -7 -34t-38.5 -44t-91.5 -69z" />
    <glyph glyph-name="acircumflex.sc" unicode="&#xf7e2;" 
d="M444 920h148l280 -762q16 -43 23.5 -60.5t24 -33.5t38 -20.5t62.5 -6.5v-37h-428v37q35 1 52.5 2.5t41.5 7t34.5 18.5t10.5 33q0 32 -29 113l-63 172h-295l-47 -119q-39 -103 -39 -149q0 -18 8.5 -31.5t19 -21t33 -13t36.5 -7.5t44 -5v-37h-352v37q39 8 62 17.5t42 34
t28.5 45.5t31.5 75l254 651zM496 776l-129 -334h251zM528 1253l-241 -258v37l221 367h57l217 -367v-37z" />
    <glyph glyph-name="atilde.sc" unicode="&#xf7e3;" 
d="M444 920h148l280 -762q16 -43 23.5 -60.5t24 -33.5t38 -20.5t62.5 -6.5v-37h-428v37q35 1 52.5 2.5t41.5 7t34.5 18.5t10.5 33q0 32 -29 113l-63 172h-295l-47 -119q-39 -103 -39 -149q0 -18 8.5 -31.5t19 -21t33 -13t36.5 -7.5t44 -5v-37h-352v37q39 8 62 17.5t42 34
t28.5 45.5t31.5 75l254 651zM496 776l-129 -334h251zM281 1057h-23q7 108 31 151q51 82 135 82q37 0 66.5 -14.5t87.5 -54.5q52 -37 74 -47.5t44 -10.5q83 0 90 125h23q4 -112 -44.5 -170.5t-113.5 -58.5q-35 0 -62.5 13t-90.5 56q-76 50 -93 55q-11 3 -24 3
q-83 0 -100 -129z" />
    <glyph glyph-name="adieresis.sc" unicode="&#xf7e4;" 
d="M442 920h152l278 -762q16 -43 23.5 -60.5t24 -33.5t38 -20.5t62.5 -6.5v-37h-426v37l42 1.5t35.5 4t32 9.5t19 18t8.5 28q0 32 -29 113l-63 172h-295l-47 -119q-39 -103 -39 -149q0 -18 8.5 -31.5t19 -21t33 -13t36.5 -7.5t44 -5v-37h-352v37q39 8 62 17.5t42 34
t28.5 45.5t31.5 75l254 651zM498 776l-131 -334h251zM244 1147q0 37 26 63.5t64 26.5q37 0 63.5 -26.5t26.5 -63.5q0 -38 -26.5 -64t-63.5 -26t-63.5 26.5t-26.5 63.5zM643 1147q0 38 26.5 64t63.5 26q38 0 64 -26.5t26 -63.5t-26.5 -63.5t-63.5 -26.5q-36 0 -63 26t-27 64z
" />
    <glyph glyph-name="aring.sc" unicode="&#xf7e5;" 
d="M444 920h148l280 -762q16 -43 23.5 -60.5t24 -33.5t38 -20.5t62.5 -6.5v-37h-428v37q35 1 52.5 2.5t41.5 7t34.5 18.5t10.5 33q0 32 -29 113l-63 172h-295l-47 -119q-39 -103 -39 -149q0 -18 8.5 -31.5t19 -21t33 -13t36.5 -7.5t44 -5v-37h-352v37q39 8 62 17.5t42 34
t28.5 45.5t31.5 75l254 651zM496 776l-129 -334h251zM348 1133q0 76 55 131t132 55t131.5 -54.5t54.5 -131.5t-55 -132t-131 -55q-75 0 -131 55.5t-56 131.5zM397 1133q0 -58 40.5 -98t97.5 -40t97 40.5t40 97.5t-40 97t-97 40t-97.5 -40t-40.5 -97z" />
    <glyph glyph-name="ae.sc" unicode="&#xf7e6;" horiz-adv-x="1386" 
d="M487 891h766l17 -199h-41q-10 55 -21 86t-30.5 45.5t-37.5 17.5t-55 3h-229v-367h199q41 0 57 1.5t33 12.5t23.5 33t11.5 64h37v-275h-37q-4 46 -8 66t-17 34.5t-31.5 16.5t-58.5 2h-209v-254q0 -78 5 -96t30 -27q20 -6 113 -6h61q51 0 81.5 5t59 22t45.5 51t29 90h33
l-19 -217h-753v35q52 5 84 13t50.5 15.5t26.5 25t9.5 31t1.5 44.5v231h-269l-96 -172q-51 -89 -51 -129q0 -51 123 -57v-37h-373v35q90 15 130 48t102 142l292 527q21 36 25 45.5t4 21.5q0 17 -24.5 23.5t-88.5 11.5v37zM700 854l-229 -408h242v408h-13z" />
    <glyph glyph-name="ccedilla.sc" unicode="&#xf7e7;" 
d="M598 -20l-47 -78q52 4 90 -20.5t54 -59.5t16 -74q0 -64 -47 -120t-129 -56q-50 0 -86 18l12 29q20 -10 53 -10q42 0 75.5 29t33.5 77q0 8 -1.5 16.5t-7 23.5t-20.5 24.5t-39 9.5q-45 0 -127 -41l139 232q-121 7 -198 43q-117 55 -183.5 167t-66.5 246q0 130 65 242.5
t178 179t246 66.5q62 0 96.5 -9.5t153.5 -56.5q18 -6 33 -6q25 0 43 18h33l8 -213h-31q-15 28 -25 44t-31.5 47t-45 50.5t-56 40.5t-74.5 31.5t-91 10.5q-101 0 -179.5 -62.5t-119.5 -165t-41 -225.5q0 -98 29 -179.5t75.5 -131t102 -76.5t112.5 -27q205 0 367 205h34
q-24 -66 -45 -108t-69 -119q-77 5 -197 -8q-76 -5 -92 -4z" />
    <glyph glyph-name="egrave.sc" unicode="&#xf7e8;" horiz-adv-x="854" 
d="M342 846v-369h221q23 0 33.5 0.5t25 3.5t20 9.5t13 19t10.5 31.5t5 47h41v-277h-41q-3 83 -23.5 102t-97.5 19h-207v-293q0 -65 12.5 -76.5t79.5 -11.5h156q39 0 62 4.5t46 20.5t39.5 50t30.5 91h39l-19 -217h-739v35q64 -2 96 11.5t41 37t9 70.5v581q0 76 -29 98.5
t-117 20.5v37h701l8 -195h-37q-9 51 -19.5 80.5t-30 45t-42.5 20t-64 4.5h-223zM506 999l-217 146q-61 41 -93 71.5t-38 44t-6 29.5q0 28 18 44t43 16q21 0 41.5 -9.5t36 -21.5t38 -40.5t36 -47t41.5 -60.5l126 -172h-26z" />
    <glyph glyph-name="eacute.sc" unicode="&#xf7e9;" horiz-adv-x="854" 
d="M342 846v-369h221q23 0 33.5 0.5t25 3.5t20 9.5t13 19t10.5 31.5t5 47h41v-277h-41q-3 83 -23.5 102t-97.5 19h-207v-293q0 -65 12.5 -76.5t79.5 -11.5h156q39 0 62 4.5t46 20.5t39.5 50t30.5 91h39l-19 -217h-739v35q64 -2 96 11.5t41 37t9 70.5v581q0 76 -29 98.5
t-117 20.5v37h701l8 -195h-37q-9 51 -19.5 80.5t-30 45t-42.5 20t-64 4.5h-223zM362 999h-26l127 172q75 108 103 136q43 43 87 43q29 0 46.5 -17.5t17.5 -40.5q0 -19 -7 -34t-38.5 -44t-91.5 -69z" />
    <glyph glyph-name="ecircumflex.sc" unicode="&#xf7ea;" horiz-adv-x="854" 
d="M342 846v-369h221q23 0 33.5 0.5t25 3.5t20 9.5t13 19t10.5 31.5t5 47h41v-277h-41q-3 83 -23.5 102t-97.5 19h-207v-293q0 -65 12.5 -76.5t79.5 -11.5h156q39 0 62 4.5t46 20.5t39.5 50t30.5 91h39l-19 -217h-739v35q64 -2 96 11.5t41 37t9 70.5v581q0 76 -29 98.5
t-117 20.5v37h701l8 -195h-37q-9 51 -19.5 80.5t-30 45t-42.5 20t-64 4.5h-223zM418 1253l-242 -258v37l221 367h58l217 -367v-37z" />
    <glyph glyph-name="edieresis.sc" unicode="&#xf7eb;" horiz-adv-x="854" 
d="M342 846v-369h221q23 0 33.5 0.5t25 3.5t20 9.5t13 19t10.5 31.5t5 47h41v-277h-41q-3 83 -23.5 102t-97.5 19h-207v-293q0 -65 12.5 -76.5t79.5 -11.5h156q39 0 62 4.5t46 20.5t39.5 50t30.5 91h39l-19 -217h-739v35q64 -2 96 11.5t41 37t9 70.5v581q0 76 -29 98.5
t-117 20.5v37h701l8 -195h-37q-9 51 -19.5 80.5t-30 45t-42.5 20t-64 4.5h-223zM135 1147q0 37 26.5 63.5t63.5 26.5t63.5 -26.5t26.5 -63.5q0 -38 -26.5 -64t-63.5 -26t-63.5 26.5t-26.5 63.5zM532 1147q0 38 27 64t64 26q38 0 64 -26.5t26 -63.5t-26.5 -63.5t-63.5 -26.5
q-36 0 -63.5 26.5t-27.5 63.5z" />
    <glyph glyph-name="igrave.sc" unicode="&#xf7ec;" horiz-adv-x="555" 
d="M498 891v-37q-38 -2 -62 -4.5t-41.5 -11t-25.5 -16t-13 -29t-5.5 -38.5t-0.5 -55v-507q0 -96 29 -123t127 -33v-37h-451v37q97 3 123.5 30t26.5 130v501q0 96 -29 123t-127 33v37h449zM383 999l-217 146q-61 41 -93 71.5t-38 44t-6 29.5q0 28 18 44t43 16q21 0 41.5 -9.5
t36 -21.5t38 -40.5t36 -47t41.5 -60.5l127 -172h-27z" />
    <glyph glyph-name="iacute.sc" unicode="&#xf7ed;" horiz-adv-x="555" 
d="M498 891v-37q-38 -2 -62 -4.5t-41.5 -11t-25.5 -16t-13 -29t-5.5 -38.5t-0.5 -55v-507q0 -96 29 -123t127 -33v-37h-451v37q97 3 123.5 30t26.5 130v501q0 96 -29 123t-127 33v37h449zM178 999h-26l127 172q75 108 103 136q43 43 87 43q29 0 46 -17.5t17 -40.5
q0 -19 -7 -34t-38.5 -44t-91.5 -69z" />
    <glyph glyph-name="icircumflex.sc" unicode="&#xf7ee;" horiz-adv-x="555" 
d="M498 891v-37q-38 -2 -62 -4.5t-41.5 -11t-25.5 -16t-13 -29t-5.5 -38.5t-0.5 -55v-507q0 -96 29 -123t127 -33v-37h-451v37q97 3 123.5 30t26.5 130v501q0 96 -29 123t-127 33v37h449zM274 1253l-241 -258v37l221 367h57l217 -367v-37z" />
    <glyph glyph-name="idieresis.sc" unicode="&#xf7ef;" horiz-adv-x="555" 
d="M498 891v-37q-38 -2 -62 -4.5t-41.5 -11t-25.5 -16t-13 -29t-5.5 -38.5t-0.5 -55v-507q0 -96 29 -123t127 -33v-37h-451v37q97 3 123.5 30t26.5 130v501q0 96 -29 123t-127 33v37h449zM-10 1147q0 37 26.5 63.5t63.5 26.5t63.5 -26.5t26.5 -63.5q0 -38 -26.5 -64
t-63.5 -26t-63.5 26.5t-26.5 63.5zM387 1147q0 38 26.5 64t63.5 26q38 0 64 -26.5t26 -63.5t-26.5 -63.5t-63.5 -26.5q-36 0 -63 26t-27 64z" />
    <glyph glyph-name="eth.sc" unicode="&#xf7f0;" horiz-adv-x="1087" 
d="M203 422h-140v47h140v236q0 38 -0.5 57.5t-4 38t-7.5 25t-16 12t-24 6t-36 0.5h-35v43q324 14 418 14q111 0 199 -27.5t141 -71t88 -101.5t48 -114t13 -114q0 -79 -22.5 -149.5t-59 -120t-72.5 -82.5t-73 -55q-49 -31 -113.5 -46.5t-108.5 -17.5t-124 -2h-334v45h47
q52 0 64 23.5t12 117.5v236zM573 422h-219v-289q0 -64 2 -70q3 -20 54 -20q89 0 137.5 7t93.5 34q26 14 53.5 41.5t57 71.5t48.5 110t19 142q0 51 -10 104.5t-34 115t-75.5 108t-124.5 63.5q-96 20 -221 14v-385h219v-47z" />
    <glyph glyph-name="ntilde.sc" unicode="&#xf7f1;" horiz-adv-x="1173" 
d="M57 891h252l602 -668v512q0 23 -0.5 33.5t-3.5 28.5t-10 26.5t-20 16.5t-33 10q-28 4 -88 4v37h366v-37q-49 1 -78.5 -4.5t-44 -22.5t-18.5 -36.5t-4 -55.5v-741h-49l-662 735v-547q0 -36 2 -58.5t10.5 -39.5t17.5 -25.5t32 -13.5t44.5 -6t63.5 -2v-37h-381v37
q93 -3 119.5 23t26.5 96v573q0 34 -7.5 57.5t-17.5 36t-32 19.5t-38 8.5t-49 3.5v37zM334 1057h-23q7 108 31 151q51 82 135 82q37 0 66.5 -14.5t87.5 -54.5q52 -36 74.5 -47t44.5 -11q83 0 90 125h22q4 -112 -44 -170.5t-113 -58.5q-35 0 -63.5 13.5t-90.5 55.5
q-76 50 -93 55q-11 3 -24 3q-83 0 -100 -129z" />
    <glyph glyph-name="ograve.sc" unicode="&#xf7f2;" horiz-adv-x="1173" 
d="M98 457q0 91 29.5 169t78.5 132.5t113 93t133 56.5t138 18q91 0 176 -29.5t155.5 -86t113 -148t42.5 -205.5q0 -100 -29.5 -182t-78 -136.5t-112.5 -92.5t-131.5 -54.5t-137.5 -16.5q-69 0 -136.5 16.5t-132 54.5t-113.5 92.5t-78.5 137t-29.5 181.5zM918 455
q0 114 -27 200.5t-74.5 136.5t-106 74.5t-126.5 24.5q-101 0 -177 -60.5t-112.5 -154t-36.5 -203.5q0 -153 30.5 -237t82.5 -136q90 -90 215 -90q62 0 118.5 24.5t105.5 74.5t78.5 139t29.5 207zM588 999l-217 146q-61 41 -93.5 71.5t-38.5 44t-6 29.5q0 28 18.5 44t43.5 16
q26 0 48.5 -11t49 -41t42.5 -52t52 -75l127 -172h-26z" />
    <glyph glyph-name="oacute.sc" unicode="&#xf7f3;" horiz-adv-x="1173" 
d="M98 457q0 91 29.5 169t78.5 132.5t113 93t133 56.5t138 18q91 0 176 -29.5t155.5 -86t113 -148t42.5 -205.5q0 -100 -29.5 -182t-78 -136.5t-112.5 -92.5t-131.5 -54.5t-137.5 -16.5q-69 0 -136.5 16.5t-132 54.5t-113.5 92.5t-78.5 137t-29.5 181.5zM918 455
q0 114 -27 200.5t-74.5 136.5t-106 74.5t-126.5 24.5q-101 0 -177 -60.5t-112.5 -154t-36.5 -203.5q0 -153 30.5 -237t82.5 -136q90 -90 215 -90q62 0 118.5 24.5t105.5 74.5t78.5 139t29.5 207zM506 999h-27l127 172q76 109 106 138q43 41 85 41q29 0 46 -17.5t17 -40.5
q0 -19 -7 -34t-38.5 -44t-91.5 -69z" />
    <glyph glyph-name="ocircumflex.sc" unicode="&#xf7f4;" horiz-adv-x="1173" 
d="M98 457q0 91 29.5 169t78.5 132.5t113 93t133 56.5t138 18q91 0 176 -29.5t155.5 -86t113 -148t42.5 -205.5q0 -100 -29.5 -182t-78 -136.5t-112.5 -92.5t-131.5 -54.5t-137.5 -16.5q-69 0 -136.5 16.5t-132 54.5t-113.5 92.5t-78.5 137t-29.5 181.5zM918 455
q0 114 -27 200.5t-74.5 136.5t-106 74.5t-126.5 24.5q-101 0 -177 -60.5t-112.5 -154t-36.5 -203.5q0 -153 30.5 -237t82.5 -136q90 -90 215 -90q62 0 118.5 24.5t105.5 74.5t78.5 139t29.5 207zM582 1253l-242 -258v37l221 367h57l218 -367v-37z" />
    <glyph glyph-name="otilde.sc" unicode="&#xf7f5;" horiz-adv-x="1173" 
d="M98 457q0 91 29.5 169t78.5 132.5t113 93t133 56.5t138 18q91 0 176 -29.5t155.5 -86t113 -148t42.5 -205.5q0 -100 -29.5 -182t-78 -136.5t-112.5 -92.5t-131.5 -54.5t-137.5 -16.5q-69 0 -136.5 16.5t-132 54.5t-113.5 92.5t-78.5 137t-29.5 181.5zM918 455
q0 114 -27 200.5t-74.5 136.5t-106 74.5t-126.5 24.5q-101 0 -177 -60.5t-112.5 -154t-36.5 -203.5q0 -153 30.5 -237t82.5 -136q90 -90 215 -90q62 0 118.5 24.5t105.5 74.5t78.5 139t29.5 207zM334 1057h-23q7 108 31 151q51 82 135 82q37 0 66.5 -14.5t87.5 -54.5
q52 -36 74.5 -47t44.5 -11q83 0 90 125h22q4 -112 -44 -170.5t-113 -58.5q-35 0 -63.5 13.5t-90.5 55.5q-76 50 -93 55q-11 3 -24 3q-83 0 -100 -129z" />
    <glyph glyph-name="odieresis.sc" unicode="&#xf7f6;" horiz-adv-x="1173" 
d="M98 457q0 62 18 126t57.5 126t95.5 110t139 77.5t182 29.5q115 0 209 -39.5t154 -106t92 -150.5t32 -175q0 -93 -31.5 -178t-91 -153t-154.5 -108.5t-212 -40.5q-97 0 -184.5 32t-156 91.5t-109 152.5t-40.5 206zM256 469q0 -153 31.5 -237t83.5 -136q90 -90 215 -90
q49 0 95 14.5t90 48t76.5 83.5t52.5 127t20 172q0 114 -27.5 199.5t-65.5 130.5t-88.5 72.5t-86 34.5t-68.5 7q-101 0 -177.5 -61.5t-113.5 -157t-37 -207.5zM297 1147q0 37 26 63.5t64 26.5q37 0 63.5 -26.5t26.5 -63.5q0 -38 -26.5 -64t-63.5 -26t-63.5 26.5t-26.5 63.5z
M696 1147q0 38 26.5 64t63.5 26q38 0 64.5 -26.5t26.5 -63.5t-27 -63.5t-64 -26.5q-36 0 -63 26t-27 64z" />
    <glyph glyph-name="oslash.sc" unicode="&#xf7f8;" horiz-adv-x="1173" 
d="M883 840l102 125l31 -23l-103 -125q78 -67 121 -162.5t43 -199.5q0 -93 -31.5 -178t-91 -153t-154.5 -108.5t-212 -40.5q-166 0 -291 84l-127 -155l-31 24l127 156q-170 142 -170 360q0 93 33 179t94 154t156 108.5t209 40.5q174 0 295 -86zM324 154l505 622
q-89 115 -245 115q-142 0 -235 -117t-93 -317q0 -197 68 -303zM852 743l-506 -620q91 -113 240 -113q64 0 121.5 25t105.5 75.5t76.5 138t28.5 200.5q0 181 -66 294z" />
    <glyph glyph-name="ugrave.sc" unicode="&#xf7f9;" horiz-adv-x="1173" 
d="M66 891h452v-37q-99 -4 -127.5 -31.5t-28.5 -107.5v-373q0 -45 1 -69.5t8 -60t20 -60.5q23 -43 78 -77t149 -34q36 0 70.5 5.5t73 20t69.5 44t48 71.5q22 51 22 203v303q0 43 -0.5 61t-5.5 42t-13.5 31.5t-27.5 17t-44.5 11.5t-66.5 3v37h367v-37q-50 1 -80 -4.5
t-44.5 -22.5t-18.5 -36.5t-4 -55.5v-368q0 -164 -37 -238q-22 -46 -63 -79t-89.5 -49.5t-93 -24t-88.5 -7.5q-39 0 -77 5t-91.5 19.5t-100 49t-75.5 86.5q-31 55 -31 188v402q0 33 -0.5 47.5t-5.5 33.5t-13 25t-26 14t-42.5 10.5t-63.5 4.5v37zM629 999l-217 146
q-61 41 -93.5 71.5t-38.5 44t-6 29.5q0 28 18.5 44t43.5 16q26 0 48.5 -11t49 -41t42.5 -52t52 -75l127 -172h-26z" />
    <glyph glyph-name="uacute.sc" unicode="&#xf7fa;" horiz-adv-x="1173" 
d="M66 891h452v-37q-99 -4 -127.5 -31.5t-28.5 -107.5v-373q0 -45 1 -69.5t8 -60t20 -60.5q23 -43 78 -77t149 -34q36 0 70.5 5.5t73 20t69.5 44t48 71.5q22 51 22 203v303q0 43 -0.5 61t-5.5 42t-13.5 31.5t-27.5 17t-44.5 11.5t-66.5 3v37h367v-37q-50 1 -80 -4.5
t-44.5 -22.5t-18.5 -36.5t-4 -55.5v-368q0 -164 -37 -238q-22 -46 -63 -79t-89.5 -49.5t-93 -24t-88.5 -7.5q-39 0 -77 5t-91.5 19.5t-100 49t-75.5 86.5q-31 55 -31 188v402q0 33 -0.5 47.5t-5.5 33.5t-13 25t-26 14t-42.5 10.5t-63.5 4.5v37zM588 999h-27l127 172
q76 109 106 138q43 41 85 41q29 0 46 -17.5t17 -40.5q0 -19 -7 -34t-38.5 -44t-91.5 -69z" />
    <glyph glyph-name="ucircumflex.sc" unicode="&#xf7fb;" horiz-adv-x="1173" 
d="M66 891h452v-37q-99 -4 -127.5 -31.5t-28.5 -107.5v-373q0 -45 1 -69.5t8 -60t20 -60.5q23 -43 78 -77t149 -34q36 0 70.5 5.5t73 20t69.5 44t48 71.5q22 51 22 203v303q0 43 -0.5 61t-5.5 42t-13.5 31.5t-27.5 17t-44.5 11.5t-66.5 3v37h367v-37q-50 1 -80 -4.5
t-44.5 -22.5t-18.5 -36.5t-4 -55.5v-368q0 -164 -37 -238q-22 -46 -63 -79t-89.5 -49.5t-93 -24t-88.5 -7.5q-39 0 -77 5t-91.5 19.5t-100 49t-75.5 86.5q-31 55 -31 188v402q0 33 -0.5 47.5t-5.5 33.5t-13 25t-26 14t-42.5 10.5t-63.5 4.5v37zM623 1253l-242 -258v37
l221 367h57l218 -367v-37z" />
    <glyph glyph-name="udieresis.sc" unicode="&#xf7fc;" horiz-adv-x="1173" 
d="M66 891h452v-37q-99 -4 -127.5 -31.5t-28.5 -107.5v-373q0 -45 1 -69.5t8 -60t20 -60.5q23 -43 78 -77t149 -34q36 0 70.5 5.5t73 20t69.5 44t48 71.5q22 51 22 203v303q0 43 -0.5 61t-5.5 42t-13.5 31.5t-27.5 17t-44.5 11.5t-66.5 3v37h367v-37q-50 1 -80 -4.5
t-44.5 -22.5t-18.5 -36.5t-4 -55.5v-368q0 -164 -37 -238q-22 -46 -63 -79t-89.5 -49.5t-93 -24t-88.5 -7.5q-39 0 -77 5t-91.5 19.5t-100 49t-75.5 86.5q-31 55 -31 188v402q0 33 -0.5 47.5t-5.5 33.5t-13 25t-26 14t-42.5 10.5t-63.5 4.5v37zM340 1147q0 37 26.5 63.5
t63.5 26.5t63.5 -26.5t26.5 -63.5q0 -38 -26.5 -64t-63.5 -26t-63.5 26.5t-26.5 63.5zM737 1147q0 38 26.5 64t63.5 26q38 0 64.5 -26.5t26.5 -63.5t-27 -63.5t-64 -26.5q-36 0 -63 26t-27 64z" />
    <glyph glyph-name="yacute.sc" unicode="&#xf7fd;" 
d="M39 891h434v-37q-64 -3 -77.5 -4.5t-20.5 -7.5q-13 -10 -13 -25q0 -11 48 -94l192 -291l160 277q47 80 47 108q0 13 -7.5 20.5t-24.5 11t-33.5 4.5t-43.5 1v37h326v-37q-29 -1 -47 -2t-35 -7.5t-25 -10.5t-22 -21.5t-21 -28.5t-26 -43l-219 -379v-180q0 -92 17 -118.5
t83 -26.5h57v-37h-460v37h45q30 0 47 1t31 8t20 13t9.5 26t4 36.5t0.5 54.5v186l-264 400q-24 37 -34.5 50.5t-31.5 26t-44 14t-72 1.5v37zM535 999h-27l127 172q75 108 103 136q43 43 87 43q29 0 46.5 -17.5t17.5 -40.5q0 -19 -7 -34t-38.5 -44t-91.5 -69z" />
    </font>
</defs>
</svg>
